<?xml version="1.0" standalone="no"?>
<!DOCTYPE svg PUBLIC "-//W3C//DTD SVG 1.1//EN" "http://www.w3.org/Graphics/SVG/1.1/DTD/svg11.dtd" >
<svg>
<metadata>
Created by FontForge 20090914 at Fri Feb 24 10:18:20 2012
 By root
Copyright (c) 2005 by studio kmzero. All rights reserved.
</metadata>
<defs>
<font id="HandVetica" horiz-adv-x="543" >
  <font-face 
    font-family="HandVetica"
    font-weight="400"
    font-stretch="normal"
    units-per-em="1000"
    panose-1="2 0 8 6 0 0 0 2 0 4"
    ascent="800"
    descent="-200"
    x-height="545"
    cap-height="718"
    bbox="-88 -211 1121.33 988"
    underline-thickness="50"
    underline-position="-75"
    unicode-range="U+0020-U+2122"
  />
<missing-glyph horiz-adv-x="266" 
 />
    <glyph glyph-name=".notdef" horiz-adv-x="266" 
 />
    <glyph glyph-name="exclam" unicode="!" horiz-adv-x="223" 
d="M143 739q10 -10 16.5 -19t16.5 -14q0 -15 -1 -25.5t-6 -21.5q13 -13 17.5 -34t4.5 -47q0 -35 -5.5 -70t-9.5 -55q5 -15 6 -25.5t1 -20.5q-2 -23 -7.5 -41l-11 -35.5t-10 -36t-4.5 -42.5t6 -58q-10 0 -14.5 -3t-8.5 -3t-10 6q0 -5 -1 -6.5t-6 -6.5h-33q-1 -1 -2 -1v1
q0 3 2 10t2 9l-2 1l-20 -7v26q7 10 8.5 11.5t4.5 8.5l7 14q-8 -11 -11 -11q-6 0 -14.5 9t-16 21.5t-13 25.5t-5.5 21q8 5 8 17q0 7 -2.5 13t-5.5 10q7 7 11.5 27t6 42.5t2 42.5t0.5 28q10 19 20 40q0 22 -3 42.5t-7 40.5t-7 40t-3 43q20 6 49.5 17t50.5 16zM69 1
q-10 10 -16.5 9t-16.5 4q5 5 6 13.5t1 13.5q-5 14 -5 35q0 11 1 23.5t4 27.5q15 -5 29 -4t24 -9v7h40l13 13h14q5 -5 5.5 -10t0.5 -10q-5 -3 -5 -4l3 -3v-1q0 -1 -4 -5l-7 -20q4 4 5.5 8t3.5 6.5t7 4t17 1.5q5 -15 6 -33.5t1 -33.5q-8 0 -8 -8q0 -12 8 -12q-6 -2 -5 -2
q-4 0 -6.5 6t-4 14t-2.5 17t-2 14v5l-20 -20q0 -15 3 -18.5t7 -5t7 -5t3 -18.5q-14 0 -34 1.5t-40 1.5q-10 0 -18 -0.5t-15 -2.5zM129 699q-5 0 -14 -3t-19 -3l-7 -54q15 11 23.5 27t23.5 27q-7 0 -7 6zM92 407h-9q0 -11 -3.5 -16.5t-3.5 -10.5h-20v20h-6q0 -11 -1 -18.5
t-1 -15.5q0 -12 8 -26l23.5 38t14.5 30zM169 646q-10 -5 -13 -13.5t-13 -13.5v-26h-14v-13h7l15.5 23t9 14.5t5 12.5t3.5 16zM103 61q10 5 13 9t13 4l7 20h7v7h-7l-15.5 -15.5t-9 -9.5t-5 -7t-3.5 -8zM123 307q-11 -10 -14 -11.5t-13 -1.5v-34q5 11 6.5 16.5t6.5 10.5h7z
M63 87q10 5 13 6t13 1v20q-5 -5 -6.5 -9t-6.5 -4h-7zM103 433h-7v-13z" />
    <glyph glyph-name="quotedbl" unicode="&#x22;" horiz-adv-x="406" 
d="M65 401q-5 12 -8.5 16t-7 5.5t-7.5 3t-9 6.5q5 13 6 33t1 33q-3 18 -4 38.5t-1 46.5t1 56t4 67q7 -6 14 -7.5t13 -2.5t12 -5.5t11 -16.5v17h39q3 7 11 7h3q8 0 10 8h13l1.5 -4.5t0.5 -3.5q0 -6 -6.5 -16.5t-6.5 -15.5q0 -2 1.5 -3t1.5 -5q0 -6 -4 -15l-7 -48q5 12 6 21
t3 15t6.5 9t16.5 3q-9 -20 -12 -46t-3 -50q0 -27 2.5 -46.5t5.5 -21.5l-4 -31t-2 -29v-9t1 -9q-13 0 -32.5 3.5t-37.5 3.5q-10 0 -18 -1t-14 -6zM341 720q5 -12 8.5 -16t7 -5.5t7.5 -3t9 -6.5q-5 -13 -6 -33t-1 -33q2 -18 3.5 -39t1.5 -47t-1.5 -56t-3.5 -66q-7 6 -14 7
t-13.5 2.5t-12.5 6t-10 16.5v-17h-39q-5 -11 -6.5 -15t-5.5 -17h-13q-5 13 -5.5 24.5t-0.5 24.5q4 4 4 8q0 2 -1.5 2.5t-1.5 4.5t5 16l7 48l-10 41l-10 40q5 13 7.5 24.5t7.5 22.5q-4 14 -6.5 18t-4 7.5t-2.5 11.5t-2 29q13 0 32.5 -4t37.5 -4q9 0 17.5 1.5t14.5 6.5z
M97 546q9 13 12 22.5t13 9.5l7 48h7v17h-7l-15.5 -38t-8.5 -23t-4.5 -16.5t-3.5 -19.5zM309 575q-9 -13 -12 -22.5t-13 -9.5l-7 -48h-7v-17h7l15.5 38t8.5 23t4.5 16.5t3.5 19.5zM59 609q9 13 12 15t12 2v48q-4 -13 -5.5 -22t-6.5 -9h-6zM347 512q-9 -13 -12 -15t-12 -2v-48
q4 13 5.5 22t6.5 9h6zM341 689l-36 -15q1 0 2 -0.5t3 -0.5q8 0 19.5 3.5t11.5 12.5z" />
    <glyph glyph-name="numbersign" unicode="#" horiz-adv-x="499" 
d="M387 655q23 18 24 17q4 -2 9 -7q8 -49 7 -52t0 -1q-6 -26 -3 -38q4 -22 1 -57q0 -3 -1 -4q42 -8 49 -21q8 -16 -11 -29q-3 -14 -0.5 -22.5t-5.5 -16.5q-26 9 -36 2q-4 -2 -7.5 -4t-6.5 -4q-1 -11 -1.5 -21t-0.5 -18l-2 -15.5l-2 -15.5q-1 -5 -1.5 -10.5t-0.5 -11.5h7
q30 -4 28 -8q-5 -14 3 -18.5t12 6.5q8 -4 3 -5q-4 0 4 -4l-4 -10q-6 -3 7 -6q14 -2 2 -3q3 -10 0.5 -16.5l-4.5 -11.5l-1 -5q-7 -2 -11 -2t-5 -4l9 -9q-1 -1 -1 -12q-16 2 -31.5 3t-29.5 2q-2 -19 -4.5 -37t-4.5 -37q-5 -42 -13.5 -82.5t-23.5 -75.5q-15 2 -17 11
q-1 10 -9 2q-4 0 -5 6t-4 0l-5 -1q-5 -1 -12 -2t-16 3q-2 -6 -3.5 -7t-3 -0.5t-3.5 1t-4 -2.5l-11 -2q-1 4 -1 6v3v2.5t-1 6.5l10 21.5l10 21.5q10 19 -2 9q-8 -18 -8 -15q2 2 -14 -1q-3 -1 -10 0q3 33 2 67t2 64q4 4 9.5 12t6.5 16v7h-3q-20 0 -35.5 -1t-27.5 -3l-4 -32.5
l-4 -33.5q-5 -42 -13.5 -82.5t-23.5 -75.5q-8 1 -11 4t-5 7.5t-4 10t-6 11.5q-4 0 -5 -4t-4 -10l-5 -1q-5 -1 -12 -2t-16 3q-3 -11 -6.5 -17t-7.5 -12l-11 -2q-2 9 -1 18.5t-1 19.5l20.5 43t19.5 43l-1 5q-7 -22 -17.5 -37t-25.5 -18q-3 -1 -10 0q3 33 5.5 67t5.5 64
q5 5 8 19.5t1 24.5q-11 3 -26 -1q3 22 0 55q5 6 7 10l4 8t4.5 7.5t8.5 8.5q12 -5 24 -6q1 5 1 9t1 8q2 16 4 30l4 28q3 23 6 37q-14 -2 -28.5 -5.5t-30.5 -8.5q0 7 2 11t6 7t9 5.5t11 7.5q-1 4 -5 4t-11 2l-1 5l-4.5 11.5t0.5 16.5q-12 1 -4 3q9 3 3 6l-4 10q8 4 3 4
q-4 1 4 5q2 -7 5.5 -8.5t6.5 0.5t4.5 7t-1.5 11q-2 4 -2 10q53 2 62 0q8 48 13.5 84.5l9.5 62.5q19 4 36.5 10.5t37.5 10.5q6 -8 13 -19t14 -20q-2 -15 -7 -30.5t-7 -30.5q5 -9 8 -20q3 -21 -3 -54h6.5t7.5 -1q13 -1 27 -1h30h6v10.5t1 11.5q16 59 14 65q-1 3 16 68
q9 2 15 2t11 -2t10 -6.5t14 -11.5zM204 379l-2 -15.5l-2 -15.5q-1 -7 -1.5 -14.5t-0.5 -15.5h19t17 1q25 1 36 9q0 -1 5 -2v1q2 16 4 30l4 28l2 15.5t2 13.5q-14 -4 -29.5 -4t-31.5 2q-5 1 -9.5 1.5t-9.5 1.5q-3 -21 -3 -36zM293 207q-1 -1 -10 -11q4 -2 1 -11.5t-17 -13.5
l-8 -9q-1 5 1 13t1 13l-7 -2q0 -15 -2.5 -29t-0.5 -11q1 -2 2 -6t3 -9q13 16 26 40q12 23 14 17q1 20 -3 19zM175 677q-8 -7 -16 -9t-13 -3l-5 -37q5 -22 13 -1t24 37zM91 195q-8 -6 -15 -16t-17 -17l-4 -40l-6 -1l-3 -20l7 2l14.5 36.5l9 22.5t6.5 16t8 17zM359 621
q2 15 -4 13l-17 -75q17 17 25 37q7 19 3 18zM273 420q-2 5 -4.5 8t-7.5 1q-6 3 -5.5 0.5t-5.5 -2.5l-2 7q5 2 13.5 1.5t12.5 1.5l-3 6q-15 -2 -29 -2t-27 -5q-3 -1 7 -7q14 -8 24 -6.5t27 -2.5zM316 392q-12 -11 -14.5 -13t-7.5 -3l-11 -42q8 7 11.5 16.5t6.5 19.5l7 -5z
M198 246l-10 -2v-1h1q1 0 1 -0.5t2 -0.5q10 -1 11 0t5.5 2.5t10.5 3l11.5 3t8.5 2.5l8 5l-15 -1l-16 -3l-18 6q-4 -5 -5.5 -6.5t-0.5 -0.5q3 3 6 -7zM269 485q6 2 3.5 4.5t-4.5 6.5h-24q-11 -3 -1 -4.5t20 -3.5l-3 -7zM217 281l-3 7q10 2 20 3.5t-1 4.5h-24q-2 -4 -4.5 -6.5
t3.5 -4.5zM297 501h-14l-4 -1l20 -5zM343 547l-3 -14l1 -4q1 0 8 19zM130 390l-3 -14l1 -4q1 0 8 19zM214 229q10 -5 12 -3q1 0 5 4h-2h-6t-9 -1zM198 300h-3v-2q1 0 1 0.5t2 1.5v0zM448 230l1 1z" />
    <glyph glyph-name="dollar" unicode="$" horiz-adv-x="528" 
d="M236 -111q0 15 -4 26.5l-9 26.5q0 23 4 35q-109 17 -157.5 57t-48.5 112q0 17 7 25.5t7 10.5q0 3 -1.5 7t-1.5 9q0 8 12 16q2 -5 15 -5q9 0 21 1.5t25 3.5t25.5 3.5t21.5 1.5q15 0 18 -5v-53q4 -1 4 -7q0 -5 -2.5 -12.5t-6 -15t-6 -14.5t-2.5 -11q10 0 23 -3t23 -3
q1 1 3 1q5 0 17 -5q-1 17 -1.5 36.5t-0.5 39.5q0 31 0.5 61t1.5 56q-14 9 -35.5 20t-42.5 23t-38 23.5t-23 20.5l-4 7q-5 9 -12 9q-2 0 -2.5 -0.5t-2.5 -0.5l-7 -1q-5 0 -6 4.5t-6 4.5q0 15 0.5 26.5t5.5 26.5q-6 0 -12 3l-8 44q-5 0 -6.5 3t-6.5 3q5 11 6.5 20.5t6.5 19.5
h14l6 40q7 30 23.5 53t39.5 40.5t50.5 29.5t56.5 19v11q0 9 1 11l2 22q2 0 6.5 3t9.5 7t10.5 7t8.5 3q5 0 5 -6q0 -2 -4 -7h4q0 10 3.5 19t3.5 14l6 -58q0 -4 -0.5 -8t-1.5 -9q11 1 21.5 1.5t20.5 0.5q10 -5 23 -13t24 -13v-27q15 0 26.5 -1t26.5 -6l33 -40q4 -4 10 -12
t11.5 -18.5t9.5 -22.5t4 -23q0 -27 -15 -57q-6 1 -11.5 1.5t-10.5 0.5q-15 0 -27.5 -2.5t-25.5 -2.5q-19 0 -38 10l-13 13q0 5 -3.5 14t-3.5 20l-7 13q-5 0 -5 2v8q0 6 -2 15t-12 21h-10q-9 0 -10 1v-54q-6 -5 -6 -27q0 -10 1.5 -19t4.5 -14q-5 -8 -7 -32.5t-4 -54.5
q36 -18 77 -34.5t76 -38.5t58 -53.5t23 -78.5q0 -32 -8 -68t-22.5 -66.5t-34 -50.5t-41.5 -20q-5 0 -9 0.5t-8 0.5q-3 0 -11 -3.5t-17.5 -9t-18.5 -12t-14 -11.5q-11 0 -18.5 0.5t-14.5 1.5v-7q0 -10 -6 -19.5t-15 -18.5t-19.5 -18t-19.5 -18zM316 95q13 4 21 12.5t12 19.5
t5.5 23t1.5 23q0 29 -14.5 42.5t-33.5 19.5q-7 0 -11 -3t-8 -3q-3 0 -6.5 5t-7.5 9l-2 -10q-2 -5 -3 -12q0 -38 4 -71.5t9 -65.5l16 4q4 1 8 3t9 4zM210 461q4 -4 7 -7.5t8 -6.5v24v30t-1 30l-4 84q-18 -5 -29.5 -24t-13.5 -64zM363 527q5 10 10 16t10 11h20q-5 -5 -6 -11
t-1 -16h7q4 14 6.5 25.5t2.5 23.5q0 10 -3 24q-20 -25 -37.5 -41.5t-22.5 -31.5h14zM190 75h-40q0 -5 -6.5 -11t-14 -12t-13.5 -12.5t-6 -11.5zM57 461q5 0 14 8.5t18 19l17 20t11 11.5q-1 0 -1 0.5t-1 0.5q-4 0 -13 -6.5l-19 -14l-19.5 -14t-13.5 -6.5q0 -6 2.5 -10t4.5 -9
zM260 546q-2 -13 -3 -24.5t-1 -20.5q0 6 7 6v40q0 7 7 7l6 -27q0 24 -0.5 45t-5.5 41q-2 -20 -5 -36.5t-5 -30.5zM147 660q-5 0 -11.5 -5.5t-13.5 -5.5l9 -52q8 20 9 25t5 13l7 14q0 2 -1 4l-2 4zM63 394q5 3 10 11t9.5 17t8 18t6.5 14zM256 -32v79q-2 -21 -5.5 -44.5
t-7.5 -34.5v-13zM257 251q2 13 6 17l7 53l-7 20q-3 -30 -5 -46t-2 -27v-21zM409 281q11 5 17 9t17 4q-5 11 -7.5 13t-12.5 7q0 -1 -5 -14zM270 441v6l-7 -33z" />
    <glyph glyph-name="percent" unicode="%" horiz-adv-x="774" 
d="M150 332q-10 10 -18.5 11t-15.5 1.5t-12 5t-7 21.5l-7 -6q-13 0 -24 3.5t-19.5 16t-13 36t-4.5 64.5q0 24 1 36t2.5 19.5t3 13t1.5 17.5q-6 0 -9 3l-4 4q0 8 5.5 26t16 37.5t25 37t32.5 25.5q5 0 7 -3.5t7 -3.5l4.5 10.5t3.5 5t4.5 2t7.5 2.5l13 -13q0 10 1.5 12.5
t11.5 7.5l7 -13q10 5 11.5 6.5t1.5 6.5l20 -13q5 5 12 5q6 0 20.5 -10t30 -24t27 -29t11.5 -24q0 -4 -0.5 -9t-0.5 -10q0 -9 2.5 -16.5t10.5 -9.5q-3 -9 -3 -13q0 -6 3 -9.5t7 -10.5q0 -10 -1.5 -18.5t-1.5 -16.5t3 -18q-5 0 -6 -1t-1 -6l-3 -23t-2.5 -12.5t-3 -6.5t-4.5 -4
l7 -40l-12 -12q-2 -8 -11 -17l-11 -11l-30 -12t-33 -7q-8 0 -16 5q0 -5 -5 -10l-9 -9q-4 0 -8.5 3t-4.5 8q-2 -5 -9 -8t-11 -3zM582 -21q-10 10 -18.5 11t-15 1.5t-11.5 5t-8 22.5l-7 -7q-13 0 -24 4t-19 16t-12.5 34t-4.5 59q0 24 1 37.5t2.5 22t2.5 15.5t1 18q-5 0 -10 1
t-10 6q1 1 7 17t16.5 36t26.5 39.5t37 27.5h13q0 15 5 15t15 5l13 -14q0 11 1.5 13t12.5 7l6 -13q10 0 11.5 1.5t1.5 11.5l20 -13q5 5 12 5q6 0 21 -10t30 -23.5t27 -27.5t12 -23q0 -6 -1 -12.5t-1 -14.5t2.5 -15.5t10.5 -11.5q-3 -6 -3 -10q0 -5 3 -8.5t7 -7.5
q-5 -15 -6 -29t-1 -25v-6q-4 -29 -6 -35.5t-7 -11.5l7 -40l-33 -40q-14 -4 -35 -12.5t-38 -8.5q-6 0 -7 1q-2 -2 -6.5 -6t-7.5 -7q-6 0 -8.5 2.5l-4.5 4.5q-6 -2 -9.5 -4.5t-10.5 -2.5zM137 -54q7 21 11 36.5t8.5 29t10.5 26.5t16 28q-2 -13 6.5 8.5l25 66l40 105.5
t51.5 126.5t59 130t63 115.5t63 82.5t60 31.5q11 0 22 -2.5t14 -7.5l22 15q0 -13 -7.5 -28t-19 -31t-25.5 -31.5t-28 -29.5v-6q20 25 31.5 35.5t21.5 10.5q-18 -42 -43 -85t-44 -85l-7 -16q21 50 24.5 56t-6 -19t-31 -74.5t-51 -109t-65 -123t-73 -117.5t-76 -92t-73.5 -46z
M169 430q5 3 7.5 3.5t15.5 0.5l6 7l5 5q0 12 3.5 22t8.5 10q-4 4 -4.5 11t-0.5 15q0 4 2.5 11.5t2.5 15.5q-2 4 -2 9v10q0 11 1 21.5t1 18.5q0 15 -3 26t-11 13l-3 15q-7 1 -13 1.5t-11 0.5q-17 0 -25.5 -7.5t-13 -19t-6.5 -25t-6 -25.5q0 -9 3 -14t3 -14q-5 -12 -6.5 -21.5
t-1.5 -18.5q0 -8 1 -17.5t1 -21.5h6l6 -21l6 5l10 10l7 -5q0 -4 0.5 -8t5.5 -9zM600 70q4 4 6.5 4.5t15.5 0.5l6 6l6 5q0 8 0.5 15t5.5 11h6q-5 6 -5.5 12t-0.5 12q0 5 3 13t3 15q-3 10 -3 21t1.5 21t1.5 21t-9 23.5t-9 17.5v11q-5 1 -9.5 1.5t-9.5 0.5q-20 0 -30 -8
t-15 -19t-7 -24.5t-5 -23.5q0 -8 0.5 -15t5.5 -11v-6q-5 -11 -6 -20t-1 -19q0 -12 3.5 -29t3.5 -25l7 5l5 5q3 3 5 3t2.5 -1.5t4.5 -1.5l5 -16q5 0 6.5 -0.5t6.5 -4.5zM449 478l16.5 22t10.5 18h13q-5 -11 -6.5 -16.5t-6.5 -10.5l6 -7q11 26 20 43t14 37q-21 -4 -33.5 -15.5
t-19.5 -24.5t-11 -26t-9 -20h6zM177 -1q5 5 10 6t10 1l46 79q-20 -14 -35.5 -36t-30.5 -37v-13zM270 538q9 -4 17 -4q9 0 9 9q0 5 -1 10.5t-1 11.5q0 3 2 13q0 1 -1.5 3.5t-4.5 2.5l-7 -6q0 -5 -3.5 -13.5t-3.5 -13.5zM328 258l-2 -2q-1 -1 -1.5 -2.5t-2.5 -3.5l21 22l24 23
l4 11.5t5 5.5l7 13h-7l-18.5 -25l-12.5 -17l-9 -12.5t-8 -12.5zM509 225q5 10 9 16t4 11h14q0 5 0.5 10t5.5 10l-6 20q-19 -19 -23 -40t-4 -27zM83 584q0 5 4.5 11t9.5 16h6q0 3 1 4l2 4q1 1 1.5 2t2.5 3l-7 20q-5 -5 -5.5 -6.5t-0.5 -6.5q0 -13 -3 -19.5t-7 -11t-7 -7.5
t-3 -9h6zM57 398q8 8 14 18t6 22q-5 0 -7.5 -1t-12.5 -6v-33zM489 46q6 6 13 15.5t7 23.5q-5 0 -7.5 -0.5t-12.5 -5.5v-33zM409 398q15 10 18.5 11.5t8.5 1.5l19 44q-5 -8 -9.5 -14t-9.5 -16zM250 378q15 15 20.5 23.5t5.5 23.5q-5 -5 -12.5 -15t-7.5 -25zM702 185l8 11
t5.5 8l5.5 8.5l8 12.5h-14q0 -18 -6.5 -23t-6.5 -10v-7zM696 54q-7 -7 -7 -21q11 11 15.5 17.5t4.5 21.5q-4 -9 -13 -18zM276 431q5 10 6 15.5t1 9.5v9q-5 -5 -6 -17t-1 -17zM709 79q5 15 5.5 19t0.5 14q-5 -5 -5.5 -16.5t-0.5 -16.5zM529 199v13q-5 0 -6 -1.5t-1 -11.5h7z
M97 551v13q-5 0 -6 -1.5t-1 -11.5h7zM230 411v14q-7 -7 -7 -14h7zM669 179l6 20zM655 59q5 5 5 6q0 2 -1.5 3t-3.5 4v-13zM629 12q5 0 5.5 1t0.5 6q-6 0 -6 -7zM682 26l6 6zM203 371q-1 0 -3.5 -1.5t-2.5 -4.5z" />
    <glyph glyph-name="ampersand" unicode="&#x26;" horiz-adv-x="605" 
d="M27 217q2 7 3.5 14t4.5 14v1q7 19 17 38.5t22.5 35.5t27.5 26.5t32 12.5q5 15 9.5 22t4.5 18l-27 33q-3 10 -4.5 16t-3.5 11t-4.5 10.5t-7.5 15.5q-14 0 -18.5 19t-4.5 42q0 18 1.5 33t1.5 19q10 30 24 52.5l29 47.5h14v-7h13q0 5 7.5 6t12.5 1v-7q5 5 10 6t10 1
q0 8 4.5 22t13.5 14q3 0 8 -3q5 -5 7 -10.5t7 -15.5h6q0 13 4.5 19t10.5 6q13 0 19 -19q10 11 16.5 16.5t16.5 10.5h13v-13q15 0 22.5 -8.5t17.5 -18.5q35 -15 53.5 -39t33.5 -54h6q0 -20 -5.5 -40t-14.5 -38.5t-19.5 -35.5l-20.5 -32l-26 6q0 -15 -8.5 -30t-18.5 -30
q-9 8 -14 10.5t-7 2.5q-5 0 -7.5 -6.5t-11.5 -12.5l28.5 -37.5t18.5 -42.5q6 0 14.5 -7t17.5 -18t18 -24l17 -25l6 -6q5 0 10 -1t10 -6q0 4 2 7t3 5q11 25 16.5 53t5.5 48q14 0 25 0.5t22 0.5q17 0 32 -2.5t34 -11.5q0 -15 -8 -39l-16 -47h4q-2 -5 -4.5 -9t-4.5 -8
q0 -2 -0.5 -4t-0.5 -4h-2q-2 -10 -2 -9q-2 -17 -3.5 -28.5t-5.5 -20t-11 -14t-20 -10.5q0 -20 3.5 -35.5t23.5 -30.5q0 -5 1 -6.5t6 -6.5q7 0 12 -11t8 -25t4.5 -29t1.5 -22q-4 -2 -11 -2q-15 0 -35 4.5t-27 4.5q-12 -4 -26 -4q-26 0 -37.5 18.5t-16.5 51.5q-5 0 -6.5 7.5
t-6.5 12.5h-13q-6 -4 -7 -8.5t-7 -24.5q11 0 16.5 -1t10.5 -6q0 -23 -14.5 -38.5t-35.5 -15.5q-8 0 -10 1v27h7v13q-10 5 -13 6t-14 1q0 -5 -3 -10t-3 -10q-5 0 -7 -1t-7 -6q-10 0 -16.5 4t-16.5 9q-10 -5 -11.5 -10.5t-1.5 -15.5h-15q-14 0 -28.5 0.5t-23.5 5.5
q-5 -5 -13 -6.5t-13 -6.5q-5 5 -9.5 14t-4.5 19q-10 0 -19.5 -3t-20.5 -3q-10 10 -14 19.5t-19 20.5q-2 10 -9 16.5t-15 11.5l-16 11q-7 6 -13 14q-3 14 -4 28.5t-1 30.5t1 32t3 33zM261 252q-5 11 -10 20t-10 14q-8 6 -10 6h-4v7l-6 7v6q-5 0 -10 3.5t-10 3.5
q-10 -10 -13 -18.5t-14 -8.5q-2 -5 -4.5 -15l-5.5 -21.5t-6.5 -21.5t-6.5 -15h-13q-2 -6 -5 -12.5t-5 -13.5v-54h26l-6 -13h13q0 -10 4 -19t9 -14q5 0 10 3t10 3q15 -5 34 -9t39 -4v-13h8q5 0 8 0.5t11 5.5q15 11 30.5 13t35.5 7q-14 42 -24 62t-15 25t-7 7.5t-7 12.5h-6
q-5 5 -8 7.5t-5 4.5l-21 -1v35h-6zM234 459q5 2 9.5 7.5l9.5 11.5t10.5 10.5t12.5 4.5q1 0 2 -0.5t3 -0.5q5 15 8 18t18 8v-6q29 10 29 42q0 19 -9 39.5t-20 31.5q-5 4 -10.5 5t-10.5 1h-5q-37 0 -57 -9.5t-20 -39.5q0 -6 1 -14t3 -16q-5 -11 -9 -28t-4 -31q0 -15 6 -21
q0 15 4 23t9 23q20 -15 20 -28v-31zM400 585l7 26q-10 0 -16.5 4.5t-16.5 9.5q0 -11 4 -23t9 -17h13zM141 565l7 20h-14v-20h7zM427 558q0 5 1 10t6 10q-6 0 -10 3q-2 1 -2.5 2t-1.5 2v-27h7zM128 292l-14 -6q0 -5 3.5 -11t3.5 -16zM161 445q-5 11 -6.5 16.5t-6.5 10.5
q-3 -6 -3 -10q0 -3 1.5 -4.5t1.5 -5.5zM134 498q0 3 -3 6q-1 1 -3 1v-20q0 -5 3 -6q1 -1 3 -1v20z" />
    <glyph glyph-name="quotesingle" unicode="'" horiz-adv-x="211" 
d="M62 384q-5 12 -8.5 16t-7 5.5t-7.5 3t-9 6.5q5 13 6 33t1 33q-3 18 -4 38.5t-1 46.5t1 56t4 67q7 -6 14 -7.5t13 -2.5t12 -5.5t11 -16.5v17h39q5 11 6.5 15t5.5 17h13q5 -13 5.5 -24.5t0.5 -24.5q-5 -5 -5 -8q0 -2 1.5 -3t1.5 -5q0 -6 -4 -15l-7 -48q5 12 6 21t3 15
t6.5 9t16.5 3q5 -36 6 -81t1 -81q-8 0 -8 -19q0 -11 2.5 -20.5t5.5 -9.5q-3 -4 -5 -4q-3 0 -5.5 7.5t-4 18.5t-2.5 23.5t-2 22.5v14q-5 -13 -12 -27t-12 -25q0 -22 1.5 -30t3.5 -8q3 0 7 7t7 7q2 0 3.5 -7.5t1.5 -29.5q-13 0 -32.5 3.5t-37.5 3.5q-10 0 -18 -1t-14 -6z
M94 529q9 13 12 22.5t13 9.5l7 48h7v17h-7l-15.5 -38t-8.5 -23t-4.5 -16.5t-3.5 -19.5zM56 592q9 13 12 15t12 2v48q-4 -13 -5.5 -22t-6.5 -9h-6z" />
    <glyph glyph-name="parenleft" unicode="(" horiz-adv-x="288" 
d="M17 149h4l-4 42q3 39 4.5 61t1.5 36q0 15 -1.5 27t-4.5 32q5 7 7 8t7 1q5 -7 9 -18.5t4 -24.5h7q0 13 -1.5 30t-12.5 30q0 20 8.5 42t18.5 35q-1 1 -2 2.5t-3 3.5l-1 1v-7h-27q2 16 8 31.5t13.5 30t14.5 29.5t10 31q4 10 7 19t7 18q5 14 11 28.5t8 21.5q3 0 6.5 5.5
t7.5 12.5t7.5 14t5.5 10l7.5 1.5t3.5 0.5h2l7 -1q2 0 4 -0.5t5 -0.5q4 0 18 3q0 2 5 2t10 -0.5t9 -0.5q7 0 7 3h21q8 0 16 -1t15 -4v-7q0 -21 -5.5 -26.5t-12.5 -8t-14 -7.5t-10 -24q0 -2 1 -3q2 -8 2 -15q0 -6 -1.5 -11.5t-6.5 -5.5q-6 -3 -6 -6v-5q0 -1 -2.5 -2t-12.5 -1
q-3 -36 -11 -68t-17 -63.5l-18 -63.5t-14 -68q0 -20 4.5 -46l10 -55.5t10 -59t4.5 -55.5h-3q2 -27 6 -58q6 -12 6 -32q0 -14 -2.5 -28t-4.5 -27l-5 -25h6q0 13 4.5 16t9.5 10q0 13 3.5 21.5t3.5 21.5q5 0 12 -20t14.5 -44.5t14.5 -44.5t12 -20q2 -5 3.5 -10.5t1.5 -13.5
q0 -7 -2 -15.5t-9 -20.5v17h-7v-8h-27q-5 13 -7 15t-13 2v-17l-10 11.5t-10 5.5v-9h-26l-27 82h-7q0 -7 -4 -9t-4 -9q-9 0 -9 11q0 12 7 31.5t7 34.5q0 7 -1 9v-17l-20 8q-5 14 -6 26t-1 25q-5 7 -10.5 12.5t-16.5 5.5v51h-6zM101 30q5 7 10 17.5t11 17.5h6q3 8 5 8
q1 0 1 -0.5t1 -0.5v1l-3 7q-3 0 -3 18q0 10 0.5 21t2.5 18q1 1 1 5l-5 -7q0 -7 -4 -8t-10 -1q-5 -27 -6.5 -48.5t-6.5 -47.5zM91 477q8 6 15.5 19.5t13 30t9 33t3.5 29.5l-11.5 -37t-16.5 -23q-5 -7 -5.5 -14t-0.5 -21h-13zM71 330q5 7 9.5 17.5t4.5 16.5h-14v-34zM44 167
h-7v-9h14q0 7 1 12.5t6 12.5h-14v-16zM44 235q-7 0 -7 -9q0 -7 1 -18.5t6 -24.5v52zM81 99v10h14v7q-11 0 -13.5 -2t-7.5 -15h7zM78 313v8q-5 0 -9.5 -1t-4.5 -7h14zM99 149h5l-6 9z" />
    <glyph glyph-name="parenright" unicode=")" horiz-adv-x="279" 
d="M263 388h-4l4 -43q-3 -40 -4.5 -62t-1.5 -37t1.5 -27.5t4.5 -32.5q-5 -7 -7 -8t-7 -1q-4 7 -8 18.5t-4 24.5h-7v-6q0 -13 2 -27.5t12 -27.5q0 -20 -8.5 -42.5t-17.5 -35.5l3 -8q1 -1 1 -1.5t1 -1.5v11h26q-2 -17 -8 -32.5t-13 -30.5t-13.5 -30.5t-9.5 -31.5l-7.5 -19.5
t-6.5 -18.5q-5 -15 -10.5 -29.5t-7.5 -21.5q-2 0 -5.5 -5.5t-7.5 -12.5t-7.5 -14.5t-5.5 -10.5q-8 -3 -10 -3q-1 0 -1.5 0.5t-1.5 0.5l-7 1h-8h-7t-10 -2q0 -3 -5 -3t-9.5 1t-9.5 1q-6 0 -6 -3q-4 0 -9.5 -0.5t-11.5 -0.5q-8 0 -16 1t-13 5v7q0 22 5.5 28t12.5 8.5t13.5 7.5
t8.5 24q-1 0 -1 3q-1 1 -1 13q0 7 1 13t6 6q5 4 5.5 6.5t0.5 4.5t2.5 3t11.5 1q3 36 10.5 69t16.5 65l17.5 65t13.5 69q0 10 -1.5 21.5t-3.5 25.5l-9 57q-5 30 -9.5 60t-4.5 57h3q-2 25 -6 59q-7 10 -7 33q0 14 2.5 28.5t5.5 27.5l5 25h-6q0 -13 -4 -16t-9 -10
q0 -13 -3.5 -22t-3.5 -22q-5 0 -11.5 20.5t-13.5 45.5t-14 45.5t-12 20.5q-2 5 -3.5 10.5t-1.5 13.5q0 7 2 16t9 21v-17h7v8h26q4 -14 6 -16t13 -2v18q5 -6 9.5 -12t9.5 -6v10h25l26 -84h7q0 7 4 9t4 9q9 0 9 -11q0 -12 -7 -32t-7 -36q0 -7 1 -9v18l19 -8q5 -14 6 -26.5
t1 -25.5q5 -8 10.5 -13.5t15.5 -5.5v-52h6zM182 509q-5 -7 -10 -17.5t-10 -17.5h-6q-2 -7 -4 -7.5t-3 -0.5l-1 -1q1 0 4 -7q3 0 3 -15q0 -10 -1 -22.5t-3 -20.5q0 -4 -1 -5l6 7q0 7 4 8t9 1q5 28 6.5 50t6.5 48zM192 53q-8 -6 -15 -19.5t-12.5 -30.5t-9 -34.5t-3.5 -29.5
l11.5 37.5t15.5 23.5q5 7 5.5 14.5t0.5 21.5h12zM211 203q-5 -7 -9.5 -17.5t-4.5 -17.5h14v35zM237 370h7v9h-14q0 -7 -1 -13t-6 -13h14v17zM237 300q2 0 3 1q4 1 4 8t-1 19t-6 25v-53zM201 439v-10h-13v-7q10 0 12.5 2t7.5 15h-7zM204 220v-8q5 0 9.5 1t4.5 7h-14zM184 388
h-5l6 -9z" />
    <glyph glyph-name="asterisk" unicode="*" horiz-adv-x="404" 
d="M164 634v28v35t2 42q3 -4 6 -4.5t6 -1.5t5.5 -3.5t4.5 -10.5v10h18q0 5 5 5t5 5h6v-5q0 -4 -2.5 -10.5t-2.5 -9.5q0 -1 0.5 -1.5t0.5 -3.5q0 1 -2 -9l-3 -30q6 14 4.5 22t9.5 8q-4 -13 -5 -29t-1 -31v-20q5 4 15 7l27 9q16 4 33.5 9.5t39.5 10.5q-2 -4 -1.5 -7t0.5 -6
t-2 -6t-8 -7l9 4l7 -18q3 0 5 -3l1 -1q0 -3 5 -3l2 -5q-6 -2 -5 -2q-3 -2 -10.5 -1.5t-9.5 -0.5q-2 0 -2 -0.5t-2 -1.5q-5 0 -10 -1l-30 -6q17 0 23.5 2t9.5 -6q-13 0 -28.5 -4t-30.5 -9q-14 -3 -22 -7h1q15 -15 34 -42q8 -14 18.5 -29l23.5 -34q-5 1 -8.5 -0.5t-6.5 -2.5
t-6 -0.5t-9 6.5l6 -8l-14 -11q2 -5 -2 -7v-1q-3 -1 -1 -6l-4 -3q-1 0 -3 2l-1 1q-2 4 -4 10.5t-3 9.5h-1.5t-3.5 3q0 2 -3 8q-7 11 -9.5 14.5t-0.5 0.5q4 -6 5 -9q2 -3 1.5 -5.5t-5.5 -6.5q-4 13 -12.5 27t-17.5 26q-9 13 -17 23q-1 1 -1 2q0 -1 -1 -2q-8 -9 -23 -20
l-13 -19q-4 -9 -6 -12t-2.5 -3.5t-0.5 0.5v1q-1 0 0 2l4 8l-15 -27q-3 -6 -3 -8q-3 -3 -3.5 -3h-1.5q-1 -3 -3 -9.5t-4 -10.5l-1 -1q-2 -2 -3 -2l-4 3q2 5 -1 6l3 15q-4 -5 -5 -7t0 0l-14 11l-9 6q-10 0 -5 6q3 12 13.5 27t18.5 29q19 27 34 42q-8 4 -22 7q-26 8 -42 12.5
t-14 10.5q-5 1 -10 1q-2 1 -2.5 1.5t-1.5 0.5q-3 1 -10 0.5t-11 1.5q-1 0 -1.5 0.5t-2.5 1.5l2 5q4 0 6 3v1q1 3 0 10l11 11q4 0 2 3.5t-2 5.5v6t-2 7q22 -5 40 -10.5t34 -9.5l27 -9q4 -2 7.5 -3.5t7.5 -3.5v14zM190 640q5 7 6 13t6 6l4 30h3v11h-3q-5 -15 -7.5 -24
l-4 -14.5t-2 -10t-2.5 -11.5zM249 603q9 -2 15 -1.5t7 -3.5l30 6l1 -3l11 3l-2 3h-24q-14 0 -20.5 -1t-17.5 -3zM236 528q1 -8 3.5 -14t-2.5 -9l15 -26l-2 -2l7 -9l1 2l-8 23.5l-5 14t-4 9.5t-5 11zM281 630q9 -1 11 -2t3 -4l28 9q-7 -1 -12.5 -2t-5.5 0l-3 4zM175 678
q3 9 4.5 10t5.5 1v30q-2 -8 -2.5 -13.5t-2.5 -5.5h-3zM135 609q13 -5 12 -9l4 2l3 -3h9l1 3q-11 7 -20 7h-9zM185 566q-2 6 -3 10.5t-2 7.5h-22v-4q6 -7 13 -7l5 4z" />
    <glyph glyph-name="plus" unicode="+" horiz-adv-x="507" 
d="M266 524q10 -11 18.5 -24.5t17.5 -24.5q0 -16 -2.5 -27.5t-2.5 -27.5q11 -17 15.5 -46t5.5 -62q24 -1 51 -2t51.5 -1.5t42.5 -1t23 -0.5q14 0 14 -2q0 -3 -12 -7l-23 -8q-11 -3 -12 -3q7 0 9 1q10 1 24 6q0 -12 4 -14.5t4 -6.5q0 -2 -2 -6l7 -6v-27l1 -1q-2 0 -9 2t-11 2
q-3 -1 -1 -3l7 -20h-20q-9 6 -10 7l-4 3q-1 2 -3.5 3.5t-9.5 6.5l-7 -6q7 -3 9.5 -4.5t1.5 -3.5t-2.5 -6t-1.5 -13q-12 0 -19.5 -3t-13.5 -7t-13.5 -7t-19.5 -3q0 6 -7 6t-15 -3t-12 -3q0 5 -7 6.5t-16 4.5q0 -2 -0.5 -5t-0.5 -5q13 -68 13 -122q0 -34 -4 -65t-11 -62
q-15 5 -22.5 15t-17.5 25q0 -5 -4 -9q-1 -1 -1.5 -2t-1.5 -2q-5 0 -14 -3.5t-19 -3.5q-5 -5 -9 -10t-4 -10h-20q0 5 -3.5 14t-3.5 20l40 80l-7 6q-8 -22 -16 -35t-25 -13q-2 0 -12 2q-4 21 -7 43.5t-3 45.5q0 19 3 37q2 24 5 32.5t7 8.5q5 0 8 -5.5t5 -5.5q1 0 1 3
q0 4 -1 13t-5 28l-3 -2q0 2 1 3q-4 0 -8 0.5t-8 0.5q-40 0 -79 -10.5t-80 -10.5v66q3 4 3 12q0 5 -1 11t-1 12q0 12 6 18h9q8 0 15.5 -1t15.5 -5q11 11 31.5 14.5t46.5 3.5q16 0 32 -0.5t33 -1.5q-3 48 -6.5 93t-3.5 93q17 5 38.5 10.5t38.5 10.5zM233 173q0 -10 -3.5 -19
t-3.5 -14q-5 0 -10 -3.5t-10 -3.5v27h-13q0 -20 1.5 -37t11.5 -37l24 49.5t15 40.5q-2 -3 -12 -3zM220 194v-13l13 13h-13z" />
    <glyph glyph-name="comma" unicode="," horiz-adv-x="189" 
d="M104 87q-8 -5 -11 -9t-12 -4l-5 -26h-6v-6h6q8 9 12.5 14.5t7.5 10t4.5 9t3.5 11.5zM133 146v-13q5 5 5 6q0 2 -1.5 3t-3.5 4zM139 159q4 -5 6.5 -6.5t4.5 -2t4.5 -1t6.5 -3.5q0 -10 -2.5 -18.5t-2.5 -13.5q4 -11 5 -20.5t1 -20.5v-16q1 -12 2.5 -27t1.5 -32
q0 -10 -1 -20.5t-4 -21.5q-2 -6 -2 -9q0 -4 0.5 -8.5t0.5 -9.5q0 -9 -2 -18t-8 -14q0 -8 -8.5 -13.5t-21 -10.5t-26.5 -11.5t-24 -16.5l-11 -7q-6 11 -5.5 9.5t-1.5 -5.5q-4 -7 -16 -10l11 26q1 0 1 1q0 2 -1.5 5t-1.5 5t2 2l6 40h6l5 6l6 -6q5 0 5.5 0.5t0.5 5.5h11
q-5 5 -5.5 6.5t-0.5 6.5h-5q4 5 7.5 13t3.5 13q0 11 2.5 27.5t4.5 31.5h-18q-5 -5 -6 -9t-6 -4h-11q-5 5 -5.5 10t-0.5 10l1.5 3t0.5 3t-0.5 2.5t-0.5 1.5q0 3 5 10l6 19q-5 -5 -6 -8.5t-2.5 -6t-5.5 -3.5t-15 -1q0 13 -1 27t-1 27v13t2 11q5 2 5 10q0 6 -2.5 12.5
t-2.5 10.5h2q4 0 6.5 -6t4.5 -14t3 -16t1 -11v1q1 1 2 1t1 1q2 0 2.5 -2t2.5 -2t4 2q0 4 0.5 7.5t0.5 5.5q0 10 -2 12.5t-5 3t-5 2t-2 10.5q0 8 1 11q12 0 29 -1t34 -1h15.5t13.5 2z" />
    <glyph glyph-name="hyphen" unicode="-" horiz-adv-x="353" 
d="M311 365q3 0 29 -18q0 -14 -7 -20.5t-13 -15.5h4q3 -9 3.5 -17.5t0.5 -18.5q3 -5 6 -6.5t6 -5.5v-12q-3 -4 -8.5 -6t-11.5 -7q-6 19 -9 21l-4 -5q6 -14 6 -11q1 1 1 -16q-9 -3 -14.5 -5t-10.5 -3.5t-12 -2.5t-17 -1q-2 5 -8 5q-5 0 -11.5 -2.5t-7.5 -2.5q-6 8 -24.5 11
t-37.5 3q-3 0 -16 -1t-20 -1q-5 4 -11.5 7.5t-14.5 3.5q-7 2 -3 2t3 0l-20 -5q-19 -5 -48 -8q-3 22 -6 41l-6 37q8 10 7 27t5 27q4 0 10.5 -3t14 -6t14 -6t11.5 -3q-8 10 -7 14t22 4q1 0 25 -3q25 -3 40 -3q-2 3 -1 4t7 1.5t19.5 0t37.5 -1.5q23 -11 77 8zM76 278
q6 -10 11.5 -12.5t8.5 -11.5h23v-6h8v6l-17.5 11t-12 6l-10 3.5t-11.5 3.5zM194 275q9 -14 10.5 -16.5t1.5 -7.5h23q-6 5 -9.5 6t-9.5 6v6zM175 287v-12h11q0 4 -1.5 6t-9.5 6z" />
    <glyph glyph-name="period" unicode="." horiz-adv-x="213" 
d="M151 168q9 -11 15 -12l7 -1q4 0 10 -3q-5 -7 -6 -17t-1 -17q2 -10 3.5 -20.5t1.5 -23.5q0 -14 -1.5 -29.5l-3.5 -34.5q-7 3 -14 3.5t-13.5 1.5t-12 3.5t-9.5 8.5v-9q-10 0 -14.5 -5.5t-14.5 -5.5q-2 -3 -7 -3q-2 0 -4.5 0.5t-4.5 0.5q-5 0 -6 -3h-12q-2 3 -7.5 4.5
t-11 2.5t-9.5 2.5t-4 4.5q11 15 18.5 20.5t7.5 6.5t-1 1q-2 0 -6 -0.5t-12 -0.5q-5 19 -6 42t-1 42q7 0 7 9q0 3 -0.5 4.5t-1.5 5.5q1 0 1 -0.5t1 -0.5q3 0 7 4q5 5 5 14v5q12 0 31.5 -2t37.5 -2q22 0 31 4zM81 151q-7 4 -11 4t-5 -3.5l-2 -7l-2 -7t-5 -3.5l-7 -24h-7v-9h7
l15.5 19t8.5 12t4.5 9t3.5 10zM157 60q-9 -6 -12 -7t-11 -1v-25q4 7 5 11.5t6 4.5h6zM37 148q-2 1 -3 2l-2 2q4 0 5 -4z" />
    <glyph glyph-name="slash" unicode="/" horiz-adv-x="350" 
d="M324 718q5 -9 9.5 -21.5t9.5 -22.5q-5 -14 -13 -28.5t-13 -28.5q3 -9 3 -21q0 -24 -10 -56t-23 -65l-26 -64t-19 -53l-10 -29t-9 -34q-14 -36 -26.5 -76t-26.5 -80.5t-30.5 -78.5t-38.5 -69q-14 5 -14 14.5t-5 23.5q-4 0 -5.5 -3.5t-6.5 -8.5h-5q-5 0 -12 0.5t-15 5.5
q-5 -10 -9.5 -15t-9.5 -10h-12q0 9 3 18.5t3 19.5l28.5 37.5t28.5 38.5v5q-12 -20 -25 -32.5t-28 -12.5q-2 0 -10 2l18.5 64.5l18.5 61.5q5 3 8.5 10.5t6 15.5t3.5 15t1 9q10 7 21.5 31t22 52.5l19.5 55t14 38.5q5 11 12.5 21t12.5 24q24 63 41.5 120t41.5 120q19 0 37.5 3
t38.5 3zM298 674q-9 -5 -17.5 -5.5t-13.5 -0.5l-32 -70q20 14 32 31.5t31 31.5v13zM209 453q-9 -5 -18 -13t-20 -13l-12 -38h-6l-7 -19h7l22 33l13 20t9.5 14zM159 339l-6 -13v-4q1 0 12 17h-6zM140 307q-14 -9 -17 -10.5t-8 -1.5l-19 -38q9 5 14.5 13.5t10.5 17.5l6 -6z
M178 263q-5 -10 -6.5 -14.5t-6.5 -4.5q10 5 11.5 7t1.5 12zM134 238q-5 0 -9 -1t-4 -6q-5 -5 -10 -13.5l-10 -17.5h-19q0 5 3.5 12.5t3.5 12.5h-7q-3 -15 -8.5 -28t-5.5 -27q0 -2 0.5 -6t1.5 -9q20 29 37 49t27 34z" />
    <glyph glyph-name="zero" unicode="0" horiz-adv-x="511" 
d="M285 710q14 -14 25.5 -17.5t21.5 -3.5h8q11 0 20.5 -5.5t17.5 -33.5l7 -7v20q25 -5 43 -26.5t23 -46.5q7 -2 12 -18.5t8 -42t4.5 -56.5t1.5 -62q0 -42 -2 -75t-4 -45q-2 -8 -3 -10.5t-2.5 -5t-3 -7.5t-4.5 -17q10 -5 16 -9t11 -4q0 -11 -4.5 -20t-9.5 -14q0 -20 -11 -50
t-27 -59.5t-34.5 -54.5t-33.5 -35q-8 0 -13 4t-10 4q-2 0 -4 -2q-3 -17 -5.5 -22t-7.5 -5q-2 0 -5 0.5t-8 0.5l-4 4l-16 16q-5 -20 -8.5 -26.5t-18.5 -6.5v13l-13 6q-10 -5 -11.5 -7t-1.5 -12h-14q-5 10 -6.5 11.5t-6.5 1.5q-7 -7 -17 -7q-12 0 -23.5 8t-22 19t-18.5 22
t-12 18q-12 5 -20 10t-13.5 11.5t-10 15.5t-9.5 23q-8 0 -10.5 6.5t-2.5 17.5q0 12 1.5 27.5t1.5 29.5q0 15 -3 27.5t-14 17.5q0 15 -1.5 23t-11.5 23q0 14 1 36t1 42v19.5t-2 15.5q5 0 6.5 3.5t6.5 3.5q5 42 6 58t3 20l3 2q-4 0 -5.5 3.5t-6.5 3.5l7 79h6q7 13 11 24.5
l8 22.5l8.5 22.5t12.5 23.5q10 4 22 9.5l24.5 11t25.5 9t25 3.5t23 -6l27 27q4 0 9 -5l10 -9q0 5 11 9.5t16 4.5zM272 617q-5 -3 -8.5 -6.5t-7 -6.5t-9 -5t-15.5 -2v-7q-5 -5 -6.5 -6t-6.5 -1v-20h-7q-5 -15 -6.5 -36.5t-6.5 -36.5h-7q0 -16 3.5 -39.5t3.5 -33.5
q-5 -15 -7 -23.5t-7 -22.5q3 -9 4 -20t1 -22q0 -28 -4.5 -57.5t-6.5 -53.5q5 -8 7.5 -19t4.5 -22t3.5 -21.5t4.5 -17.5q9 -11 20 -20v-20q18 -7 38 -7q17 0 32.5 5t35.5 15q0 35 7.5 66.5t12.5 66.5v73q-5 0 -6 1t-1 6q11 23 14 48t3 51t-1.5 51t-1.5 49h-7q-5 11 -6 30.5
t-1 29.5h-13v-20h-7v-33h-20v27h-6q-4 2 -5.5 13t-1.5 18v9q-10 0 -11.5 7.5t-1.5 12.5zM398 231q-5 -15 -10 -25.5l-10 -21.5h-13q-5 -10 -6.5 -22.5t-6.5 -17.5l6 -6q0 -5 3.5 -14t3.5 -19q4 7 5.5 11t1.5 12v16q10 18 15.5 30t8.5 20.5t4.5 15t4.5 14.5zM431 583
q-5 -5 -10 -13t-10 -13q-5 -9 -5.5 -23.5t-0.5 -28.5v-15q5 0 7 1.5t13 12.5q3 11 4.5 28.5t1.5 31.5v19zM132 630q-10 -10 -17.5 -24.5t-12.5 -30t-7.5 -31t-2.5 -27.5q11 15 22 40.5t11 45.5h7v27zM92 510q-10 -25 -11.5 -45.5t-1.5 -40.5q7 3 10 24.5t3 39.5v22zM88 255
q4 7 4 22l-2 -3q-10 -11 -13.5 -18t-10.5 -25q0 -7 6 -7v14h7q2 5 4.5 9t4.5 8zM179 557q-4 0 -5 -1.5t-2 -1.5v3q-5 -15 -5 -23q0 -9 5 -17v7q0 8 1.5 18.5t5.5 14.5zM145 271h7v33zM106 297l-8.5 -11.5t-5.5 -8.5q5 -5 6 -5t1 5zM219 656q-11 -5 -12.5 -6.5t-1.5 -6.5
q5 0 9.5 4t4.5 9zM378 264l-6 -7q1 0 3 -2l3 -2h1q1 0 6 11h-7z" />
    <glyph glyph-name="one" unicode="1" horiz-adv-x="341" 
d="M146 497q-14 0 -29.5 1.5l-31 3t-29.5 3t-23 1.5q-11 0 -13 -2q-3 0 -6 6.5t-6 16t-4.5 21t-1.5 21.5q0 12 2.5 20t8.5 8q5 0 16.5 -3.5t16.5 -3.5q10 3 23 6t27 8.5t27 15t23 24.5q0 34 20 79q15 0 22.5 -11.5t17.5 -21.5v7q10 5 19.5 5.5t20.5 0.5q5 5 6.5 10t6.5 10
h13q5 -5 7 -14t7 -19q-21 -40 -40 -80l6 -6q11 25 19 35.5t28 10.5q5 -30 9 -64t4 -69q-6 -3 -6 -13t3 -20.5t3 -12.5q-9 -11 -12 -42t-3 -65q0 -25 1 -47t1 -33q-5 -10 -9 -20.5t-4 -25.5q-2 -12 -2 -24.5v-24.5q0 -51 5 -100l10 -97q-25 -5 -46 -10l-41 -10q-5 7 -13 9.5
t-16.5 3t-16.5 1.5t-13 6q0 7 3 18.5t7 24t7 24t3 19.5q-12 17 -16 48.5t-4 66.5q0 43 3 84.5t3 66.5q-5 15 -5.5 31t-0.5 36t-1 43t-6 43zM219 25q10 5 16.5 6.5t16.5 6.5v74q-10 -20 -17.5 -39.5t-22.5 -34.5q5 -5 6 -6.5t1 -6.5zM226 471q5 5 9 6.5t4 6.5q5 5 6.5 13.5
t6.5 13.5t10 5.5t10 0.5v-26h7q0 20 -1.5 39t-11.5 34q-11 -30 -23 -51.5t-17 -41.5zM232 251q11 10 14 19t13 14v40h7v14h-7q-8 -20 -12 -31.5t-6.5 -20t-4 -16t-4.5 -19.5zM246 404q15 15 18 17.5t8 2.5v40q-5 -10 -6.5 -16.5t-6.5 -16.5h-7zM146 590l-33 -6
q10 -5 16.5 -7t16.5 -7v20zM126 544q0 5 -4 6.5t-9 6.5l-20 -7v7h-7v-7q15 -3 21 -4.5t11 -1.5h8zM232 371h14v20q-5 0 -7 -2.5t-7 -17.5z" />
    <glyph glyph-name="two" unicode="2" horiz-adv-x="507" 
d="M413 -20l-46 13v-7q-5 -2 -11 -6t-12 -4q-9 0 -17 17q-5 0 -15.5 -2t-21.5 -4.5t-21 -4.5t-15 -2q-56 10 -103.5 14.5t-103.5 4.5l-6 94q0 2 11.5 23.5l25 46l25 46t11.5 23.5h7l59 80q1 -1 5 -1q10 0 21.5 7.5t24.5 17.5l29 22q18 11 27 14l-7 20q5 5 10 6.5t10 6.5
q5 15 10 26.5t10 26.5q0 20 -4.5 38.5t-4.5 36.5q0 9 2 18.5t7 19.5q-1 1 -2 1q-2 0 -4 -9t-4 -20q-1 -10 -2 -18.5t-1 2.5q0 9 0.5 19t5.5 19h-13q0 10 -3.5 23t-3.5 23h-13v14h-6v6q-14 5 -21 6t-11 1h-8q-5 -5 -7 -6t-7 -1q-5 -5 -5.5 -10t-0.5 -10h-7q0 -5 -3.5 -6.5
t-3.5 -6.5q-5 0 -6.5 1t-6.5 6v13h-13v7h-7q-5 -11 -6 -17t-1 -17h-6q0 -11 -4 -15q-2 -4 -3 -5q5 0 7.5 -2.5t12.5 -17.5h-7q-5 -12 -5.5 -20.5t-0.5 -16.5v-9l-60 -13l-53 -7v15q0 11 -6 17l-8 8q0 8 -0.5 17.5t-0.5 20.5q0 23 3.5 42.5t17.5 19.5q11 20 27.5 33t46.5 13
v-7h6q5 23 14 28.5t21 5.5t25 1t27 12q5 0 15.5 -4t10.5 -9q5 5 11 9t16 4l20 -20q9 4 21 4q23 0 51 -9.5t48 -14.5l15 -16q9 -8 13 -17t11 -27q5 8 8 9q3 0 6.5 -5.5t5.5 -29.5h7v-73q-2 -4 -2 -10q0 -10 4.5 -21t4.5 -23q-15 -8 -18.5 -22.5t-4 -28.5t-3 -24.5
t-14.5 -10.5q-9 -16 -17 -21.5t-22 -8.5l-21 -3q0 -2 -6.5 -9.5l-17 -19l-23.5 -25.5l-26 -29l-35 -36l-38 -41l-7 7q-6 -12 -14.5 -23.5l-16 -21t-12.5 -16.5t-5 -11q0 -2 2 -2q5 0 6 1q5 -4 17 -5t29 -1q16 0 34.5 1l35.5 2t30.5 2t19.5 1q11 0 16.5 3t10.5 3t6 -0.5
t1 -5.5h6v-14h7q0 8 7 11.5t15 3.5q18 0 18 -12v-3q5 -5 6.5 -10t6.5 -10h7v-6h6l7 -7q3 -11 3 -18q0 -9 -1.5 -17t-1.5 -18h-20q5 -5 9 -10t4 -10q0 -1 -7 -3t-17 -4q-12 -3 -29 -6zM254 239q2 3 8.5 4t14 2.5t13 6t5.5 13.5v6.5t-2 7.5q0 10 10 23t10 23h-4q-2 0 -4.5 -1
t-11.5 -5q-2 -5 -8.5 -16.5l-13.5 -24t-12 -23.5t-5 -16zM134 46q10 0 22.5 5t17.5 15q15 0 30 1.5t30 11.5q-5 3 -8 5t-6 2v-7h-60v-6q-5 -5 -9 -7.5t-4 -12.5h-13v-7zM67 26q5 0 7 -3.5t7 -3.5q7 7 10 11t5 11l5 12q-7 -5 -11.5 -6t-11.5 -1h-11v-20zM367 651v-13h6
q5 -15 17.5 -26.5t22.5 -26.5q-2 12 -5.5 20t-9.5 15t-13.5 14zM426 -1l23.5 13t3.5 7q-5 -5 -10 -5.5t-10 -0.5q-5 -5 -6 -10q-1 -2 -1 -4v0zM280 671l13 -13q0 5 -1.5 6.5t-11.5 6.5zM407 53q4 0 6 3q1 1 2 1.5t2 1.5h-10v-6zM260 79l7 7q-11 -5 -17 -6q-1 -1 -2 -1h12z
M107 73h7q-1 1 -2 1.5t-3 2.5l-1 1q-1 0 -1 -5z" />
    <glyph glyph-name="three" unicode="3" horiz-adv-x="505" 
d="M29 166q3 7 4.5 11t3.5 12l5 17l53 -7l60 -13v-40q5 0 6 -1t1 -6q-6 -15 -10 -18l-3 -3q-1 1 -1 -19h7q5 -10 6 -16.5t1 -16.5h13v7h7v20h19v-14h7q5 -5 6 -10t1 -10q10 0 11.5 -0.5t1.5 -5.5q8 3 11 4.5t13 1.5h16v7h13v13h7q5 11 6.5 24t6.5 23h7q0 10 -3.5 23t-3.5 23
q2 1 2.5 1t2.5 -6q1 -10 3 -13v10q0 9 1 11q2 14 5.5 28t5.5 29q-5 15 -10 26.5t-10 26.5q-5 5 -10 7t-10 7v20q-25 5 -39 5q-16 0 -34 -5h-20l-13 33l7 40q5 0 16 7.5t37 12.5q5 -5 6.5 -6t6.5 -1q0 5 1 6t6 1q5 5 5.5 10t0.5 10h7l7 6h13v-13h7v-7h13q0 11 3.5 16.5
t3.5 10.5h6v-7h7q5 12 5 13t-5 1q-4 0 -6 -5l-1 -1v18l-2 -2q-1 0 -4.5 5t-6.5 11h7q0 11 0.5 20.5t5.5 19.5l-18 46.5t-8 46.5q-16 7 -30 10.5t-28 3.5q-21 0 -42 -7v-13l-4 -4q-5 -3 -9 -3q-5 -15 -10 -25.5l-10 -21.5q0 -15 -7 -26.5t-7 -26.5h-40q0 2 -10.5 5t-22.5 5
q-8 2 -16 2.5t-17 1.5q10 10 11.5 14t1.5 19q-10 5 -15.5 5.5t-10.5 0.5q2 3 3 9.5t2.5 14t3 14t4.5 9.5q0 12 10 26.5t25 27.5t32.5 23.5t32.5 15.5q7 0 11 -1.5t8 -1.5t7 3q0 10 6 11.5t21 1.5v-6h13q5 10 8.5 11.5t18.5 1.5v-7l6 -6q11 5 13 7t7 13l14 -7q0 -5 1.5 -6
t11.5 -1q4 4 15 4q13 0 26.5 -9.5t23.5 -20.5l15 -14l31.5 -8t21.5 -18q10 0 12 -8.5t2.5 -20t3.5 -22.5t15 -16q0 -10 -3 -18t-3 -15t6 -13q0 -10 -1.5 -20t-1.5 -20t3 -20h-13q-3 -19 -5 -23.5t-4 -4.5q-3 3 -4 8l-8 -16q-5 -9 -11.5 -14.5t-20.5 -16.5q-5 -5 -14 -6.5
t-20 -6.5q11 -10 16.5 -16.5t10.5 -16.5q25 -5 37.5 -9.5t22.5 -23.5q13 0 15 -11t2.5 -25.5t4 -29t18.5 -21.5q-4 -11 -8.5 -21t-4.5 -18t6 -14v-73h-13q-3 -23 -5 -29.5t-4 -6.5q-3 3 -4 9l-12.5 -19l-8.5 -13l-8 -12l-4.5 -7t-6.5 -9q-21 -4 -49.5 -14t-51.5 -10
q-12 0 -19 4q-5 -5 -12.5 -9.5t-7.5 -9.5q-10 0 -16 4t-11 9q0 -10 -10.5 -11.5t-15.5 -1.5q-15 12 -28.5 13.5t-25 2t-20 5.5t-13.5 25h-13v-7q-25 0 -43 13.5t-23 33.5q-15 0 -20.5 14.5t-5.5 34.5q0 14 2 27t4 24zM315 551h6q5 5 10 13.5t10 13.5h13q5 5 7 10t7 10h-14
v20q-5 -5 -5.5 -6.5t-0.5 -6.5v-7l-16 -16t-9 -10.5t-4.5 -9t-3.5 -11.5zM368 39l17.5 17t12.5 14t7.5 15.5t2.5 20.5q-11 -15 -22.5 -26.5t-11.5 -26.5h-6v-14zM155 598q3 0 4 1q6 1 9 6q0 5 3.5 14t3.5 19q-5 0 -7.5 -1t-12.5 -6q0 -7 -1.5 -12t-1.5 -10t3 -11zM386 429
q10 9 15 29l-21.5 -20.5t-11.5 -25.5q5 5 9.5 9t8.5 8zM388 505q7 10 11.5 15.5t7.5 10t6 8.5t8 12h-7v-6h-6q-5 -5 -7 -13.5t-7 -13.5h-6v-13zM394 458l11 21t3 11v8q-11 -5 -12.5 -17t-1.5 -23zM341 498l7 20h-7v-20zM128 525l14 -7v13q-5 0 -7 -0.5t-7 -5.5zM281 19
q11 5 12.5 7t1.5 7zM401 465q5 0 6 1t1 6q-5 0 -6 -4q-1 -2 -1 -3v0zM361 405l7 7h-7v-7zM315 119l-1 2z" />
    <glyph glyph-name="four" unicode="4" horiz-adv-x="524" 
d="M384 726v-6h13v-14q0 -5 7.5 -10.5t12.5 -15.5q-5 -15 -6 -26.5t-1 -26.5q8 -17 11 -43t3 -56q0 -22 -1 -45t-2.5 -44.5t-2.5 -40t-1 -31.5q0 -15 3 -30.5t3 -35.5v-40q20 0 40 -4t40 -9q0 -10 1.5 -14.5t1.5 -9.5q0 -4 -3 -10l-9 -3q-4 -2 -4.5 -2.5t-1.5 -0.5h2v-27
q5 -5 6.5 -9t6.5 -4v-14q-5 0 -10 -3t-10 -3l-25.5 16.5t-20.5 16.5l-7 -7q7 -6 7 -6.5t-3 -0.5t-7.5 -2.5t-7.5 -13.5q-1 0 -1 -1q0 -3 4.5 -9t4.5 -10q0 -3 -4 -3q0 -35 -4 -68t-9 -59q-15 0 -21.5 9.5t-11.5 24.5q0 -5 -3.5 -7t-3.5 -7h-33q0 -5 -3.5 -13t-3.5 -13h-13
q0 10 -3.5 19.5t-3.5 20.5q5 16 14 34.5t20 38.5l-7 7q-5 -10 -8 -18.5t-7 -15t-9.5 -10t-15.5 -3.5q-5 20 -6 36.5t-1 36.5h-53q-5 5 -10.5 6.5t-15.5 6.5q-35 0 -73.5 -3t-73.5 -3l-6 6q-8 -5 -11 -5q-4 0 -9 5v7h-7l7 7q-7 0 -7 6v7q0 5 -4 7.5t-9 12.5q-8 -2 -7 -2
q-5 0 -5 5t3.5 12.5t9.5 14.5t12.5 12t12.5 5q0 5 3.5 6.5t3.5 6.5h-13v6q-7 0 -7 7l33 33q5 13 16 31.5l22.5 38t20 36.5t8.5 27q20 28 36.5 62.5l33 71.5l33 73t36.5 66q5 0 10 4t10 9l80 -6q1 1 2 1.5t2 1.5q2 0 6 2zM297 261q2 9 3.5 25t2 35l1 38.5t0.5 34.5v33
q5 10 6.5 20t6.5 20v73q-10 -20 -16.5 -40.5t-16.5 -45.5q-3 -8 -11.5 -21.5l-18.5 -28.5t-18.5 -29t-11.5 -21q7 -6 7 -12t-5 -12t-11 -12l-11 -11h-7l-13 -46q25 0 51.5 -3.5t41.5 -3.5q5 0 10 1t10 6zM284 600h-7l-7 -13q-10 -5 -19.5 -11t-19.5 -16h-7l-40 -73h-7v-13
q20 15 35 37t25 42q15 0 28.5 16t18.5 31zM344 307q-11 -10 -13 -11.5t-7 -1.5l-7 -33h7q0 5 3 10.5t3 15.5l7 -6zM357 454q-5 -5 -10 -13.5t-10 -13.5v-34q1 4 2 7t2 5q8 17 10 25.5t6 23.5zM237 174h20l7 -6l6 -7v7q-12 7 -19 11.5t-12 7t-9.5 4t-11.5 2.5q10 -9 19 -19z
M344 600v-7q10 15 16.5 37t16.5 36q-10 -14 -19 -32.5t-14 -33.5zM317 181v-13l7 -7l6 7h-6v6zM350 341h-6v-14q3 -4 5 -4q1 0 1 2.5v15.5zM310 647v12q-2 -4 -4 -6q-5 -2 -9 -6h13zM324 374h6q1 4 2 7l2 6h-4zM270 640l-13 -13q13 0 13 13zM151 427l13 7v9q-5 -8 -13 -16z
M118 181v7l-7 -7h7zM111 194v-6l7 6h-7z" />
    <glyph glyph-name="five" unicode="5" horiz-adv-x="505" 
d="M24 147q0 8 10.5 15.5t10.5 15.5q0 3 -4 8q0 11 18 11q11 0 24.5 -2.5t24.5 -2.5q13 0 13 7h47q4 -9 5.5 -24t1.5 -26l9.5 -26.5t9.5 -23.5q5 -5 10 -6.5t10 -6.5l27 -13q7 -2 12 -2h10q8 0 12.5 2t9 5l11 7t18.5 8q0 12 5 28.5t10 30.5h-2l9.5 20.5t4.5 19.5t-3.5 14.5
t-3.5 19.5h-7q11 17 14 30.5t3 26.5t-1.5 26t-1.5 30l-7 -14q-3 3 -4 3q-3 0 -4 -5.5t-3 -5.5l-2 2l-7 33v-7h-13v-13h-13q0 5 -4 6q-1 1 -3 1h-7q0 5 -0.5 10t-5.5 10t-7 10t-7 10q-5 -3 -8 -5.5t-7 -4.5t-9.5 -3t-15.5 -1v-13h-6v-13h-14q0 -11 -3 -20.5t-3 -19.5h-14
l2 -6l-41 12l-20 -6q-15 0 -28.5 -3.5t-38.5 -3.5q5 15 6 28.5t1 18.5q-6 6 -9 15.5t-3 18.5q0 14 5 19l7 13v7l26 33l-13 20q5 5 6 10t1 10l-14 40q1 7 1 12v10q0 15 -3 19t-7 4h-7q-1 0 -1 1q0 3 4 14q1 -1 2 -1q3 0 6.5 4.5l7.5 10l8 11t9 8.5q-9 0 -11.5 14t-2.5 30
q0 12 0.5 21.5t0.5 14.5q3 2 13 2.5t23 0.5t26.5 0.5t24.5 2.5t18.5 3.5l14.5 3t14.5 2.5t17.5 1t22.5 -0.5t31.5 -2.5q0 -4 20 -4q17 0 44.5 2t53.5 2q23 0 40 -2.5t22 -10.5q6 0 6 -2t-4 -6.5l-9.5 -11t-9.5 -14.5t-4 -17q0 -12 7 -22q5 0 6 -11t1 -16h7q-5 -5 -10 -5
q-4 0 -4 5q-5 0 -11 2.5t-8 3.5q0 -1 0.5 -1.5t0.5 -1.5q0 -5 -6.5 -11.5t-11.5 -6.5q-1 0 -3 2h-54l-33 -7l-13 20l13 -7q5 5 6.5 7t6.5 7q0 5 -0.5 5.5t-2.5 0.5h-3h-7v18q-2 -4 -8.5 -5t-11.5 -6v-13q-4 4 -9 4q-8 0 -17 -6.5t-20 -11.5q-18 -2 -23 -2.5t-8 -0.5
t-9.5 -0.5t-26.5 -2.5q-3 -13 -6.5 -34t-6.5 -44.5t-5 -47t-2 -41.5q10 0 20 10t20 10q5 0 13.5 7.5t13.5 12.5q4 0 5 1.5t3 1.5t5 -3q0 5 11 9.5t16 4.5q17 -13 31 -14.5t25 -2t20 -5.5t17 -25h6v13q30 0 46.5 -12.5t26.5 -27.5q10 -1 17 -16t11 -36.5t5.5 -45.5t1.5 -43
v-19t-1 -12q-3 -8 -6.5 -12t-6.5 -8.5t-5 -10.5t-2 -16q10 0 15.5 -3.5t10.5 -3.5q0 -4 -2 -7.5t-3 -7.5h1l-2 -1v-4h-4q-3 -3 -3 -6q0 -15 -10 -35t-25.5 -39.5t-34.5 -35.5t-36 -23q-4 0 -7.5 1.5t-8.5 1.5t-11 -3q0 -15 -3.5 -17.5t-23.5 -2.5v6q-5 0 -9 1t-4 6
q-5 -15 -11.5 -18t-21.5 -8v13l-7 6q-10 -5 -12.5 -7t-7.5 -12h-13l-13 13q-10 -8 -23 -8q-11 0 -21.5 5t-20 12.5t-17 16t-11.5 14.5q-13 2 -21 5t-14 7.5t-10 11t-9 16.5q-9 0 -11.5 5.5t-2.5 13.5q0 5 0.5 11.5t0.5 13.5q0 8 -2 16t-8 13zM174 691h-13q-2 -2 -9 -7.5
t-14.5 -12.5t-13.5 -13.5t-6 -9.5t3 -3q6 8 21 11.5t19 7.5l20 14q0 5 -1 6.5t-6 6.5zM401 166l-8 5q0 -5 -4 -11.5t-4 -11.5h-6l-12 -16q0 -5 -4 -5.5t-9 -0.5q0 -5 -1 -10t-6 -10h7q5 -5 6 -10t1 -10q4 4 5 6t1 10v11q13 17 19.5 24t8.5 15h-1q0 5 3.5 7t3.5 7zM414 392
q-5 -5 -10 -6t-10 -1q0 -15 -1 -25.5t-6 -20.5q11 0 14 1.5t13 11.5v40zM361 671l-9 -4.5t-5.5 -3.5t-5 -4.5l-7.5 -7.5q-3 -17 -3 -23q0 -5 1 -5q2 0 2 8l7 -6l10 20.5t10 25.5zM108 385q-8 -14 -10.5 -20.5t-2.5 -14.5v-11q10 5 11.5 20.5t1.5 25.5zM101 132l7 -6v6h13
q0 4 0.5 7.5t2.5 7.5q0 5 1 9.5t2 9.5q-4 -7 -7.5 -11.5t-6.5 -7.5q-5 -8 -12 -15zM121 472l14 6q6 0 6 7h7v13q-10 -10 -16 -15.5zM148 146v-20h7q0 5 -1 10t-6 10zM201 432q-4 -4 -5.5 -16t-1.5 -22v-5q1 5 1.5 9t1.5 8t1.5 8.5t1.5 8.5t1 9zM374 199h-7v-13q5 0 6 1.5
t1 11.5zM155 372q-5 -10 -5 -12q0 -3 5 -8v20zM135 172l6 14q-2 -4 -4.5 -7.5t-1.5 -6.5zM180 292q-3 -2 -3 -1.5t-1 2.5zM181 295v-3h-1z" />
    <glyph glyph-name="six" unicode="6" horiz-adv-x="518" 
d="M494 166q0 -5 -4.5 -11t-9.5 -16q0 -12 -10 -32t-25.5 -40t-34 -37t-36.5 -24q-4 0 -7 1.5t-8 1.5t-12 -3q0 -15 -5.5 -15t-20.5 -5q0 5 -1 6.5t-6 6.5h-6q-5 -8 -8 -12t-6.5 -6t-8 -3.5t-11.5 -4.5v13l-6 7q-11 -5 -13 -7.5t-7 -12.5h-14l-13 13q-7 -7 -20 -7
q-16 0 -31.5 10t-26.5 21l-15 16q-25 5 -34 15t-19 25q-10 0 -12.5 6t-2.5 16q0 5 0.5 11t0.5 12q0 11 -3.5 21t-15.5 14q0 15 -1.5 22t-12.5 18v66h7v40q-3 5 -4 13.5l-2 17.5q-1 5 -1 11v11l7 14v6l7 53h13q0 5 1 11t6 16h-34q3 30 6.5 50t7 34t7 25.5t6.5 23.5q5 0 12 6
t14.5 14.5l14.5 16t12 10.5q-10 0 -19 -2.5t-15 -2.5q-7 0 -7 6q0 4 1 5q10 8 19 16t18 15q15 12 30.5 22.5t25.5 13.5q14 1 23.5 2.5t17 3t14.5 2.5t18 1q9 0 20 -0.5t27 -2.5q3 -5 16 -5h29q16 0 31.5 -2.5t23.5 -12.5q25 0 39 -15.5t34 -50.5l7 -20q-15 -10 -21 -12.5
t-6 -7.5h3q7 0 10 -1q5 -2 9.5 -7.5t4.5 -18.5l-40 14q0 -6 2 -15.5l4 -18.5h-93l-6 40l-7 7l-7 20l14 -13q4 9 5.5 9.5t7.5 10.5q-7 0 -7 6l-6 -6v20q-5 -5 -10 -7t-10 -7v-6q-11 5 -31.5 12.5t-35.5 7.5q-17 -5 -27 -12.5t-16.5 -17.5t-13 -22.5t-16.5 -27.5v-153
q5 2 11 8.5t11.5 13.5l10 12.5t7.5 5.5q10 5 19 10t14 10q4 0 5 1.5t3 1.5t5 -3q0 5 11 9t16 4q13 -9 23.5 -11.5t18.5 -2.5q5 0 9.5 0.5t8.5 0.5q10 0 17.5 -5t15.5 -22h7v7q25 0 44 -10t29 -30q7 0 13.5 -16.5t11.5 -40t7.5 -49t2.5 -44.5q0 -7 -0.5 -12.5t-1.5 -10.5
q-5 -10 -12.5 -18.5t-7.5 -28.5q10 0 16 -3t11 -3zM268 372q-5 0 -8 -2l-7 -4.5t-9.5 -4.5t-15.5 -2v-14h-14v-6h-6q0 -15 -4 -26t-9 -21h-7q2 -5 4 -5l2 2l1 1v-5q0 -10 -3.5 -19.5t-3.5 -19.5q-6 -14 -6 -31t3 -35t3 -34q5 -15 10 -26.5t10 -26.5q5 -5 10 -7t10 -7l26 -6
q21 -6 29 -6q6 0 9.5 1.5t8 4l10.5 6t17 7.5q0 29 10 51.5t16 48.5q0 10 -3.5 16.5t-3.5 16.5h-6q9 15 12.5 27.5t3.5 24.5q0 14 -3.5 28t-6.5 33l-6 -13q0 3 -1 3t-3 -5.5t-3 -5.5v1l-6 40v-7h-14v-20h-20v14h-6q0 5 -3.5 10t-3.5 10q-5 0 -9 6q-1 1 -1 2.5t-3 4.5v0z
M407 159h-6q-5 -10 -10 -19t-10 -14h-14q0 -5 -3 -10t-3 -10q0 -7 6 -7q0 -5 3.5 -10t3.5 -10q5 5 6 8.5t1 18.5q10 12 15 18.5t7.5 12t3 10t0.5 12.5zM188 684l-13 7q-3 -5 -9.5 -11.5l-14 -13.5t-13 -13.5t-5.5 -10.5q0 -2 2 -4q5 10 17 12.5t23 7.5l20 20zM427 385
q-5 0 -10 -3t-10 -3q0 -11 -0.5 -20.5t-5.5 -19.5q9 0 12.5 0.5t13.5 5.5v40zM95 505l-12 -5q-6 -2 -10 -5t-11 -10q-3 -17 -3 -23q0 -8 2 -8v1q0 1 0.5 1.5t0.5 1.5h6q10 11 16 21.5t11 25.5zM101 206l-12.5 -20t-7.5 -13t-5.5 -11.5t-7.5 -15.5h7v6h6q5 11 9.5 20t4.5 14
q5 0 5.5 0.5t0.5 5.5v14zM214 425q-7 -5 -10 -16.5t-3 -21.5v-8q3 -1 5 5.5t4 15t3 17zM88 339q-5 -14 -6 -21t-1 -15v-11q8 5 8 21q0 7 -0.5 14t-0.5 12zM101 425l20 7v6h14v14q-11 -11 -20 -16.5t-14 -10.5zM155 212l-7 -26h7v26zM387 192l-6 -6v-7q5 0 5.5 1t0.5 12z
M168 365q-5 -10 -5 -12q0 -3 5 -8v20zM88 246q-5 0 -6 -1t-1 -6q4 0 6 3q0 1 0.5 1.5t0.5 2.5v0z" />
    <glyph glyph-name="seven" unicode="7" horiz-adv-x="485" 
d="M355 570q-13 -4 -36 -4q-20 0 -38.5 2t-32.5 2q-10 0 -16 -3.5t-17 -3.5q-6 1 -12.5 1h-12.5q-22 0 -44.5 -2t-45.5 -2q-19 0 -37 3t-34 14q0 15 7 19t13 14q-7 0 -7 7v26q-5 5 -10 6.5t-10 6.5v14q5 5 10 6.5t10 6.5q15 -10 26 -19t21 -14h7q-15 10 -22 18t-12 28
q20 5 40 9.5t40 4.5q0 -9 8 -9q10 0 19 9q6 -10 26.5 -12.5t40.5 -2.5q14 0 24.5 0.5t14.5 0.5q10 -5 16.5 -6.5t16.5 -6.5q35 0 70 6.5t70 6.5v-13q2 -5 4 -11t4 -14l10 -34l7 -24t3 -11v-1q-1 1 -1 2h-11.5t-14.5 -1l-1 -19q1 -3 1 -11q0 -19 -12.5 -41t-30 -47.5
t-35.5 -55.5t-29 -64q0 -15 -4.5 -30t-9.5 -30l-28.5 -70.5t-24 -67t-17.5 -73.5t-10 -89q-8 3 -19 3.5t-22 1.5t-20 4t-12 11q0 -2 -1 -4.5t-2 -4.5q-1 -1 -1.5 -2t-1.5 -2h-34l-10 -10.5t-10 -15.5l-13 6q0 5 1 13.5t6 19.5q10 20 27.5 40t32.5 40l-7 7q-15 -25 -27.5 -36
t-32.5 -11q10 35 17.5 70t22.5 70q5 0 7.5 6.5t4.5 14.5t3.5 15.5t4.5 10.5q8 9 22.5 40t29 67l26.5 68t15 44q5 5 13 16l17 24l17 24t13 16q0 1 6 6t13.5 10.5t14 11zM244 218q-24 6 -29 6q-5 -10 -10 -19t-10 -14q-4 0 -6.5 -1.5t-4.5 -1.5t-2 3q0 5 1 10t6 10l-7 7
q-10 -26 -15 -43t-5 -37l44 51.5t38 28.5zM430 635q-4 19 -9 28h-33v-7q10 -10 20 -16t20 -17q0 2 1 3zM308 450q-10 -5 -16.5 -13t-16.5 -13l-13 -40h-14v-13h7l30.5 41.5t14.5 21.5zM169 637v6q-5 5 -10 6.5t-10 6.5q-1 1 -2 1.5t-2 2.5q-3 4 -3 10h20v6q-15 0 -25.5 -0.5
t-21.5 -5.5q20 -11 31.5 -22t22.5 -11zM302 637q-5 10 -12.5 13t-7.5 13h-27v7h-7v-7l20 -12.5t12 -6.5t9.5 -3.5t12.5 -3.5zM242 304q-15 -15 -19 -17.5t-14 -2.5l-14 -40q5 5 10 14t10 19h14zM209 650q-5 10 -6 13t-1 13h-27q5 -5 10 -6.5t10 -6.5v-7zM262 331h-7l-7 -14
q5 0 7 1.5t7 12.5zM229 643v7h-7q0 -5 1 -6t6 -1zM421 590q-18 0 -19 -4l2 -13z" />
    <glyph glyph-name="eight" unicode="8" horiz-adv-x="521" 
d="M224 -23q-15 14 -27.5 16t-23.5 2t-19.5 4t-15.5 24v-6h-7q-30 5 -46.5 15.5t-26.5 30.5q-14 4 -17.5 23t-3.5 39q0 11 0.5 20.5t0.5 17.5q8 10 10.5 16t2.5 15v16q-5 0 -13 3t-13 3q0 2 1 10t3 17t4 16.5t5 9.5q0 18 11 36t27 34t34.5 29t33.5 21h14l1 -1q-2 6 -2 5
q-1 2 -2.5 6.5t-3.5 9.5h-7v-7q-25 0 -40 9.5t-20 24.5q-14 2 -19 15.5t-5 28.5q0 25 4 36q5 10 6 14t1 19q-5 5 -10 6.5t-10 6.5q0 5 4 20t9 20q0 12 10 26.5t25 27.5t32.5 23.5t32.5 15.5q4 0 7 -1.5t6 -1.5q4 0 7 3q3 9 5 11.5t5 2.5t7 -0.5t10 -0.5q0 -6 6 -6h7
q4 10 10 12l17 8v-14l13 -6q10 5 11.5 7t1.5 13h14l6 -12t5 -2h2q8 5 16 5q10 0 20 -5t19 -12t15.5 -14.5t9.5 -13.5q24 -4 33.5 -8t19.5 -18q12 0 14.5 -8.5t3 -20t4 -22.5t18.5 -16q-4 -7 -7 -16t-3 -17q0 -7 3 -13v-60h-7q-2 -19 -4.5 -23.5t-4.5 -4.5q-3 1 -4 8
q-12 -15 -16.5 -21.5t-12.5 -14.5l-11 -11q-10 -5 -19.5 -6.5t-20.5 -6.5q5 -5 10 -9.5t10 -9.5l14 -14q10 -5 17.5 -7t14 -4.5t11.5 -7t10 -14.5q12 0 14 -12t3 -27t4.5 -29t18.5 -19q0 -11 -3 -20.5t-3 -19.5q0 -5 1 -10t5 -10q-5 -15 -6 -33t-1 -33l-7 -7q-2 -20 -5 -27
t-5 -7l-2 2q-1 1 -1 5q-2 -6 -7 -6q-5 -8 -8 -13.5t-6.5 -11t-9 -10.5t-15.5 -12q-7 -2 -19 -6l-26 -8.5t-28.5 -8t-26.5 -3.5h-20l-20 -20h-7q-5 0 -10 3.5t-10 3.5t-13 -3.5t-13 -3.5h-7zM237 57h47v13h7v7h6q5 15 9 25.5t4 20.5h14q-2 6 -2 12.5v11.5q0 23 4 42.5t4 40.5
q-5 16 -10 29t-10 24q-5 5 -9.5 9t-9.5 4l6 20q-15 5 -22 6t-18 1q-15 0 -30 -4.5t-30 -9.5q0 -30 -8 -59.5t-18 -59.5q0 -11 3 -21.5t3 -25.5h7q-5 -15 -10 -17.5t-10 -2.5q5 -5 6 -10.5t1 -15.5h6q0 -5 3.5 -13.5t3.5 -13.5v7h7l6 13h27v-7h7q0 -5 3 -10.5t3 -15.5z
M337 449q0 10 3.5 12.5t3.5 7.5q-5 0 -7.5 1.5t-12.5 11.5h6q0 11 3.5 20.5t3.5 19.5q-5 25 -12.5 46.5t-7.5 46.5q-18 7 -33 10.5t-30 3.5q-22 0 -43 -7l6 -13q-5 0 -10 -3.5t-10 -3.5q-5 -10 -6.5 -23t-6.5 -24q0 -12 3 -27t3 -31q0 -15 -6 -28l2 -2q1 0 2 4q2 10 3 13
v-15h6q5 -10 7 -19t7 -14h6v-14h7v-6h33l7 -7q5 5 6.5 6t6.5 1q0 5 1 10t6 10q7 0 7 6h13l6 -13h7v-7h7q5 11 5.5 16.5t0.5 10.5h7zM337 555h7q5 11 10 16.5l10 10.5q0 3 2 3t4.5 -1.5t6.5 -1.5q0 5 1 10t6 10h-7q0 5 -3.5 10t-3.5 10q-5 -5 -5.5 -6.5t-0.5 -6.5v-7
q-8 -10 -12 -16t-6.5 -10.5t-4 -9t-4.5 -11.5zM171 602q5 0 10 3.5t10 3.5v33q-5 0 -7.5 -1t-12.5 -6v-33zM91 77h13q0 15 1 25.5t6 20.5q-5 0 -7.5 -0.5t-12.5 -5.5v-40zM377 409q20 15 30 24t10 29q-5 -10 -16 -19.5t-11 -20.5h-13v-13zM410 509q7 10 11.5 15.5t7.5 10
t6 8.5t8 12h-19q0 -10 -3.5 -16.5t-3.5 -16.5h-7v-13zM118 223q5 10 10 19t10 14h13q0 5 3.5 13.5t3.5 13.5h-7v-7l-15.5 -19t-8.5 -12t-5 -10t-4 -12zM397 57q10 10 15 16.5t5 16.5q-5 -5 -10 -14t-10 -19zM364 502l6 20h-13q0 -5 3.5 -10t3.5 -10zM417 469q5 15 6 20t1 20
q-5 -10 -6 -22.5t-1 -17.5zM430 190q5 5 6.5 10.5t6.5 15.5h-6q0 -5 -3.5 -10.5t-3.5 -15.5zM151 529h7v6q-5 5 -6 5t-1 -11zM344 442l5 13q0 2 -1.5 3t-3.5 4v-20zM318 148q-1 1 -1 12l1 -1q1 -4 1 -9t1 -10v-6zM194 506q0 5 2 5q0 -1 1 -2q-2 -4 -3 -7t-2 -5q0 1 0.5 2.5
t0.5 3.5zM424 117h5q0 -2 -5 6v-6zM423 470q1 1 1 8q-1 -1 -1 -5q-1 -4 -3 -4q1 0 1 0.5t2 0.5v0zM192 497q0 -6 -1 -8zM321 128l1 1zM191 484v5v-5z" />
    <glyph glyph-name="nine" unicode="9" horiz-adv-x="522" 
d="M230 222q-15 12 -27.5 13t-23.5 1.5t-20 6t-16 25.5h-6v-13q-30 5 -46.5 15.5t-26.5 30.5q-10 0 -16.5 23.5t-10.5 53.5t-5.5 58t-1.5 38q5 11 13.5 18t13.5 22q-10 5 -16.5 6.5t-16.5 6.5q9 11 20 20q0 15 10 36t25.5 41.5t34 37.5t36.5 25q5 0 10.5 -3.5t16.5 -3.5
q0 15 5.5 17.5t20.5 2.5q0 -6 7 -6q3 0 4 -1l9 -6q5 15 8.5 18.5t18.5 8.5v-14l13 -6q5 5 6.5 7t6.5 13h14l6 -12t5 -2h2q7 7 20 7q11 0 22.5 -6t21.5 -14t17.5 -15.5l11.5 -11.5q25 -10 34 -17t19 -22q9 0 11.5 -6t2.5 -15q0 -6 -0.5 -13t-0.5 -14q0 -12 3.5 -23t16.5 -16
q0 -10 1.5 -16.5t12.5 -16.5q0 -14 -1.5 -25t-1.5 -22q0 -10 3 -20q-5 -5 -7 -5.5t-7 -0.5v-107l-7 -5v-55h-12q0 -5 -3.5 -9.5t-3.5 -9.5h20q-3 -30 -4.5 -49t-3.5 -32t-4.5 -23t-7.5 -23q-3 0 -9.5 -7t-14.5 -16.5t-16 -18t-13 -11.5q11 0 19.5 1t14.5 1q12 0 12 -9
q-2 -2 -14 -12.5t-28 -22.5t-32 -21.5t-26 -9.5q-14 -2 -23 -3.5t-16.5 -3t-14.5 -2t-17 -0.5h-20t-28 2q-3 4 -16.5 4t-29.5 1t-31.5 5.5t-22.5 16.5q-3 -1 -12 -1q-19 0 -31.5 15t-29.5 46q-1 3 -2.5 8.5t-1.5 10.5q0 7 4 7q5 5 9 7.5t6 4.5q8 2 5 2q0 2 -3.5 2.5
t-7.5 2.5t-7.5 5.5t-3.5 11.5q0 1 2 11l40 -20q-1 1 -1 2t-0.5 2.5t-0.5 3.5l-4 13q-3 7 -3 12v1q1 0 2 -1h93l7 -33v-7l7 -20l-14 7q0 -5 -4 -6.5t-9 -6.5q0 -7 7 -7h6v-20q5 5 10 6.5t10 6.5v14q10 -11 21 -19t26 -8q17 3 27 5t17.5 6.5t15 12.5l20.5 23q5 29 9 63.5
t4 69.5h-33q-5 -5 -12.5 -10t-7.5 -10q-11 0 -16.5 4t-10.5 9q0 -5 -11.5 -9t-21.5 -4zM250 315q5 2 8 4.5t6.5 4.5t9 3t16.5 1v13h13v7h7q0 15 4 25.5t9 20.5h7q0 5 -2 5q-1 0 -2 -1t-2 -1t-1 4q0 10 4 20t9 20q-5 8 -7 16.5t-2 16.5q0 17 4.5 34t4.5 33q-5 15 -10 26.5
t-10 26.5q-5 5 -10 6.5t-10 6.5v14q-20 4 -38 4q-17 0 -32.5 -4t-35.5 -14q0 -25 -7.5 -53t-12.5 -53q0 -10 1 -13t6 -14l6 -6q-11 -17 -15.5 -30t-4.5 -27q0 -11 2 -24.5t5 -31.5l7 13v-2q1 0 3 5t3 5v-1l14 -34v7h6v13h20v-6h7q0 -5 3 -10t3 -10q5 -5 7 -10t7 -10zM323 2
l13 -7q3 4 10 10.5l14 13.5l12.5 13t5.5 8t-2 2q0 -5 -15 -9t-25 -4l-20 -20q2 0 3 -1q4 -1 4 -6zM90 301q5 5 10 7t10 7q0 10 1 19.5t6 20.5q-11 0 -14 -1t-13 -6v-47zM110 534h7q5 5 10 14t10 19h13q5 5 6.5 10t6.5 10h-6q-5 5 -6 10t-1 10q-5 -5 -6 -8t-1 -18
q-10 -10 -15.5 -16t-8.5 -10.5t-4.5 -9t-4.5 -11.5zM416 481l11 16l8 11.5t8.5 11t12.5 14.5l-7 7l-6 -7h-7q-5 -10 -6.5 -19.5t-6.5 -20.5h-7v-13zM423 182q10 5 13 7t13 13q2 8 3 13t2 8l-5 5q-10 -15 -15.5 -25.5zM416 261l-20 -6q0 -5 -3.5 -6.5t-3.5 -6.5h-6v-7
q10 5 19 13t14 13zM429 348q5 20 7 26l7 20q-11 -10 -12.5 -23t-1.5 -23zM303 261q3 3 4.5 9.5t3 14t2.5 14t3 9.5q-2 0 -4.5 -6.5t-4.5 -15t-3 -17zM130 501h7l6 13q-5 0 -6.5 -1.5t-6.5 -11.5zM363 474l6 20h-6v-20zM349 321l5 13q0 2 -1.5 3t-3.5 4v-20zM429 434
q2 2 3.5 4t2.5 3t1 5q-1 -4 -4 -5q-3 -2 -3 -7zM343 355q0 -5 3 -7t3 -7q0 5 -0.5 7t-5.5 7z" />
    <glyph glyph-name="colon" unicode=":" horiz-adv-x="212" 
d="M151 168q9 -11 15 -12l7 -1q4 0 10 -3q-5 -7 -6 -17t-1 -17q2 -10 3.5 -20.5t1.5 -23.5q0 -14 -1.5 -29.5l-3.5 -34.5q-7 3 -14 3.5t-13.5 1.5t-12 3.5t-9.5 8.5v-9q-10 0 -14.5 -5.5t-14.5 -5.5q-2 -3 -7 -3q-2 0 -4.5 0.5t-4.5 0.5q-5 0 -6 -3h-12q-2 3 -7.5 4.5
t-11 2.5t-9.5 2.5t-4 4.5q11 15 18.5 20.5t7.5 6.5t-1 1q-2 0 -6 -0.5t-12 -0.5q-5 19 -6 42t-1 42q7 0 7 9q0 3 -0.5 4.5t-1.5 5.5q1 0 1 -0.5t1 -0.5q3 0 7 4q5 5 5 14v5q12 0 31.5 -2t37.5 -2q22 0 31 4zM65 362q-11 11 -16 11l-7 1q-2 1 -4 1.5t-5 2.5q5 7 6 17t1 17
q-3 9 -4 20t-1 24q0 14 1 29t4 35q7 -3 14 -3.5t13 -1.5t11.5 -3.5t10.5 -8.5v9h39q5 6 6.5 8t5.5 8h12q5 -6 5.5 -12t0.5 -13q-5 -3 -5 -4l2 -1q0 -1 0.5 -1.5t0.5 -1.5q0 -4 -4 -8l-6 -25q4 6 5 10.5t3 8t7 5t16 1.5q5 -19 6 -42t1 -42q-8 0 -8 -10q0 -5 2.5 -10t5.5 -5
q-2 -2 -4 -2q-4 0 -6.5 7.5t-4 18t-2.5 21t-2 17.5v6l-9.5 -13.5t-9.5 -11.5q0 -19 3 -23.5t6.5 -6t6.5 -6t3 -23.5q-12 0 -31.5 1.5t-37.5 1.5q-10 0 -17.5 -0.5t-13.5 -2.5zM81 151q-7 4 -11 4t-5 -3.5l-2 -7l-2 -7t-5 -3.5l-7 -24h-7v-9h7l15.5 19t8.5 12t4.5 9t3.5 10z
M96 437q9 7 12 12t13 5l7 24h7v9h-7l-15.5 -19t-8.5 -12t-4.5 -9t-3.5 -10zM59 470q9 6 12 7t11 1v25q-4 -7 -5 -11.5t-6 -4.5h-6zM157 60q-9 -6 -12 -7t-11 -1v-25q4 7 5 11.5t6 4.5h6zM37 148q-2 1 -3 2l-2 2q4 0 5 -4z" />
    <glyph glyph-name="semicolon" unicode=";" horiz-adv-x="197" 
d="M136 159q4 -5 6.5 -6.5t4.5 -2t4.5 -1t6.5 -3.5q0 -10 -2.5 -18.5t-2.5 -13.5q4 -11 5 -20.5t1 -20.5v-16q1 -12 2.5 -27t1.5 -32q0 -10 -1 -20.5t-4 -21.5q-2 -6 -2 -9q0 -4 0.5 -8.5t0.5 -9.5q0 -9 -2 -18t-8 -14q0 -8 -8.5 -13.5t-21 -10.5t-26.5 -11.5t-24 -16.5
l-11 -7q-6 11 -5.5 9.5t-1.5 -5.5q-4 -7 -16 -10l11 26q1 0 1 1q0 2 -1.5 5t-1.5 5t2 2l6 40h6l5 6l6 -6q5 0 5.5 0.5t0.5 5.5h11q-5 5 -5.5 6.5t-0.5 6.5h-5q4 5 7.5 13t3.5 13q0 11 2.5 27.5t4.5 31.5h-18q-5 -5 -6 -9t-6 -4h-11q-5 5 -5.5 10t-0.5 10l1.5 3t0.5 3
t-0.5 2.5t-0.5 1.5q0 3 5 10l6 19q-5 -5 -6 -8.5t-2.5 -6t-5.5 -3.5t-15 -1q0 13 -1 27t-1 27v13t2 11q5 2 5 10q0 6 -2.5 12.5t-2.5 10.5h2q8 0 10 -12l4 -23q1 -2 1 -11q1 1 2 1t1 1q2 0 2.5 -2t2.5 -2t4 2q0 4 0.5 7.5t0.5 5.5q0 10 -2 12.5t-5 3t-5 2t-2 10.5q0 8 1 11
q12 0 29 -1t34 -1h15.5t13.5 2zM58 362q-11 11 -16 11l-7 1q-2 1 -4 1.5t-5 2.5q5 7 6 17t1 17q-3 9 -4 20t-1 24q0 14 1 29t4 35q7 -3 14 -3.5t13 -1.5t11.5 -3.5t10.5 -8.5v9h39q5 6 6.5 8t5.5 8h12q5 -6 5.5 -12t0.5 -13q-5 -3 -5 -4l2 -1q0 -1 0.5 -1.5t0.5 -1.5
q0 -4 -4 -8l-6 -25q4 6 5 10.5t3 8t7 5t16 1.5q5 -19 6 -42t1 -42q-8 0 -8 -10q0 -5 2.5 -10t5.5 -5q-2 -2 -4 -2q-4 0 -6.5 7.5t-4 18t-2.5 21t-2 17.5v6l-9.5 -13.5t-9.5 -11.5q0 -19 3 -23.5t6.5 -6t6.5 -6t3 -23.5q-12 0 -31.5 1.5t-37.5 1.5q-10 0 -17.5 -0.5
t-13.5 -2.5zM89 437q9 7 12 12t13 5l7 24h7v9h-7l-15.5 -19t-8.5 -12t-4.5 -9t-3.5 -10zM101 87q-8 -5 -11 -9t-12 -4l-5 -26h-6v-6h6q8 9 12.5 14.5t7.5 10t4.5 9t3.5 11.5zM52 470q9 6 12 7t11 1v25q-4 -7 -5 -11.5t-6 -4.5h-6zM130 146v-13q5 5 5 6q0 2 -1.5 3t-3.5 4z
" />
    <glyph glyph-name="equal" unicode="=" horiz-adv-x="589" 
d="M562 454q-11 -11 -24 -20.5t-23 -19.5q-15 0 -26.5 3t-26.5 3q-20 -15 -24.5 -20t-12.5 -5q-4 0 -15 0.5t-29 1.5q-35 3 -58 3h15t-6 -1q-14 0 -36 -5q-7 1 -14 1h-14q-36 0 -75 -3l-28 -1.5t-8 -0.5q-32 0 -62.5 3t-57.5 14q0 10 2 16t6.5 9.5t10.5 6.5t14 8
q-5 0 -6.5 3.5t-6.5 3.5v40q-5 0 -13.5 3t-13.5 3v20q11 0 20.5 3.5t19.5 3.5q15 -10 34 -19t39 -14h7q-25 10 -36 19t-11 34q29 4 43 9q12 4 44 4q3 -8 19 -8q9 0 19 2.5t15 5.5q4 -4 16.5 -7.5t28.5 -5.5q8 -1 17 -1.5t18 -1.5q10 -1 8.5 -1h-12.5q19 0 34.5 1t22.5 3
q15 -5 25.5 -10l20.5 -10q58 13 120 13q5 -20 10 -43t10 -43zM236 474q-5 5 -5.5 6.5t-0.5 6.5q-11 5 -17 6.5t-17 6.5v14q5 0 10 0.5t10 5.5v7q-20 0 -35.5 -1.5t-30.5 -11.5q25 -11 48 -23t38 -17zM509 467q0 5 -3.5 14t-3.5 19h-73q20 -10 39 -17.5t34 -22.5zM269 514
q-11 10 -13 13t-7 13h-33q5 -5 13 -6.5t13 -6.5v-7zM281 498h-20l20 -7v7zM355 319q132 10 147 0q5 0 50 -20q0 -15 -11.5 -22.5t-21.5 -17.5h7q5 -10 5.5 -19.5t0.5 -20.5q5 -5 10 -6.5t10 -6.5v-13q-5 -5 -14 -7t-19 -7q-11 21 -30 24l-6 -6q6 -3 11 -4.5t8 -3.5l6 -3v-20
q-30 -5 -64 -9t-69 -4q-3 6 -13 6t-20.5 -3t-12.5 -3q-11 9 -27 12t-50 3q-25 0 -47 -1t-33 -1q-11 5 -3 10q7 4 -33 0q-20 -2 -41.5 -5t-45.5 -5q-5 25 -10 46l-10 41q7 5 9.5 13t3 16.5t1.5 16.5t6 13q7 0 18.5 -3t23.5 -7q13 -4 14.5 -7t9.5 -3q17 12 23.5 16t20.5 4
t31 -3t42 -3q17 5 31 5q8 1 9.5 1t-3.5 0q20 0 43 1t43 6zM329 239q5 -5 6.5 -9t6.5 -4q5 -5 13.5 -6.5t13.5 -6.5t5.5 -10t0.5 -10h-26v-7q20 0 39 1.5t34 11.5q-30 11 -51.5 23t-41.5 17zM139 233q10 -11 19 -14t14 -13h40v-7h14v7q-20 8 -31.5 12t-20 6.5t-16 4
t-19.5 4.5zM378 284v-14h20q0 5 -2.5 7t-17.5 7z" />
    <glyph glyph-name="greater" unicode="&#x3e;" horiz-adv-x="576" 
d="M570 328q-2 -5 -4 -11l-4 -12q-1 -2 -1 -3t-1 -2q-1 -2 -1 -6l-2 -2q-4 -6 -5 -9q-14 -6 -30 -10.5t-30 -10.5q-2 -4 -5 -8t-8 -9q-17 -17 -17 -15q1 1 -33 -12q-33 -13 -50 -22l-38 -21q-13 -5 -27.5 -12t-29.5 -17q-38 -15 -48 -21q-5 -2 -17 -8t-32 -15
q-39 -17 -48 -18q-4 -1 -15 -2.5t-30 -4.5q-3 6 -2.5 11t2.5 9t4 7.5t2 6.5q4 9 1 8t-19 -6l-10 4q12 8 4.5 11t-13.5 2q-9 0 -14 1l-8 10l-8 9q7 6 15.5 10.5t15.5 11.5q12 1 18.5 2t11 1t7.5 0.5t8 2.5l3 4q-3 3 -4 3h-2.5t-4 1.5t-7.5 7.5q-3 1 -6 8q29 17 29 18
q1 1 7.5 5t20.5 11q5 -2 13 0.5t15.5 6.5t13.5 8.5t7 5.5q12 -1 37 6t26 6t26 11l22.5 10.5t15.5 6.5l21 7q14 5 26 10l22 9l-7 3q-15 7 -27.5 11.5t-22.5 8.5q-5 3 -20 8t-34 8q-17 8 -36 14.5l-39 13.5l-34 11.5t-22 7.5t-21.5 9l-32.5 14q-39 19 -66 40q7 13 16 13.5
t24 4.5q0 4 -3 5.5t-9 6.5l1 5q1 5 2 12t6 15q-10 5 -14.5 9.5t-8.5 9.5v12h3q8 -1 17 -3.5t18 -2.5l35.5 -29.5l36.5 -29.5h5q-41 26 -40 54q0 8 1 10q16 -5 26 -7l15 -3q9 -1 38 -12q2 -5 9.5 -8.5t15.5 -6t15 -3.5t9 -1q6 -10 30 -21.5l47 -21.5t48.5 -19t38.5 -15
q10 -6 19.5 -13t23.5 -13q0 -2 5 -5t17 -9t32 -14.5t51 -20.5q-1 -16 0 -32q3 -2 6 -5zM228 453q1 4 0 8t-6 4q-4 6 -12 10.5t-18 9.5l2 19h2q5 1 10.5 -2.5t10.5 -3.5h1l1 7q-14 3 -26.5 8t-24.5 7q-4 0 -8.5 -0.5t-9.5 -1.5q28 -21 47 -38.5t31 -26.5zM430 377
q-4 8 -11.5 17.5t-11.5 20.5l-37 13v6l-19 6l1 -7l31 -21t19.5 -13.5t13.5 -10.5t14 -11zM352 259q1 0 2 0.5t2 0.5h1q-7 3 -5.5 7t-8.5 7l-36 -17l-5 4l-18 -7l5 -6q24 4 38.5 7t24.5 4zM297 446l-9.5 16.5t-0.5 7.5l-37 20q4 -9 12.5 -15t16.5 -10l-6 -6zM278 243
q-16 4 -19.5 5t-6.5 5l-14 -5q-17 -11 -7 -9l10 2t10 3l9 -3zM271 223l-14 -5l-2 -3l19 3zM328 426l-13 6l-4 1q0 -1 16 -13zM283 183q-11 -5 -15 -6l-1 -1q3 -1 7 -1q1 1 3 2.5t6 5.5zM251 408l-14 7l-2 1l3 -6q4 0 8 -1zM359 259q-2 2 -4 0q-7 -1 4 0zM145 197
q14 0 31.5 1t29.5 3q11 11 12.5 13t1.5 7h-15q-14 1 -28.5 1t-23.5 -5q-5 -5 -13 -10l-14 -9z" />
    <glyph glyph-name="question" unicode="?" horiz-adv-x="433" 
d="M296 312q-1 1 -2 1q-2 0 -4.5 -6l-5.5 -13l-5.5 -13t-5.5 -6q-2 0 -2 1l5 -36q-4 -4 -4 -11q0 -5 1 -12t1 -12q0 -11 -8 -13l-77 9l-55 -4q4 13 9 41l10.5 56t11.5 49t13 21q4 0 7 -6q1 -1 2 -1t4 6q5 9 10.5 22t9.5 13q0 5 1 6t6 1q5 5 5.5 10t0.5 10h7l7 6q2 0 5 4.5
t6 10l5.5 10t5.5 4.5l8 -22l-10 -20v-7h13q0 11 3.5 16.5t3.5 10.5h6v-7h7q5 12 5 13t-5 1q-4 0 -6 -5l-1 -1v18l-2 -2q-1 0 -4.5 5t-6.5 11h7q0 11 0.5 20.5t5.5 19.5q1 9 1.5 18t0.5 17q0 55 -25 66q-18 7 -28 12.5t-23 5.5q-6 0 -12.5 -1t-15.5 -4l-24 -27l-4 -4
q-5 -3 -9 -3q-3 -9 -3 -15t1 -11.5t1 -10.5q0 -6 -1 -8q0 -15 1 -25t1 -25l-74 -5q0 2 -8.5 4.5t-19.5 4.5q-7 1 -13.5 1.5t-14.5 1.5q2 7 2 12v10q0 8 -0.5 16t-0.5 19v8q2 3 3 10t2 15t2.5 15t4.5 10q0 12 9.5 25.5t24.5 25.5t32 21.5t32 14.5q7 0 11 -1.5t8 -1.5t7 3
q0 10 6 11.5t21 1.5v-6h13q18 2 23 3.5t5.5 3t0 3t7.5 3.5h31q0 -5 1.5 -6t11.5 -1q4 4 13 4q10 0 20 -6t19 -14.5l17 -16.5t13 -12l22 -22.5t17.5 -22.5t13.5 -27t10 -37q0 -10 -3 -18t-3 -15t6 -13q0 -10 -1.5 -20t-1.5 -20t3 -20h-13q-3 -19 -5 -23.5t-4 -4.5q-3 3 -4 8
l-8 -16t-7 -10.5t-9.5 -9t-15.5 -11.5l-1 -1q9 2 15.5 3t8.5 1h1l-2 -2q4 -4 4 -7q0 -5 -9.5 -9.5t-22.5 -21.5q-7 -8 -10.5 -10.5t-5.5 -2.5q-1 0 -1.5 0.5t-1.5 0.5q-2 0 -3.5 -2t-6.5 -10zM251 140q5 -6 8.5 -8.5t7 -3l7 -1t9.5 -3.5q-5 -7 -6 -17t-1 -17
q2 -10 3.5 -20.5t1.5 -23.5q0 -14 -1.5 -29.5l-3.5 -34.5q-7 3 -14 3.5t-13.5 1.5t-12 3.5t-9.5 8.5v-9q-10 0 -14.5 -5.5t-14.5 -5.5q-2 -3 -7 -3q-2 0 -4.5 0.5t-4.5 0.5q-5 0 -6 -3h-12q-2 3 -7.5 4.5t-11 2.5t-9.5 2.5t-4 4.5q11 15 18.5 20.5t7.5 6.5t-1 1
q-2 0 -6 -0.5t-12 -0.5q-5 19 -6 42t-1 42q4 0 4 3q0 2 -2.5 7t-2.5 10q0 4 1 5v3q0 5 3 6t6.5 1t6.5 0.5t3 3.5v2q12 0 31.5 -2t37.5 -2q22 0 31 4zM74 576h-6q-5 -5 -7.5 -13.5t-7.5 -13.5h-13q-5 -5 -7 -10t-7 -10h14v-20q4 4 5 6t1 7v7q15 15 19 21.5t6 13.5zM174 308
l17.5 17t12.5 14t7.5 15.5t2.5 20.5q-11 -15 -22.5 -26.5t-11.5 -26.5h-6v-14zM181 123q-7 4 -11 4t-5 -3.5l-2 -7l-2 -7t-5 -3.5l-7 -24h-7v-9h7l15.5 19t8.5 12t4.5 9t3.5 10zM324 398q15 15 25 24t15 29q-5 -5 -11 -8l-11.5 -6t-9.5 -7.5t-4 -11.5l-4 -13v-7zM199 639
q-1 0 2 -1.5t7 -1.5t6 1q2 4 11 9t15 13q-4 3 -6.5 3.5t-13.5 2.5q-6 -8 -12.5 -11.5t-8.5 -14.5zM55 507q17 6 24 11t9 9.5t2 9t3 9.5q-15 -1 -23.5 -14t-14.5 -25zM393 575l-5 15l-25 -20q0 -5 4.5 -6.5t4.5 -6.5zM154 615l39 40l-7 8l-18.5 -21.5t-13.5 -26.5zM351 498
q7 10 11.5 15.5t7.5 10t6 8.5t8 12h-7v-6h-6q-5 -5 -7.5 -6t-7.5 -6l-5 -15v-13zM257 32q-9 -6 -12 -7t-11 -1v-25q4 7 5 11.5t6 4.5h6zM364 458q5 0 6 1t1 6q-5 0 -6 -4q-1 -2 -1 -3v0z" />
    <glyph glyph-name="at" unicode="@" horiz-adv-x="791" 
d="M517 537q1 1 2 6.5t3 2.5l8 -7l1 2l69 -10l-3 -45l-1 -16l-3 -49l-4 -1v-8l3 -10l-2 -26q-2 -47 -10 -60l-4 -12.5t-4 -14.5l-15 8q1 -67 18 -67q25 0 52 24q-1 -1 7 0l2 13q5 7 9 14.5l8 15.5q5 11 11.5 30l16.5 48q-2 -4 -2 29q0 17 -1.5 33.5t-3.5 33.5
q-7 14 -15.5 27.5t-18.5 27.5l-1 11l-44 35q-14 12 -65 33l-7 8q-53 7 -111 24l-16 -3q-40 -1 -77 -11q-15 -3 -47 -15t-45 -25.5t-17 -16.5q-8 -10 -15.5 -18t-12.5 -15q-3 -4 -9 -7q-2 -3 -4 -7q1 -5 -2 -12q-7 -15 -18.5 -48.5t-11.5 -94.5l-4 -8q4 -18 6 -35
q2 -15 5.5 -29.5t8.5 -28.5q17 -47 55 -100l12 -3q42 -39 88 -58q5 -2 9 -4.5t8 -6.5q3 -2 10 1q40 -12 85 -12q23 0 49 -3q23 4 44.5 9t41.5 13q9 3 17 6.5t16 7.5q5 2 9 5t9 5l16 -1l22 8l14 2l25 3l8 3l6 -3l7 5l6 -6q-9 -25 -41 -54q-103 -94 -273 -94q-44 11 -82 22
t-70 22q-132 46 -167 97q-34 47 -44 140q-1 -4 0 17l1 7l-6 2q-3 30 -3 64q0 61 16 112q5 10 10 19t10 17q0 15 7 21q11 27 25 45l9 12q9 12 24 25q3 2 6 5l6 6q42 46 91 71q8 4 16 7.5t16 6.5q10 -10 11.5 -14t1.5 -19l27 13q5 0 10 -4t10 -9q5 5 10 6t10 1v-13l20 26
q-20 8 -35 13t-30 5h-8q-14 0 -23 -4q64 23 131 23q47 0 89 -20l29 -6q58 -3 108 -40q9 -5 29 -22q43 -23 72 -63q8 -15 11 -33l11 -7l1 -11q21 -47 21 -101q0 -87 -44 -158q-6 -10 -12.5 -19t-13.5 -17q-13 -16 -31 -26l-8 -14l-6 2q-65 -54 -136 -54q-60 0 -65 53
q-17 -17 -33 -27q-4 -2 -8 -4.5t-8 -4.5q-36 -17 -73 -17q-66 0 -105 57q-11 7 -19 21q-7 14 -12 28t-7 30q-2 11 3 22q-6 6 -2 7q-4 14 5 37q-7 -1 -5 10q8 32 27 59q6 19 12.5 35.5t13.5 32.5q10 13 21 23t22 18q13 10 25 15q40 21 89 21q11 0 21 -1.5t20 -3.5
q52 -14 80 -62l2 11q-4 9 -4 15q0 1 0.5 1.5t0.5 1.5v20zM409 470q-8 0 -12.5 -1.5t-11.5 -1.5q-9 0 -17.5 -0.5t-11.5 -0.5q-4 0 -17 -6q-8 -6 -11.5 -15.5t-10.5 -14.5l-7 1v-3q0 -5 0.5 -11.5t0.5 -12.5q0 -7 -1 -8q-6 -6 -8.5 -9t-10.5 -9q3 -6 3 -13q0 -14 -9.5 -29.5
t-15.5 -26.5q10 -10 9.5 -22t4.5 -20q4 -4 9.5 -7t10.5 -7l-2 -9l23 -10t17.5 -7t18.5 -4t27 -1q1 9 9.5 16t19 14l20.5 13.5t14 13.5q2 8 4 18t4 16q-8 3 -8 3.5t1 2.5q13 8 19 18.5t8.5 22t3.5 23.5t4 24l-7 2q-4 4 -4 14q0 7 2 15l-11 -3l-6 -2l-7 1l-22 2l-6 1
q-5 5 -5 13q0 7 1 8q-9 1 -11 7zM489 24q3 2 7.5 1.5t9.5 0.5q0 5 7 12l5 -7v21l-24 -8.5t-20 -10.5l-6.5 -6.5t-6.5 -8.5q10 -1 12 -2.5t9 -9.5zM560 355q2 -12 -8 -20q-13 -1 -13 -10q0 -1 -2 -9q-3 0 -4 1l5 -9l6 -14q17 24 27.5 40.5t10.5 43.5v9q-7 -4 -10 -5.5
t-8 -1.5t-3 -5zM90 134q5 5 10.5 13t9.5 13h8l9.5 25t6.5 30q-1 2 -1 5t-1 6q-5 0 -6 -1.5t-1 -5.5l-7 -6q0 -6 -4.5 -6.5t-9.5 -0.5q-5 -20 -7 -36.5t-7 -35.5zM101 505q7 5 14.5 15.5t13 23t9 25t3.5 22.5q-5 -15 -10.5 -28t-16.5 -18q-5 -5 -5.5 -10.5t-0.5 -16.5h-13z
M544 340q6 9 6.5 16t6.5 16l-11 7q-6 -9 -8 -14.5t0 -20.5zM112 111q5 5 9.5 13t4.5 13h-14v-26zM203 350q6 3 12.5 10t12.5 11l-2 19q4 20 27 31q9 4 9 11q-6 1 -7 0t-2 -5l-7 -5q-1 -6 -5.5 -5.5t-9.5 1.5q-10 -19 -14.5 -34.5t-13.5 -33.5z" />
    <glyph glyph-name="A" unicode="A" horiz-adv-x="571" 
d="M485 -27q-8 4 -18.5 6.5l-22 5.5t-21.5 6.5t-17 8.5q-3 8 -5 29.5t-2 43.5v53q-18 13 -27 33q-5 0 -10 3.5t-10 3.5q-7 -8 -15.5 -11t-18.5 -3q-14 0 -28.5 3.5t-23.5 3.5q-5 0 -13.5 -1t-13.5 -6q-15 5 -26.5 13.5t-26.5 13.5q-10 -55 -23 -107t-43 -92q-6 1 -6 4
q0 5 7.5 11.5t7.5 15.5q0 3 -3 8q0 -5 -0.5 -6.5t-5.5 -6.5h-47q-5 -10 -10 -15.5l-10 -10.5h-20v33l31 40t36 40l-7 6q-15 -25 -29 -35.5t-44 -10.5q0 30 5 63t15 63q5 4 8 13t3 19q0 13 -5 21q13 7 22 33.5t14.5 57t8 58t2.5 37.5q10 11 16.5 21.5l16.5 25.5
q15 60 33.5 126.5t33.5 126.5q5 1 9 1h8q11 0 21 -2t21 -2q9 0 21 3q5 -5 9.5 -10.5t9.5 -10.5l20 -19h20q5 5 6 10.5t1 15.5l20 -6q5 -5 10 -14t10 -19q-5 -15 -10.5 -34.5t-16.5 -39.5l7 -6q5 10 8 18.5t8 14.5t13.5 9.5t23.5 3.5q15 -30 25.5 -66.5t21.5 -66.5
q-5 0 -5 -7q0 -8 6.5 -22t11.5 -17q-7 -7 -7 -28q0 -17 4 -39.5t9 -44t11 -40.5t10 -28q-5 -10 -6 -20.5t-1 -25.5q5 -28 12 -52.5t15 -49l16.5 -50t16.5 -55.5q-12 -2 -19.5 -8.5t-13.5 -14t-13.5 -14t-20.5 -9.5zM352 259v18q0 15 -1 29t-5 26l-20 60q-3 6 -11 32
l-17.5 55.5t-19 52.5t-14.5 23t-5 -23q-5 -13 -12 -38.5t-13 -53t-10.5 -51t-4.5 -30.5q-5 -15 -5.5 -30t-0.5 -30q-5 -5 -6 -11t-1 -16q0 -3 4 -3q3 0 7.5 1.5t8.5 1.5q4 -7 18 -10t28 -3h14l13 -13q15 0 29 4t24 9zM366 458q5 0 10 3.5t10 3.5q-3 6 -3 11t1.5 10t1.5 12
h20q5 -5 6.5 -10.5t6.5 -15.5h7q-5 20 -12 39t-22 34q-5 -30 -13 -51t-13 -36zM226 638v27h-20l-20 -74q15 11 22.5 24t17.5 23zM179 452q-10 -11 -16 -19t-17 -8l-13 -40q0 -5 -4 -5.5t-9 -0.5v-14h6l23.5 31t13.5 19.5t8 16zM106 186q-2 -1 -3.5 -2t-3.5 -2q-6 -3 -13 -3
q5 10 6 16t1 11h-13q0 -14 -1.5 -25t-1.5 -23t3 -25q10 14 15.5 28t10.5 25zM426 212q5 0 9.5 11t9.5 16l-6 46q-5 -10 -7.5 -23t-12.5 -23q0 -5 1 -16t6 -11zM406 99q5 11 10 19t10 8l-7 40q5 5 6.5 5.5t6.5 0.5l-6 14h-7q-8 -29 -10.5 -41.5t-2.5 -25.5v-20zM359 239
q-10 -10 -15 -16t-5 -11q-1 -1 -1 -2q0 -3 5.5 -9.5t11.5 -14.5q3 -3 6 -6.5t6 -7.5q0 2 -1 3q-7 24 -7 64zM126 305q-8 -8 -10 -13t-2.5 -8.5t-1.5 -6t-6 -5.5l-13 -33q10 5 16 13.5t11 13.5h6v39zM406 385q15 15 18 17.5t8 2.5l-6 40q-5 -5 -6 -14t-1 -19h-13v-27z
M153 332l-13 7v-20q5 0 6.5 1.5t6.5 11.5zM399 359h13l-6 13q-5 0 -6 -1.5t-1 -11.5zM326 432v20q-5 -5 -5 -8q0 -4 5 -12z" />
    <glyph glyph-name="B" unicode="B" horiz-adv-x="534" 
d="M172 680l6 6q5 0 10 -3t10 -3q5 15 8.5 17.5t18.5 2.5l7 -7q3 0 4 -1l9 -6q5 11 8.5 15.5t17.5 4.5l-6 -6l13 -7q10 5 11.5 6.5t1.5 6.5h14q5 -5 6.5 -5.5t6.5 -0.5q7 4 17 4q11 0 21 -5.5t18.5 -12.5t14.5 -14.5l9 -11.5l21 -5t13.5 -4.5t11 -6.5l14.5 -11q8 0 9.5 -5.5
t1.5 -13.5v-9q0 -11 3.5 -22t18.5 -16q0 -9 -4.5 -18.5t-4.5 -19.5q0 -5 2 -9v-53q-5 0 -5.5 -1t-0.5 -6q-3 -15 -5.5 -20t-4.5 -5t-4 5l-20 -20q-4 -4 -8.5 -8t-11.5 -11q-10 -5 -19.5 -7t-19.5 -7q10 -5 18 -13t8 -13q12 -5 21.5 -7.5t16 -5t12 -7t10.5 -14.5q13 0 15 -11
t2.5 -25t4 -28.5t18.5 -21.5q0 -9 -4.5 -21t-4.5 -23q0 -3 2 -9v-67l-6 -6q-3 -22 -5.5 -29t-4.5 -7q-3 0 -4 9q-12 -15 -16.5 -21.5t-14.5 -16.5l-15 -15l-20.5 -7t-24.5 -7.5t-27 -6.5t-26 -3q-15 0 -22 4l-20 -20q-5 0 -13.5 4t-13.5 9q0 -10 -10.5 -11.5t-15.5 -1.5
q-12 9 -22.5 11.5t-18.5 2.5q-5 0 -10 -0.5t-9 -0.5q-25 -5 -45.5 -10l-40.5 -10q-5 3 -9 3q-8 0 -18 -6.5t-19 -6.5q-5 0 -8 4q0 7 2 22t5 31t5 30.5t2 22.5q-12 16 -16 46.5t-4 65.5q0 42 3 82t3 65q-5 11 -5.5 23t-0.5 24v13q0 42 -3 84.5t-3 87.5q0 36 4 70.5t15 63.5
q15 0 22.5 -9t17.5 -24v13h40q5 5 6.5 13.5t6.5 13.5h13q5 -11 7 -20.5t7 -19.5zM198 154q-8 -11 -10.5 -16.5t-5.5 -5.5q-1 0 -4 3q0 -5 3.5 -11t3.5 -16h7q0 -5 3 -13.5t3 -13.5h7v7h13v13h17l-1 -1l2 -2l2 -3h7q0 -5 1 -11t6 -16q5 0 6.5 -1t6.5 -6q7 4 11 5.5t13 1.5h16
v13h6v7h14q0 15 4 25.5t9 21.5v46q1 5 7 17t6 34v9q-5 10 -10 24l-10 29q-13 0 -13 13v14l-23 3.5t-19 1.5q-10 0 -19 -1.5t-19 -3.5l-53 6v-40q-5 -10 -9 -19.5t-4 -19.5v-47h13q0 -15 3.5 -25.5t3.5 -21.5h6zM185 401q10 5 35.5 6.5t50.5 6.5l7 -7q5 5 6.5 6t6.5 1
q0 5 3.5 10t3.5 10h7v6h20v-13h6v-7h7q5 5 6 13.5t1 13.5h6q0 6 3 9l4 4q-5 0 -7.5 5t-12.5 15h7q4 9 5 16t1 15v9q-5 20 -12.5 43.5t-7.5 43.5l-32.5 10t-27.5 4q-18 0 -39 -8v-13q-6 0 -10 -4q-1 -1 -2 -1.5t-2 -1.5q-10 -19 -20 -40v-33q-6 -3 -6 -13t3 -22t3 -18
q-5 -5 -9 -23t-4 -43zM158 334l-6 7h-7l-12.5 -31.5t-7 -19t-3.5 -13.5t-3 -16q10 5 13 13t13 13v40h13v7zM351 547h7q5 10 10 15.5l10 10.5q0 5 4 6t9 1q0 5 3.5 6.5t3.5 6.5h-7q0 5 -0.5 12.5t-5.5 7.5q-5 -5 -6 -7t-1 -13q-8 -10 -12 -15.5t-6.5 -10t-4 -9t-4.5 -11.5z
M424 500q7 10 11.5 15.5l8 10t6.5 9l8 12.5l-7 6v-6h-13q0 -5 -3.5 -14t-3.5 -19h-7v-14zM192 600h13q0 10 1 16.5t6 16.5h-20v-33zM132 407q15 10 18 12.5t8 7.5v30q-2 -6 -3 -10q-3 -8 -3 -13h-14zM428 82q12 15 16 33l-10.5 -11l-11.5 -12q-9 -9 -11 -27q11 9 17 17z
M421 431q10 9 10 29q-4 -9 -16 -21q-9 -8 -11 -22l9 7.5t8 6.5zM431 460q6 14 7.5 19.5l5.5 20.5q-10 -5 -11.5 -17t-1.5 -23zM132 500h-7q0 -6 -3 -13q-3 -8 -3 -11q1 4 13 4v20zM378 500l7 20h-14q0 -5 3.5 -10t3.5 -10zM125 374h7v20q-5 0 -6 -2.5t-1 -17.5zM398 55
q2 2 5 3.5t5 3.5l-10 6v-13zM79 447v20q-5 -5 -5 -8q0 -4 5 -12zM311 35l12 6t2 5v2q-5 -5 -7 -6.5t-7 -6.5zM165 500h-7v-6h7v6zM358 440q5 12 5 13t-5 1v-14zM391 407q2 2 4 3.5t5 3.5h-9v-7zM112 41l-7 7v-7h7z" />
    <glyph glyph-name="C" unicode="C" horiz-adv-x="521" 
d="M25 252h4l-4 33q3 30 4.5 47t1.5 28t-1.5 20.5t-4.5 24.5q5 5 6.5 6t6.5 1q5 -5 9.5 -14t4.5 -19h6q0 10 -1.5 23t-11.5 23q0 15 8 32.5t19 27.5q-4 4 -5.5 3.5t-1.5 1.5v-5h-27q5 25 13.5 46.5t13.5 46.5l7 14.5t7 13.5q5 11 11 22.5t8 16.5q6 0 13 13l7 11l4.5 6t2.5 3
l40.5 10t45.5 10q0 5 3.5 10t3.5 10q7 0 11.5 1.5t9.5 1.5q6 0 12 -3q0 13 9.5 17.5t23.5 4.5q18 0 38 -4.5t29 -4.5q25 -15 44 -27.5t33 -27t24.5 -33t18.5 -45.5q2 0 3 -1q3 -3 3 -6q0 -8 1 -21.5t1 -28.5q0 -20 -4 -36.5t-17 -16.5q-7 0 -14 4l-7 -27q-10 2 -25 3
t-29.5 3.5t-24.5 7.5t-10 16q0 10 10 23v7q0 13 -6 24.5t-15 20.5t-19.5 16t-19.5 12q-11 0 -20 -3.5t-14 -3.5q0 5 -1.5 6t-11.5 1l-18 -9q-7 -4 -28 -4q-5 -55 -14 -113t-20 -113q0 -30 1.5 -66t1.5 -76h-3q1 -10 2.5 -21t4.5 -24q5 -13 5 -26q0 -17 -4 -33t-8 -27h7
q0 10 4 12.5t9 7.5q0 10 3.5 16.5t3.5 16.5q10 0 10 3.5t10 3.5q5 -29 30 -43t51 -14q17 0 25 4q0 5 3.5 6.5t3.5 6.5q3 0 6.5 8.5l7.5 19t7 20t6 12.5l3 69l3 -1v25q15 5 30 9t30 4q1 -1 1.5 -2t1.5 -2q4 -4 4 -9q14 0 28 -6.5t24 -14.5q2 1 7 1h1h6q0 -10 -3 -21t-3 -26
q0 -30 -0.5 -50t-5 -37.5t-14 -35.5t-27.5 -43q-5 0 -6.5 -3.5t-6.5 -3.5l-7 7q-10 -5 -18.5 -14t-8.5 -19q-5 -5 -10 -6t-10 -1h-8q-11 0 -11 -6q-11 0 -20.5 -3.5t-19.5 -3.5v20q-11 0 -17 -1t-17 -6v-6q-15 4 -20 6t-20 7v13h-6v-6h-27q-5 10 -7 11.5t-13 1.5v-13
q-5 5 -10 9t-10 4v-7h-26v47h-7q0 -5 -3.5 -7t-3.5 -7q-20 0 -23.5 6t-9.5 21v-13l-20 6q-5 9 -5.5 16t-0.5 15v9q-5 5 -11 9.5t-16 4.5v39h-7zM298 684q5 0 10 -4t10 -9q5 5 10 6t10 1v-13l20 26l-36.5 12.5t-32.5 5.5q-7 0 -14.5 -1t-16.5 -4q10 -10 11.5 -14t1.5 -19z
M98 106q5 5 10 13.5t10 13.5h7l9 25t6 31q0 2 -2 10q-5 0 -6 -1t-1 -6l-6 -6q0 -5 -4.5 -6t-9.5 -1q-5 -20 -6.5 -36.5t-6.5 -36.5zM98 505q7 5 14.5 15.5t13 23t9 25t3.5 22.5q-5 -15 -10.5 -28t-16.5 -18q-5 -5 -5.5 -10.5t-0.5 -16.5h-13zM417 79q11 0 17 3.5t17 3.5v13
q-11 0 -17 -1.5t-17 -11.5v-7zM384 565q0 15 3.5 22t3.5 18q-5 -5 -10 -11t-10 -16v-7zM78 392q5 5 9.5 13t4.5 13h-14v-26zM52 319q-3 0 -4 -1q-3 -2 -3 -6q0 -5 1 -14t6 -19v40zM52 266h-7v-7h13q0 5 1 10t6 10h-13v-13zM78 159v7h14v6q-11 0 -13 -1.5t-7 -11.5h6z
M284 684v14h7v-14h-7zM85 379v6q-5 0 -9 -0.5t-4 -5.5h13zM185 469q2 4 3 5t1.5 2t1.5 2l-6 7v-16zM106 252h5l-6 7z" />
    <glyph glyph-name="D" unicode="D" horiz-adv-x="563" 
d="M252 731l7 -20h27v7h15q9 0 13 -3t12 -11v-13h6v13l33 -6q5 -5 7.5 -6t12.5 -1v7q5 0 10 -3.5t10 -3.5v7h27l-13 -73h6q0 5 3.5 6.5t3.5 6.5q10 0 14.5 -1.5t7 -4t4.5 -6t7 -8.5v7l27 -7v-40q5 -5 13 -9t13 -4v-40h7l13 -133q-2 -30 -3 -47t-1 -28t1 -20.5t3 -24.5
q-5 -5 -6.5 -5.5t-6.5 -0.5q-4 4 -9 14q-4 7 -4 24q-1 -3 -4 -4q-1 -1 -3 -1q0 -11 1.5 -23.5t11.5 -23.5l-10.5 -30t-15.5 -30l7 7l6.5 4.5t6.5 2.5l-14 -14h20q0 -12 -1 -19.5t-2 -13.5t-2 -13.5t-1 -19.5q-3 0 -8.5 -9.5t-11 -21.5t-9.5 -22.5t-4 -13.5q-5 0 -13.5 -14.5
t-13.5 -25.5q-20 -5 -43.5 -9.5t-43.5 -9.5q-5 -5 -6.5 -10t-6.5 -10h-26q-2 -8 -16 -10.5t-36 -2.5q-19 0 -41.5 2t-45.5 4.5t-46 6l-42 6.5q-20 5 -34 6t-19 1q5 10 10 15.5l10 10.5q-5 5 -6.5 7t-6.5 7q5 15 6 26.5t1 26.5q-14 16 -18 44t-4 61q0 42 4 85t4 69
q-5 15 -6.5 30t-6.5 30q1 15 1.5 30.5t0.5 31.5q0 23 -0.5 47.5t-0.5 48.5q0 40 3.5 77.5t15.5 70.5q15 0 22.5 -9t17.5 -24v13h40q0 5 4 13.5t9 13.5h13q0 -11 3.5 -16.5t3.5 -10.5q5 0 6 5t1 15q10 0 15.5 3.5t10.5 3.5l12 -5q2 0 8 11q10 0 16.5 1t16.5 6zM199 133
q0 -5 3.5 -7t3.5 -7l-7 -6q0 -5 -3 -10t-3 -10h6q5 0 16.5 1t24 3t23.5 4t16 5q0 -3 5.5 -3.5t11.5 -0.5h13q7 0 10 -3q14 10 24 22t29 12v66h7v13q0 30 4 45l4.5 28t4.5 34q3 24 3 42q0 11 -1 23.5t-2.5 29t-3 38.5l-3.5 53q-6 7 -6 23q0 17 4.5 34.5t8.5 28.5h-7
q0 -10 -4 -12.5t-9 -7.5q0 -5 -3.5 -14t-3.5 -19q-6 0 -7 -1l-3 -1h-2q-1 0 -7 2q-3 13 -12 26.5t-21 24t-26.5 17t-29.5 6.5q-9 0 -11 -1v-13q-8 0 -24.5 7t-24.5 7q-3 0 -4 -1q0 -20 3 -46.5t3 -46.5q-8 -5 -8 -17q0 -10 3 -20t5 -16q-9 -9 -11.5 -40t-2.5 -65
q0 -23 0.5 -43.5t0.5 -31.5q-2 -6 -2 -9q0 -9 2.5 -25t5.5 -32.5t5.5 -32.5t2.5 -25q0 -8 -1 -9v-19zM299 33l-27 -20q0 13 -13 13h-20q0 2 -1 3q-1 4 -6 4l-13 -27q15 -6 29 -10t28 -4q18 0 36 8q-3 8 -4.5 11.5t-4.5 9.5zM465 571q-5 -5 -10 -13t-10 -13h-6
q-5 -8 -10 -26.5t-5 -32.5q0 -7 1 -8l14 14q5 5 6.5 5.5t6.5 0.5q5 20 6.5 36.5t6.5 36.5zM119 152q5 5 14 7t20 7v66q-10 -15 -18 -35t-22 -31q0 -5 3 -7t3 -7zM113 472q4 4 9 5q1 1 4 1q5 11 6.5 17t6.5 17h20v-20h7q0 20 -1.5 36.5t-11.5 36.5q-11 -35 -23 -56.5
t-17 -36.5zM119 259q11 5 14 13t13 13v40h7v14h-7q-8 -20 -12 -31.5l-6.5 -19t-4 -13.5t-4.5 -16zM479 192q-20 -11 -30.5 -34.5t-16.5 -44.5q10 15 14 24.5t19 14.5q0 11 3.5 16.5t3.5 10.5q2 0 3 1q4 1 4 6v6zM133 405q15 10 18 12.5t8 7.5v33q-5 -5 -6.5 -13t-6.5 -13h-7
zM485 285l-10 -10.5t-10 -15.5q5 0 10 1t10 6v19zM472 465h-7v-13l-6 6v-40q5 11 6.5 24t6.5 23zM119 372h14v20q-5 0 -7 -2.5t-7 -17.5zM512 399v13h6v6h-13q0 -5 -1 -9.5t-6 -9.5h14zM512 399v-40q3 0 4.5 2.5t1.5 3.5q0 5 -0.5 14t-5.5 20zM492 305h-13v-13q5 0 9 1.5
t4 11.5zM492 518h-7v-6h-13v-7q10 0 12.5 1.5t7.5 11.5zM292 13v-7h-6v13zM74 455q0 -3 2 5z" />
    <glyph glyph-name="E" unicode="E" horiz-adv-x="494" 
d="M459 704v-13h-7q-2 -4 -2 -10q0 -5 0.5 -10t1.5 -10l2 -17v-6q0 -5 -2 -7q-5 -2 -5 -12q0 -7 1.5 -16t1.5 -15q0 -10 -5 -10l-10 -2q-18 0 -18 19l2 10h-7v-7h-6v-7h-6q-11 0 -22 2t-19 12q0 -5 -3.5 -10t-3.5 -10q-5 0 -10 1.5t-10 11.5q-10 0 -16.5 3.5t-16.5 3.5v-14
h-20v7q-6 0 -9 3q-2 1 -2.5 2t-1.5 2v-20q-9 -3 -19 -3q-11 0 -22.5 2.5t-25.5 6.5q5 -20 6 -39t1 -34q-5 -2 -6.5 -7.5t-1.5 -13.5q0 -9 2 -18t6 -14q-5 -5 -9 -14t-4 -19h6q7 -5 21 -8.5t27 -3.5q14 0 19 5q13 -4 37 -4t48.5 3t45.5 3q6 0 11.5 -0.5t10.5 -1.5q0 -6 3 -9
l4 -4l-7 -93q-40 0 -73 -5t-73 -15q-6 0 -14 2t-16.5 4.5t-16.5 4.5t-13 2q0 -16 -7 -16q-3 0 -7 3.5t-6 5.5v-20l-10 -19.5l-10 -19.5q0 -51 6.5 -100.5t6.5 -106.5q3 13 3.5 26t3 23.5t8 17.5t18.5 7q21 2 44 6.5t47 4.5q11 0 21 -1t21 -4q0 -5 1 -10t6 -10l47 27l33 -27
h6q-5 -5 -6.5 -9t-6.5 -4q15 -5 19 -12.5t14 -7.5q0 -10 -1.5 -22t-1.5 -23q0 -12 3 -21q-5 0 -10 -1t-10 -6q-4 0 -5 1.5t-3 1.5t-5 -3q-17 6 -35 6q-23 0 -47 -4.5t-48 -4.5q-16 0 -29 3q5 0 5.5 4t0.5 9q-6 0 -7 -1q-3 -1 -7 -2t-6 -3v-7h-20q-3 3 -5 9q-1 1 -1 4
q-11 0 -20.5 -0.5t-19.5 -5.5q-5 -5 -11 -9.5t-16 -4.5q0 5 -0.5 7t-5.5 7q-15 -5 -30 -7t-30 -7l-14 14q0 -17 -21 -17q-9 0 -19 3q-1 0 -1 -0.5t-1 -0.5q-3 0 -3 6q0 5 1.5 13t1.5 16q0 10 -4 13q-2 2 -2 4q0 7 5 20l4 16q0 2 0.5 3.5t0.5 2.5t-2 7q-5 0 -6.5 1t-6.5 6v6
q4 -1 9 -5q9 -5 24 -15v7q-15 18 -20 52t-5 72t2.5 75t2.5 60q0 15 -0.5 30t-5.5 30q0 8 0.5 15.5t0.5 15.5q0 37 -2.5 76t-2.5 77q0 33 3 64t14 58q10 0 15.5 -2.5t9.5 -6.5t7 -10.5t8 -13.5q0 5 3.5 6.5t3.5 6.5h40v13l6 7v7h7l13 13l40 -27q0 5 1 10t6 10q14 5 30 5
q17 0 34.5 -4.5t34.5 -6.5q16 2 36 6t40 4q12 0 23.5 -2.5t20.5 -7.5q6 3 11 3q16 0 16 -17zM120 472q5 5 6.5 5.5t6.5 0.5q5 11 6.5 17t6.5 17h20q-5 -8 -5 -11q0 -4 5 -9h7q0 20 -1.5 36.5t-11.5 36.5q-11 -35 -23 -56.5t-17 -36.5zM133 86l-10.5 -20t-16.5 -20l14 -7
q5 0 13 3.5t13 3.5v40h-13zM352 365v7h-6q0 10 -4.5 12.5t-9.5 7.5v7h-39v6q-7 0 -7 -6q10 -11 20.5 -12.5t25.5 -1.5q0 -10 7.5 -15t12.5 -5zM153 299l-13 6q-11 -15 -12.5 -23t-1.5 -23q5 5 11 13t16 13v14zM406 345v20q-11 0 -14 1t-13 6q0 -15 4 -19t9 -14q5 0 7 3t7 3z
M153 432q5 0 9 -4q1 -1 2 -1.5t2 -1.5v33q-5 -5 -6.5 -10.5t-6.5 -15.5zM133 93h13v26q-5 -10 -6.5 -15.5t-6.5 -10.5zM392 691q-5 5 -7 6.5t-13 6.5v-13h20zM233 684v7q-5 5 -10 6q-4 1 -4 4q0 -7 1.5 -9.5t12.5 -7.5zM326 79q10 5 11.5 7t1.5 7l-4 -4q-5 -3 -9 -3v-7z
M186 684q0 5 -1 7.5t-6 12.5q0 -10 1 -12.5t6 -7.5zM379 79q5 5 6.5 7t6.5 7q-10 -5 -11.5 -7t-1.5 -7zM312 72q1 1 7 1v6q-6 0 -7 -4l-3 -6zM233 678q5 0 6 -1l3 -3l-3 6q-1 4 -6 4v-6zM379 392q-1 1 -2 1.5t-3 2.5l-1 1q-1 0 -1 -5h7zM266 399h4q-2 1 -4 1t-3 1z" />
    <glyph glyph-name="F" unicode="F" horiz-adv-x="477" 
d="M383 305l-33 14v-7q-3 -3 -7 -6.5t-8 -3.5q-7 0 -12 17q-10 0 -26.5 -7t-26.5 -7q-25 5 -42.5 9.5t-37.5 4.5q0 -23 1.5 -53t1.5 -61q0 -38 -4.5 -72t-18.5 -54q0 -10 3.5 -24t3.5 -29l-20 -20.5t-20 -25.5q-25 5 -45.5 10l-40.5 10q0 48 4 94t4 94q0 13 -0.5 25.5
t-1.5 25.5q0 15 -4 25.5t-9 20.5q0 8 0.5 25t0.5 38q0 17 -0.5 34t-2 32t-4.5 26.5t-7 17.5q2 6 4.5 16t2.5 19q0 6 -1.5 11.5t-5.5 7.5q0 25 3 49.5t3 49.5q0 4 3 6q1 1 4 1v20h7q0 8 -4.5 17.5t-4.5 16.5q0 4 2 6q5 2 5 12q0 7 -1.5 15.5t-1.5 13.5q0 6 2 6q1 0 1.5 -0.5
t1.5 -0.5q10 3 19 3q12 0 19.5 -6t7.5 -17l7 7q20 0 32.5 -1t27.5 -6q5 5 5.5 10t0.5 10q11 0 17 -4t17 -9q10 -5 19 -6t14 -1q1 1 1.5 2t1.5 2q1 2 2 4.5t1 5.5q5 0 10 -1t10 -6q5 -3 9 -4t6 -2q1 -1 5 -1v14q12 3 25 3q23 0 46 -5t46 -5q22 0 36 7q5 -5 7 -5t7 5
q5 -5 10 -6t10 -1v-66q-11 -5 -14 -10t-13 -10q1 -1 1.5 -2t1.5 -2q4 -4 4 -10h-7l-33 -26l-47 26q0 -5 -3.5 -10t-3.5 -10q-23 -6 -42 -6q-23 0 -45 4.5t-46 8.5q-11 0 -16 6.5t-8 16.5t-4.5 21.5t-4.5 22.5q5 -26 6.5 -57t1.5 -63q0 -29 -0.5 -58t-0.5 -55q14 0 26.5 -1.5
t24.5 -1.5q11 0 22 3q3 -3 11 -3q13 0 32 4.5t30 4.5q5 0 10 4.5t10 9.5v-14h7v-13h6q0 8 6 13t12 5q10 0 10 -11q0 -5 -1 -7q0 -5 4 -10t9 -10v-6h7v-7h7q3 -11 3 -18q0 -9 -1.5 -17t-1.5 -18h-14q0 -5 3.5 -7.5t3.5 -12.5q0 -1 -5 -3t-12 -4q-6 -2 -23 -7zM117 465
q-5 20 -17.5 41.5t-22.5 51.5q-10 -20 -11.5 -36.5t-1.5 -36.5h7q5 5 5 10q0 2 -5 17q5 0 12 -4q3 -1 7 -3q5 -5 7 -14t7 -19q3 0 4 -1zM124 33q0 6 6 6q-15 15 -22 37t-18 37v-74q11 0 20 -3t14 -3zM110 252q-2 12 -3.5 19.5t-4 15.5t-7 19.5t-11.5 32.5h-7v-20h7v-40
q10 -5 15.5 -13.5t10.5 -13.5zM190 372q5 0 12.5 5t7.5 15q10 0 22.5 1.5t17.5 11.5q0 5 -1 6t-6 1v-7h-39v-6l-14 -14v-13zM97 399l-7 26h-6q-5 10 -6.5 16.5t-6.5 16.5v-40q10 -5 13 -7t13 -12zM84 638l-13 -7q10 -5 15.5 -15t10.5 -25v7q-5 10 -6.5 20t-6.5 20zM110 365
q-5 15 -6.5 17.5t-6.5 2.5l7 -20h6zM330 631v-6q5 -5 10 -6t10 -1q-5 5 -7.5 6.5t-12.5 6.5zM396 325q11 11 12.5 13t1.5 6q-1 -4 -5 -5h-9v-14zM157 691l-20 -13q2 0 3 -1l2 -2t2 -3q0 4 4 9t9 10zM314 639l5 -4q1 -2 2 -2.5t2 -1.5v7q-3 0 -4 1q1 0 -5 2q-1 0 -3 2z
M383 631l13 -13q0 5 -1.5 6.5t-11.5 6.5zM277 405v7q-4 -4 -10 -6l-2 -1h12zM383 382q1 1 2 1.5t2 1.5h-4q0 -2 -1 -3q-2 -3 -4 -3q3 0 5 3z" />
    <glyph glyph-name="G" unicode="G" horiz-adv-x="533" 
d="M255 -40q-15 5 -33 10t-35 12.5t-31 18t-21 25.5q-9 3 -11.5 7.5t-2.5 11.5q0 5 0.5 10t0.5 11h-40l-9.5 59t-4.5 54q-5 0 -6.5 3.5t-6.5 3.5v60h-20q0 12 4 26.5t4 28.5q0 8 -1 11q0 10 3 16t3 11q-5 0 -10 3t-10 3q0 25 -2.5 49t-2.5 47t5 45.5t20 45.5q11 20 17 43
t17 43l73 73q10 0 24 4t29 9q3 10 9 14.5t14 6t17.5 2.5t19.5 4q1 7 12 7q12 0 27 -6q8 -2 16.5 -5.5t17.5 -8.5l13 -7v-7q18 -5 36 -15.5t34 -25t29 -31t21 -34.5h7l10.5 -40t15.5 -40h-6q-5 -5 -6 -10t-1 -10q-35 0 -69 6t-64 21q3 10 3 22q0 14 -4.5 28.5t-11.5 29.5
q-5 5 -7 5.5t-7 0.5q-15 5 -30 6t-30 1v-7q-25 0 -39 -9t-34 -24q-20 -40 -30 -80.5t-10 -85.5l20 -80q-5 -5 -9 -10t-4 -10v-106q7 -4 10 -16.5t3 -27.5v-16l11.5 -8t7.5 -6t6.5 -7.5l8.5 -11.5q10 -5 16.5 -10t16.5 -10q3 -14 12.5 -20.5t20.5 -6.5q25 0 40 20h7
q5 5 6.5 10t6.5 10h7l26 66q5 20 6 44t1 50h-13l6 26q-17 -4 -34.5 -7t-35.5 -3q-15 0 -30 3q-3 15 -3 31q0 20 3 39.5t7 36.5q40 -5 83 -12.5t83 -7.5q11 -10 25 -10t29 -10q-3 -14 -3 -28q0 -9 0.5 -18t1.5 -17l2 -32v-10v-10.5t-1 -10.5h6q-4 -20 -4 -51q0 -20 1 -40.5
t1 -40.5q0 -25 -3.5 -48.5t-14.5 -45.5q-11 -4 -19.5 -8.5t-19.5 -4.5q-9 0 -21 6v53q-5 5 -10 6t-10 1v20h-13v-7h-6q-21 -40 -40 -80q-26 -15 -47 -18t-46 -8zM172 649q3 3 10 3t13 -1q1 6 4.5 10t7.5 7l8 -10l-1 32l-35.5 -12t-29.5 -14q-5 -5 -11 -10t-10 -13
q13 -2 17 -4.5t13 -15.5zM90 106q5 5 10 13.5t10 13.5h7l9 25t6 31q0 2 -2 10q-5 0 -6 -1t-1 -6l-6 -6q0 -5 -4.5 -6t-9.5 -1q-5 -20 -6.5 -36.5t-6.5 -36.5zM90 505q7 5 14.5 15.5t13 23t9 25t3.5 22.5q-5 -15 -10.5 -28t-16.5 -18q-5 -5 -5.5 -10.5t-0.5 -16.5h-13z
M376 565q0 15 3.5 22t3.5 18q-5 -5 -10 -11t-10 -16v-7zM70 392q5 5 9.5 13t4.5 13h-14v-26zM44 266h-7v-7h13q0 5 1 10t6 10h-13v-13z" />
    <glyph glyph-name="H" unicode="H" horiz-adv-x="534" 
d="M376 731l7 -7q0 -5 3.5 -10t3.5 -10q3 -3 6 -3q10 0 23 10t23 10q5 0 8 -3q2 -11 16 -11q7 0 15 1.5t13 1.5q9 0 9 -6q0 -39 -7 -57q-8 -18 -20 -18q-1 0 -2 0.5t-2 0.5l3 -2q1 -1 1 -3q3 -5 5 -8t2 -6h7v-14q0 -24 -2 -42.5t-12 -36.5q5 -10 10 -12.5t10 -7.5
q0 -15 -4 -25.5t-9 -20.5q-5 -20 -6 -36t-1 -31q1 -1 2 -1.5t2 -1.5q4 -3 10 -3v-40h-7q-5 -11 -6 -20t-1 -14q5 5 10 6t10 1q1 -7 1 -13v-13q0 -42 -7 -88t-7 -91q0 -36 7 -61q-3 -3 -3 -7q0 -3 1.5 -6t1.5 -7q-5 -10 -7 -16.5t-7 -16.5q-9 3 -19 3q-12 0 -24 -3t-23 -7
q-3 10 -6 16t-5.5 11.5t-4.5 13t-4 19.5q-5 -5 -7 -10t-7 -10v7l-26 60q4 11 7 21t6 19l9 29.5t4 16.5q-5 0 -9.5 3.5t-9.5 3.5q-5 17 -7 32.5t-2 31.5q0 17 1 34t1 35l-6 -6t-6 -3q-4 0 -8 9q-10 0 -30 -3.5t-30 -3.5q-25 5 -46.5 10t-46.5 10q0 -30 -3.5 -57.5t-3.5 -42.5
q10 -6 10 -22q0 -9 -3 -19.5t-7 -18.5l14 -79q-3 0 -5.5 -15.5t-5 -34.5t-5 -34.5t-4.5 -15.5q-5 0 -10 8q-1 2 -2 5.5t-2 7.5q-1 -3 -3 -11q-3 -6 -3 -17q-11 0 -19 -3t-16 -3q-5 0 -9 1t-9 5v7h-7v13q-7 0 -7 7v6q-5 5 -10 13.5t-10 13.5q-6 -2 -5 -2q-7 0 -10 8.5
t-3 19.5q0 14 5 27.5t13 13.5v13h-13q-1 1 -2 1.5t-2 2.5q-3 3 -3 9l-6 7q5 10 6.5 19.5t6.5 20.5q0 14 1 33.5t2.5 40l3 41t1.5 36.5v11.5t-1 10.5q0 7 0.5 14t0.5 15q0 55 -6 118.5t-6 123.5q0 18 1 35t3 33q7 11 11.5 16.5t8.5 9.5l113 -20q0 -61 -4 -113t-4 -106v-23.5
t1 -23.5q20 0 37.5 -1.5t34.5 -1.5t35 3q6 -6 20 -6q13 0 27.5 3t25.5 3q0 4 3 6q1 1 4 1q-3 31 -5 62t-2 61q0 29 2.5 57t10.5 53q-6 12 -6 21q0 12 6 20t13 12zM110 558h-6v-13q-10 -5 -12.5 -11.5t-7.5 -21.5h-7v-94h-6v-5q0 -4 0.5 -7t5.5 -7q5 20 9.5 47t4.5 52
q10 6 14.5 25t4.5 35zM130 678q-5 0 -10 -1t-10 -6v-16q0 -8 -1.5 -15l-4.5 -22q15 5 20 11.5t20 21.5q-5 5 -7 13.5t-7 13.5zM190 379q5 0 16 4.5t11 15.5q10 0 19.5 1.5t20.5 11.5l-7 6v-6h-40v-7q-5 -5 -9 -10t-4 -10h-7v-6zM390 578q-3 -3 -4.5 -5t-2.5 -5.5t-2.5 -10.5
t-4.5 -19l7 -6q0 10 3.5 20.5t3.5 25.5zM157 66l-4 -4q-5 -3 -9 -3v-33zM390 226h-7q0 -5 -3.5 -11t-3.5 -16q5 5 7 10.5t7 16.5zM84 611q-5 0 -6 -2.5t-1 -17.5q5 5 6 10t1 10zM104 99h-7v-16q0 3 3 6q4 4 4 10zM399 249q-2 -2 -4.5 -5t-4.5 -5h6q4 4 6 10q1 1 1 8
q-1 -4 -4 -8zM76 365q0 -6 -5 -26l6 6v28zM390 139l-7 -7q-3 -3 -7 -13q5 5 7 7.5t7 12.5z" />
    <glyph glyph-name="I" unicode="I" horiz-adv-x="222" 
d="M130 718q11 -11 20.5 -24t19.5 -23q0 -15 -3 -26.5t-3 -26.5q15 -20 20 -54.5t5 -72.5t-2.5 -73.5t-2.5 -58.5q0 -15 0.5 -31t5.5 -36q-1 -7 -1 -14v-14q0 -36 2.5 -74.5t2.5 -76.5q0 -32 -3 -62.5t-14 -57.5q-11 0 -16.5 2t-9 6.5t-6.5 10.5t-8 14q0 -5 -3.5 -6.5
t-3.5 -6.5h-40q0 -5 -3 -13.5t-3 -13.5h-20q0 11 -3.5 20.5t-3.5 19.5q10 15 19 34t14 39v7q-10 -25 -19 -36t-34 -11q-5 30 -9 63.5t-4 63.5q8 3 8 19q0 9 -2.5 19t-5.5 15q4 4 7.5 16.5t5.5 29t3 35t1 35.5q0 19 -1 34.5t-3 22.5q5 15 10 25.5l10 20.5q0 60 -6.5 120
t-6.5 120q20 5 43 10t43 10zM110 232q-5 -5 -6.5 -5.5t-6.5 -0.5q-5 -11 -6.5 -17t-6.5 -17h-14q0 5 -0.5 10t-5.5 10h-7q0 -20 1.5 -35.5t11.5 -30.5q11 25 23 48t17 38zM117 665q-5 0 -14 -3.5t-19 -3.5v-73q10 20 17.5 39t22.5 34zM104 445q-5 -5 -11 -13.5t-16 -13.5
v-39h-7v-14h7l11 31t6.5 18.5l4.5 14zM90 299q-10 -11 -13 -13t-13 -7v-33q5 5 6.5 13t6.5 13h7zM97 332v-20l7 20h-7z" />
    <glyph glyph-name="J" unicode="J" horiz-adv-x="479" 
d="M20 113h-6v6q-5 0 -6 5t-1 15l7 -6l6 6q-11 22 -11 45q0 9 1.5 19l3.5 23q15 0 29 -1t24 -6q2 0 3 1q4 1 4 6h33q13 0 13 13l20 -7q0 -3 1 -4q1 -6 6 -9q-5 -5 -5 -7t1 -2l1 -2q0 -1 -4 -2l-7 -20q7 7 7.5 10t5.5 3h14q5 -15 6 -30t1 -30q-6 -2 -6 -8q0 -5 3 -10t3 -8
q-1 -1 -3 -1q-6 0 -9.5 8.5t-5.5 19.5q-1 6 -1.5 13t-0.5 15v-2l-20 -20v-7h13v-13q5 0 6 -4t1 -9l6 -14l-6 7h-7l-13 -13l6 -7h7v-13q5 5 10 5.5t10 0.5v14l16.5 -10.5t19.5 -5.5q3 0 5.5 0.5t5.5 1.5q18 3 28.5 5t18 7t13 14.5t13.5 27.5q2 20 5.5 36.5t3.5 37.5
q0 15 -3 39q-2 -4 -2 -1q0 6 5 26.5t17 47.5q-11 11 -15 30t-4 41q0 26 3 52t3 43q0 10 -3.5 20t-3.5 20q1 7 1 13.5v14.5q0 24 -2 49t-2 49q0 21 3 41.5t14 38.5q10 0 15.5 -2.5t9 -6t7 -8.5t8.5 -10q0 5 0.5 6t5.5 1q10 5 16.5 6t16.5 1q5 5 7 6.5t7 6.5h20q0 -5 3 -10.5
t3 -16.5q-10 -10 -19.5 -20.5t-20.5 -25.5l7 -7q10 15 19 24t34 9q4 -14 7 -30t3 -31q0 -13 -3 -25q-3 -3 -3 -9t3 -13t7 -11q-8 -5 -12 -21.5t-5.5 -36t-2 -37.5t-0.5 -25q0 -10 -4.5 -16t-9.5 -11v-6q0 -40 7 -80t7 -80h-14v-38q0 -21 -2.5 -36t-10.5 -32q-3 0 -8.5 -7.5
l-12.5 -17.5l-14 -20q-8 -11 -12 -15l20.5 5.5t16.5 2.5q10 0 10 -8l-14 -14.5t-25 -24.5t-29 -23.5t-25 -10.5q-18 -5 -28.5 -8.5t-22 -6t-27 -4t-42.5 -1.5q0 4 -10 4t-25 -2t-29 -2q-12 0 -21.5 2.5t-14.5 10.5q-25 0 -39.5 15t-39.5 45l-2 6q-2 4 -2 5q-3 9 -3 16
q8 5 13 7t8 4l4 2q-1 0 -2 1q-7 1 -10 6zM366 565q5 5 6.5 5.5t6.5 0.5q0 5 3.5 10t3.5 10q5 0 10 3.5t10 3.5v-20h13q0 15 -1.5 25.5t-11.5 21.5l-25 -32.5t-15 -27.5zM286 26l14 -7q1 3 7.5 9.5l14 14l13.5 14t6 8.5q-1 1 -4 -2q-2 -2 -7 -3.5t-11 -3.5t-11.5 -4.5
t-7.5 -5.5l-20 -13q0 -5 0.5 -6t5.5 -1zM373 425l10.5 10t15.5 10v27h7v6h-7q-10 -12 -15 -19t-7.5 -12t-3 -10t-0.5 -12zM366 212q7 3 11.5 4.5t7.5 3.5t6 4.5t8 7.5v20l-13 -6q-5 -5 -10 -14t-10 -20zM386 518q10 11 13 12.5t14 1.5v26q-5 -5 -9.5 -10t-4.5 -10h-6z
M373 498h6v14q-5 0 -5.5 -0.5t-0.5 -5.5v-8zM326 551v14q-5 -5 -5 -7t5 -7z" />
    <glyph glyph-name="K" unicode="K" horiz-adv-x="561" 
d="M248 292l-33 -33q-6 0 -7.5 1t-2 3t-1 4.5t-3.5 4.5q0 -13 -13 -13q-5 -5 -6.5 -6t-6.5 -1q2 -27 3.5 -56.5t1.5 -58.5t-2.5 -55.5t-9.5 -48.5q5 -15 5 -26q0 -13 -5.5 -20t-12.5 -7h-7q0 5 -3.5 10t-3.5 10q-3 3 -8 3q-11 0 -25 -9t-23 -9q-1 0 -1.5 0.5t-1.5 0.5
q-5 11 -18 11q-2 0 -5 -0.5t-6 -0.5l-15 -3h-2q-2 0 -2 2q0 4 1 5q-2 8 -2 15.5v14.5q0 15 3 26q4 18 20 18v2q-1 1 -1 3q-5 3 -6 10q-1 1 -1 4h-6q0 25 1.5 49.5t11.5 49.5q-5 5 -10 7t-10 7q0 15 4 25.5t9 20.5q5 15 6 33.5t1 33.5q-1 1 -2 1.5t-2 1.5q-2 1 -4.5 2t-4.5 1
v40h6q5 11 6 19q1 1 1 8h-20q-1 7 -1 13.5v13.5q0 43 7 90t7 92q0 30 -6 57q3 3 3 7q0 3 -1.5 6t-1.5 7q5 10 6.5 19t6.5 14q9 -3 19 -3q12 0 24.5 3t23.5 7q2 -10 4.5 -16l5 -11.5t5 -13t4.5 -19.5q5 5 7 10t7 10l26 22v-89l-7.5 -21t-5.5 -19l-9 -30t-4 -16q5 0 10 -3.5
t10 -3.5q5 -25 5.5 -49.5t0.5 -50.5l27.5 37.5t12.5 22.5q20 25 37.5 55l35.5 60.5t37.5 59.5t42.5 51q5 5 10 7t10 7l113 -7l-67 -107t-52 -112q-5 -5 -14.5 -16.5l-19.5 -24l-19 -23.5t-14 -16q8 -5 8 -9q0 -3 -8 -11l51.5 -90t61.5 -90q5 -8 8.5 -18.5l7.5 -21.5l8 -21.5
t9 -17.5q14 0 17.5 -5.5t3.5 -13.5q0 -4 -0.5 -8t-0.5 -7h-6l40 -40q5 -22 9 -32q5 -22 5 -26v-2q-1 0 -1 1q-10 0 -16 4t-11 9q0 -5 1 -10t6 -10l-19.5 -7t-19.5 -3q-9 0 -21 3h-7l-6 7h-7l-7 7q-5 5 -14 6.5t-19 6.5q-1 -1 -4 -1q-8 0 -14 9.5t-6 18.5q0 13 11 13l-7 6
h-13q-7 0 -7 7h-13q0 5 3.5 13.5t3.5 13.5q-5 10 -10.5 23.5l-11.5 28t-12 27t-13 20.5l-24 47.5t-29 52.5zM381 611h-7l-6 -6q-21 -10 -40 -20h-7l-40 -60h-7q0 -8 -1 -9q0 -2 -1 -3q22 10 36 27q8 9 14.5 18.5t11.5 19.5q15 0 28.5 11.5t18.5 21.5zM308 312h-14l7 -7
q-10 -5 -11.5 -10t-1.5 -10h-7l27 -53l-7 -6q5 0 6.5 -3.5t6.5 -3.5q3 7 3 16q0 11 -4.5 22t-11.5 22q11 0 11 16q0 10 -4 17zM461 691q-11 0 -16.5 -3.5t-10.5 -3.5l-33 -33q19 5 29.5 11t30.5 16v13zM301 379l-7 -7l-13 -27q18 9 27 27zM141 126q5 5 7 11t7 35h-7
q0 -10 -3.5 -20.5t-3.5 -25.5zM241 305h-7q-5 0 -7 -1t-6 -5q-5 -5 -12.5 -10t-7.5 -10zM507 39q-5 0 -6.5 -3t-6.5 -3q0 -5 1 -10t6 -10zM141 478h7q0 5 3.5 11t3.5 16q-5 -5 -7 -8.5t-7 -18.5zM268 505q-5 -5 -10 -14t-10 -19l7 6q5 5 9 13.5t4 13.5zM321 199q1 -7 7 -13
h6q-4 9 -10 15l-8 8q4 -6 5 -10zM141 565l7 7q2 2 7 13q-5 0 -7 -2.5t-7 -17.5zM132 453q5 5 9 5l-6 7q-4 -4 -6 -11q-1 -1 -1 -10zM434 53l-7 -7l7 -7v14zM367 643l-1 -1q4 2 5 3z" />
    <glyph glyph-name="L" unicode="L" horiz-adv-x="474" 
d="M145 -8q-7 -3 -13 -6t-12 -3q-7 0 -16 6v6q0 5 -4 6q-1 1 -3 1v7h-7q0 -23 -22 -23q-8 0 -18 3q-2 -1 -3.5 -1t-1.5 6q0 4 0.5 9t0.5 10q0 7 -1.5 13.5t-7.5 8.5q0 5 3.5 14t3.5 19v20h-7q0 5 -1 6t-6 1q5 5 7 5t3 -1.5t4 -3.5q5 8 8.5 15t7.5 7q2 0 4 -2v13l-14 7
q-1 1 -1.5 2t-1.5 2q-3 3 -3 9h-7q5 10 6.5 23t6.5 24q0 11 1.5 27t4 34.5t4 37t1.5 34.5q0 24 -4 33q2 17 3 35t1 38q0 54 -4 109.5t-4 106.5q0 19 1 36.5t3 33.5q5 0 6.5 4t6.5 9l107 -13q0 -47 1.5 -90.5t4 -85.5t6 -85.5t8.5 -90.5q1 -3 1 -18q0 -13 -1.5 -28.5
l-3 -30.5t-2.5 -28t-1 -22q11 -14 11 -23q0 -6 -1 -7l-10 -30h-7l14 -79q5 5 10.5 9t15.5 4q23 0 47.5 5.5t48.5 5.5q19 0 31 -4q0 -5 3 -10t3 -10q7 4 13 7t11 6q9 5 18 9t11 4l34 -26v-7l-7 -7q10 -5 16.5 -12.5t16.5 -7.5q-5 -12 -5.5 -25.5t-0.5 -26.5v-14q-5 0 -7 -3.5
t-7 -3.5q-4 0 -7 1.5t-6 1.5q-4 0 -7 -3q-15 5 -33 5q-26 0 -52 -6t-51 -6q-12 0 -17 1v20l-4 -4q-3 -3 -9 -3l-6 -7h-20q0 5 -1 7t-6 7q-5 0 -14 -3.5t-19 -3.5q-11 -5 -14 -9t-13 -4q-2 2 -3.5 4t-2.5 3l-1 1v-2q-11 0 -18 -3zM124 567h-7v-20q-10 0 -16 -8t-11 -18h-6
v-94h-7q5 -5 6 -9.5t1 -9.5q10 20 15 47t5 52q9 0 14.5 20t5.5 40zM143 687q-5 0 -9.5 -3.5t-9.5 -3.5v-16q0 -8 -1 -15.5t-6 -21.5q15 5 20 11.5t20 21.5q-5 5 -7 11t-7 16zM172 69q-1 -1 -9 -1q0 -10 -3 -19t-3 -14q1 -4 4 -4q4 0 8 16q1 9 6 23q-2 -1 -3 -1v0zM170 15
q0 6 -7 13v-19q2 0 3 1q4 1 4 5zM303 68q5 0 10 3.5t10 3.5l-7 7q0 -5 -4 -7t-9 -7zM330 82l13 13q-5 0 -7.5 -3.5t-12.5 -3.5zM117 108l-7 -6v-10q0 3 3 6q4 4 4 10zM383 82q5 5 6 6.5t1 6.5q-5 -5 -6 -6.5t-1 -6.5z" />
    <glyph glyph-name="M" unicode="M" horiz-adv-x="716" 
d="M112 0q-4 4 -13 4q-11 0 -26.5 -4t-26.5 -4q-9 0 -13 4q0 14 6.5 26t6.5 27q-7 14 -9.5 36.5t-2.5 49.5t2 57l4 58t4 52t2 39t-1 30t-6 30q1 14 1.5 28t0.5 28q0 32 -1.5 66t-1.5 68q0 35 3 67.5t11 61.5q15 0 22 -12.5t12 -27.5q0 5 0.5 7t5.5 7q5 0 14 3t20 3
q0 5 0.5 10t5.5 10h14q0 -2 4.5 -3.5t10.5 -2.5t12.5 -2.5t11.5 -4.5v7q20 -5 37 -7t37 -7q10 -55 16.5 -117t16.5 -122l20 -40q2 -11 6.5 -38t11 -56t13.5 -53.5t15 -31.5v-14q2 17 6 34t11 33q7 19 11 34t6 26q0 15 4 30t9 29q7 34 13.5 74.5t15.5 81.5t21 79.5t30 70.5
q15 -5 17.5 -15t2.5 -25q5 5 5.5 7t0.5 7h34q5 5 6.5 10t6.5 10h13v-27q5 10 13.5 20t13.5 20l36.5 -9t36.5 -4q0 -66 -6.5 -126.5t-6.5 -126.5q5 -10 6.5 -21t6.5 -26q0 -8 -1 -29.5t-1 -47.5q0 -34 3 -64t12 -38q-2 -6 -5 -16.5t-3 -19.5q0 -14 8 -17q0 -30 -4 -64t-9 -69
q-15 0 -22.5 13t-17.5 33l-7 -6q11 -20 20 -39.5t14 -34.5q0 -10 -3.5 -19.5t-3.5 -19.5h-13q0 5 -4.5 13t-9.5 13h-26q0 5 -1 6.5t-6 6.5q-5 -14 -11.5 -23.5t-21.5 -9.5q-8 26 -11 57t-3 64q0 48 3.5 97.5t3.5 94.5q0 15 1 30t6 30q3 34 3 63q0 35 -3 60.5t-7 42.5v-13
q-7 0 -10 -11.5t-3 -22.5v-13q-8 -8 -16.5 -32t-16 -52.5t-13 -55.5t-7.5 -40l-10 -19.5l-10 -19.5q-15 -60 -26.5 -123t-26.5 -123q-11 0 -20.5 -1t-19.5 -6h-27q-5 5 -6 10t-1 10h-20q-5 0 -5.5 4t-0.5 9q-5 -15 -8.5 -27.5t-18.5 -12.5q-15 30 -24.5 67.5t-16.5 78
t-12.5 81.5t-12.5 79v60q-8 23 -17 57t-17 69q-5 20 -6 40q-3 -3 -3 -14q0 -10 1.5 -20t1.5 -12q-4 -8 -6.5 -24.5t-4 -37.5t-2 -43.5t-0.5 -41.5v-40q0 -10 -4.5 -20.5t-9.5 -25.5q0 -30 2 -50.5t5 -40t5 -41.5t2 -54q-10 0 -17 -7.5t-12.5 -17t-11.5 -18t-13 -10.5zM99 26
q5 3 11 10.5t12 16t12.5 14.5t11.5 6l6 66q-5 -8 -12 -23l-14.5 -31l-14.5 -30.5t-12 -21.5v-7zM604 678v-7q11 -15 17 -36.5t17 -36.5v73q-11 0 -17 3.5t-17 3.5zM106 472q5 5 6.5 5.5t6.5 0.5q0 11 3.5 20t3.5 14q5 5 10 5.5t10 0.5v-26h6q0 20 -1.5 39t-11.5 34
q-10 -30 -19 -51.5t-14 -41.5zM626 193l18 -54q11 20 12.5 36.5t1.5 36.5h-7v-20q-3 -3 -7 -3q-3 0 -6 1.5t-7 1.5q0 5 -3.5 14t-3.5 20q-2 0 -3 1q-3 0 -3 1q0 -9 8 -35zM365 39q5 5 13.5 6t13.5 1l20 73q-11 -10 -17 -23t-17 -23v-7h-6q0 -5 -4 -9q-1 -1 -1.5 -2t-1.5 -2
v-14zM478 478h13q0 11 4.5 20t9.5 14q0 5 4 5.5t9 0.5q0 -10 -3.5 -15.5t-3.5 -10.5h7l9 36.5t4 36.5l-34 -51l-12 -19.5t-7 -16.5zM338 146v13q3 10 3 20t-1.5 20t-1.5 20h-6v-27h-14q-5 11 -6.5 17t-6.5 17q-5 0 -6.5 0.5t-6.5 5.5q5 -15 18 -35.5t28 -50.5zM205 665v-7
q15 -15 22.5 -33.5t17.5 -33.5l-13 67q-5 0 -13.5 3.5t-13.5 3.5zM425 259q10 5 15.5 15.5t10.5 10.5l14 40h6l7 14l-7 6l-19 -31.5l-11.5 -19.5t-7.5 -15.5zM259 445q3 -15 6 -23.5t11 -25.5l16 -31h7v14q-5 0 -6 0.5t-1 5.5l-13 33q-5 5 -10 13.5t-10 13.5zM618 452
q2 -10 3.5 -16.5l3.5 -14.5l5 -21l8 -35h6v16l-1 -1l-5 5v40q-5 5 -10 13.5t-10 13.5zM132 285v40h7v14h-7q-5 -20 -7.5 -31.5l-4.5 -20t-3.5 -16t-4.5 -18.5q10 22 20 32zM126 405l20 20v34q-1 -4 -2 -7.5t-2 -5.5q-3 -9 -3 -14h-7zM631 305l7 -26h6q0 -10 1 -19t6 -14v39
q-5 0 -7.5 2.5t-12.5 17.5zM471 405q15 15 18.5 17.5t8.5 2.5l13 33q-5 -5 -10 -13t-10 -13h-6zM292 305l13 -26h7q5 -10 6.5 -16.5t6.5 -16.5l-7 39q-5 0 -8 2.5t-18 17.5zM166 671h-6q0 -2 -0.5 -3t-0.5 -3q0 -5 2.5 -9.5t9.5 -4.5l-2 10q-1 1 -1 2.5t-1 3.5zM173 621
q1 -15 6 -30v20l-4 14q-2 10 -3 13v-8zM279 332q5 -10 6.5 -11.5t6.5 -1.5l-7 13h-6zM438 452q4 4 6 12q1 1 1 8q-5 -5 -6 -7.5t-1 -12.5zM584 259q-5 -10 -5 -12q0 -3 5 -8v20zM338 86v7q0 5 -0.5 6.5t-5.5 6.5v-7zM112 372h7v13zM458 379l7 6v7zM618 332l6 -13v13h-6z
M259 239v-1v1z" />
    <glyph glyph-name="N" unicode="N" horiz-adv-x="569" 
d="M159 -20l-7 6q-5 5 -5.5 10t-0.5 10q-1 1 -6 1q-10 0 -23 -8.5t-24 -8.5q-4 0 -7 3q-3 9 -13 9q-8 0 -16.5 -3t-14.5 -3q-9 0 -9 10q-1 6 -1.5 12t-0.5 12q0 20 6 32q7 18 23 18v2q-1 1 -1 4h-6v13h-7q0 26 1.5 49.5t11.5 43.5q-9 11 -20 20q0 15 4.5 26t9.5 21
q0 15 3 33t3 33q-3 0 -4 1q-6 1 -9 6v33l7 7q4 7 6.5 13t2.5 10t-3 4q-5 0 -10 -1t-10 -6q-1 5 -1 10v10q0 46 7 95t7 94q0 31 -6 57q3 6 3 11t-1.5 8t-1.5 7q5 11 6 16.5t1 10.5q15 0 36.5 4t36.5 9q0 -10 2 -15.5t4.5 -10t4.5 -9t2 -11.5l10 20.5t10 25.5q15 -5 33.5 -6.5
t33.5 -6.5q20 -55 36.5 -117t36.5 -122q5 -11 10.5 -20.5t15.5 -19.5q3 -12 11 -39t17.5 -56t20 -53.5t18.5 -31.5q5 -5 6.5 -17t6.5 -23q-5 35 -6.5 66.5t-6.5 66.5q0 13 1 31.5l2 38t2 36.5t1 27q-10 6 -10 20q0 10 4 20.5t6 19.5h7l-13 80l6 52q2 19 4 33.5t3 14.5
q5 0 9 -8.5t4 -18.5q5 10 6 16t1 11q10 3 18 7t17 4q8 0 18 -5v-6h7v-14q2 0 3 -1q4 -1 4 -5v-7q5 -5 10.5 -13t15.5 -13q1 1 4 1q5 0 6.5 -7.5t1.5 -18.5q0 -14 -3.5 -28t-8.5 -14q-5 -5 -6 -6.5t-1 -6.5h20v-14q2 0 3 -1q4 -1 4 -5q-5 -11 -6.5 -21.5t-6.5 -25.5
q0 -12 -1.5 -29t-3 -36.5l-3 -38.5t-1.5 -35v-15t2 -12q-1 -13 -1.5 -26.5t-0.5 -28.5q0 -51 3 -107t3 -108q0 -23 -1 -43.5t-3 -38.5q0 -6 -4 -10q-1 -1 -1.5 -2t-1.5 -2l-106 14v19h-13q-5 5 -6 7t-1 7q-5 -15 -7.5 -25t-12.5 -15q-20 32 -35.5 69.5t-29 77.5t-25 80.5
t-23.5 78.5q-5 15 -9 30t-4 30l-26.5 65.5t-26.5 80.5q1 -11 1.5 -21t0.5 -20q0 -42 -4.5 -82.5t-4.5 -76.5t2 -77t2 -81q0 -32 -2.5 -61t-8.5 -53q5 -12 5 -22q0 -12 -5.5 -20.5t-12.5 -10.5zM458 152h7v14q10 5 15 11.5t5 21.5l7 -7v100h13q-5 5 -6 10t-1 10
q-10 -20 -15 -47t-5 -53q-5 -2 -8.5 -9t-6 -16t-4 -18.5t-1.5 -16.5zM332 239l25.5 -36t34.5 -44q0 15 -4.5 33.5t-9.5 33.5h-6q0 -5 3 -10t3 -10q-4 -4 -7 -4q-1 0 -1 0.5t-1 0.5q-1 1 -2 1.5t-2 1.5q-5 5 -10 14t-10 19h-13zM179 671v-6q15 -15 29 -33.5t24 -33.5l-20 67
q-10 0 -16.5 3t-16.5 3zM445 33q3 0 4 1q6 2 9 5v16q0 9 1 16.5t6 21.5q-5 -5 -10 -7t-10 -7t-6.5 -10t-6.5 -10q0 -5 4 -10t9 -10v-6zM265 458q5 -12 8.5 -19.5t8 -15.5l11.5 -19.5l19 -31.5l7 7l-7 13q0 -2 -1 -3l-1 -1q-1 0 -5 4l-13 40q-5 0 -10.5 8t-16.5 18zM325 312
l14 -27h6q5 -10 10 -15.5l10 -10.5l-13 33q-5 0 -8.5 2.5t-18.5 17.5zM166 558q0 -11 -4 -18q-1 -2 -1.5 -4t-1.5 -4q5 0 10 -3.5t10 -3.5q-5 10 -6.5 16.5t-6.5 16.5zM412 645q3 0 4 1l4 2q1 1 5 3v33zM146 133q2 2 3.5 4t2.5 5.5t2.5 10.5t4.5 19h-7q0 -5 -3 -17t-3 -22z
M146 485l6 -7q0 11 3.5 16.5t3.5 10.5q-10 0 -11.5 -5t-1.5 -15zM495 342q3 13 3 23h-6v-37q0 6 3 14zM136 457q3 2 5.5 4t4.5 4l-7 7q-4 -4 -6 -11q-1 -1 -1 -11q1 4 4 7zM146 571q5 5 6.5 7.5t6.5 12.5q-10 -5 -11.5 -7t-1.5 -13zM405 86v7q0 5 -4 10.5t-9 15.5v-6z
M305 339q5 -11 7 -12.5t7 -1.5l-7 14h-7zM465 611h7v17q-1 -2 -2 -3.5t-2 -3.5q-3 -5 -3 -10zM485 99q5 0 6 2.5t1 14.5q-1 -2 -2 -3.5t-2 -3.5q-3 -5 -3 -10z" />
    <glyph glyph-name="O" unicode="O" 
d="M238 -31q-15 19 -28.5 22t-25.5 4.5t-22 9.5t-17 37l-7 7v-20q-30 5 -49.5 21.5t-29.5 51.5q-7 0 -11.5 11.5t-7 31t-3.5 43.5t-1 50q0 44 1.5 83.5t1.5 53.5q8 14 10.5 21t2.5 18v20q-10 5 -16 10t-11 10q0 11 4.5 17t9.5 17q2 25 14.5 56.5t30 62t37.5 56t37 37.5
q4 -4 7.5 -6.5t8.5 -2.5t11 3q0 13 1.5 18.5t5 7.5t10 3t16.5 4v-20q5 0 6.5 -1t6.5 -6q5 20 12 27.5t22 12.5v-20l13 -6q10 5 11.5 8t1.5 18h20q0 -10 1.5 -12.5t12.5 -7.5q9 9 19 9q11 0 22 -9t21 -21t18 -25t13 -20q12 -8 20.5 -14.5t14.5 -14t11.5 -16.5t12.5 -22
q8 0 10.5 -7.5t2.5 -19.5q0 -10 -1 -22t-1 -25q0 -17 4.5 -31.5t18.5 -20.5q-3 -14 -3 -22q0 -11 2.5 -21t6.5 -24v-99q-4 0 -5 -4q-1 -1 -1 -3q-3 -32 -4.5 -49.5t-2.5 -26t-2.5 -11.5t-4.5 -6q2 0 3 -1q4 -1 4 -6v-73h-13l-13 -24l-9 -16.5t-9.5 -16l-15.5 -23.5
q-9 -4 -22 -10.5l-27 -13t-28.5 -11t-26.5 -4.5q-13 0 -22 6q-5 -5 -10 -14t-10 -19q-10 5 -16.5 10t-16.5 10q0 -5 -11 -10t-16 -10zM266 83q6 6 16 6h16l7 13h6v13h14q0 10 6 19t14 17l15 15q8 8 11 16q0 6 7 6q0 15 -3.5 31t-3.5 36q5 15 6.5 30t6.5 30q-6 27 -6 53
t3 51.5t3 48.5q-5 25 -10 45.5l-10 40.5l-9 9q-2 1 -2.5 2t-1.5 2l-40 27q-24 12 -46 12q-17 0 -33 -6.5t-34 -18.5q0 -42 -8 -83.5t-18 -83.5q0 -15 3 -33t3 -33q5 0 6 -1t1 -6q-11 -28 -15.5 -53.5t-4.5 -51.5q0 -20 2 -42t5 -46h6q5 -10 6 -23t1 -23h13v13h7v20h20
q0 -5 3 -6.5t3 -6.5h7q0 -10 1 -16.5t6 -16.5h2q4 0 5 -2l6 -12zM125 461q0 15 5 26.5t15 26.5h13q0 5 4.5 13.5t9.5 13.5q-5 5 -7 5.5t-7 0.5v34q-8 -8 -10.5 -12.5t-2.5 -12.5v-15l-15.5 -28t-9 -17.5t-5 -15t-3.5 -19.5h13zM85 102q5 5 10 9t10 4q5 20 6.5 36t6.5 31
q-10 0 -14 -1.5t-19 -12.5v-66zM438 375l15.5 23.5t9 16.5t6.5 18l8 28h-6v-13l-13 6q0 -15 -4.5 -30t-9.5 -30h-6v-19zM429 120q-9 -15 -11 -41q5 8 10 14.5t9 12.5q14 20 14 49l-10.5 -16.5zM451 198q-1 -8 -2 -14.5t-3 -13.5q4 9 6 15q5 14 7 23t5 27q-10 -13 -13 -37z
M145 408v20q-5 0 -6.5 -2.5t-6.5 -17.5h13zM404 62q3 4 6 7t5 7l-11 6v-20zM391 394l-7 7v-33zM311 29q11 10 12.5 12.5t1.5 7.5q-5 0 -7 -5t-7 -15zM451 301q2 2 3.5 4t2.5 3t1 10q-1 -2 -2 -3.5t-2 -3.5q-3 -5 -3 -10zM364 122q1 4 5 8q-4 -2 -5 -3q-6 -3 -6 -5h6z
M398 148q-1 0 -1 -1q-1 -1 -1 -1.5t-1 -1.5h1z" />
    <glyph glyph-name="P" unicode="P" horiz-adv-x="505" 
d="M211 112l-20 -20q0 -3 -2 -10.5l-4.5 -16.5l-4.5 -16.5t-2 -9.5l13 -20l7 -34h-14v-6q-5 -1 -9 -1.5t-6 -0.5q-17 0 -30.5 5t-27.5 5q-3 0 -13 -2q-5 5 -14 7t-19 4t-19 5t-14 11q0 7 4 14.5t9 15t9 15t4 15.5q-10 16 -13 39.5t-3 50.5q0 42 4.5 86.5t4.5 76.5v14
q0 13 -1 26.5t-5 25.5q0 8 0.5 16.5t0.5 16.5q0 40 -2.5 81t-2.5 81q0 35 3 68.5t14 62.5q10 0 15.5 -2.5t9.5 -6.5t7 -10.5t8 -13.5q1 1 1.5 2t1.5 2q4 4 4 9h40q0 5 3 13.5t3 13.5h20q0 -11 3.5 -14t3.5 -13h6q8 0 12 -1.5t8 -1.5t7 3q0 15 6 15t21 5v-13h13
q5 10 8.5 12.5t18.5 7.5v-14h6q11 0 13 1.5t7 12.5h13q0 -5 1.5 -12.5t12.5 -7.5q4 4 14 4q13 0 26.5 -9.5t24.5 -20.5l15 -14q5 -2 9 -4l8 -4l14 -4q6 -2 11.5 -6.5t10.5 -14.5q10 0 11.5 -10.5t2.5 -24.5t4 -27t15 -18q0 -10 -3 -18t-3 -16q0 -7 6 -13v-100h-7
q-5 -17 -8.5 -24t-5.5 -7q-1 0 -1 1q-3 2 -5 10q-10 -20 -20.5 -32t-25.5 -27q-1 -1 -3 -1q-3 0 -5.5 5.5t-5 12t-5 12t-5.5 5.5q-1 0 -1.5 -0.5t-1.5 -0.5q3 -5 3 -10t-2.5 -12t-5.5 -13q-3 -5 -6.5 -11.5t-8.5 -13.5l-46 -13q-17 4 -40 4q-10 0 -20 -1t-20 -3l-53 13v-33
q-5 -15 -9.5 -25.5t-4.5 -21.5v-53h14q0 -11 0.5 -23.5t5.5 -23.5zM198 384q6 0 20 -1t30 -1h15.5t14.5 2q5 -5 6.5 -5.5t6.5 -0.5q0 5 1 5.5t12 0.5v20h7l6 7h14v-13h6l7 -7h7q0 10 3 16t3 11h7v-7h7l5 12q0 2 -1.5 3.5t-3.5 4.5q-4 -4 -6 -10l-1 -3v20q-1 -1 -2 -1t-2 3
q-5 3 -9 18h6q0 10 3.5 19.5t3.5 20.5q-10 20 -18.5 43.5t-8.5 49.5q-21 8 -49 21t-55 13q-12 0 -15 -1v-13q-5 -5 -7.5 -7t-12.5 -7q0 -10 -4.5 -19.5l-9.5 -20.5q0 -5 4 -12t9.5 -14.5t9.5 -14.5t4 -12q-8 0 -8 -18q0 -8 2 -17t6 -11q-5 -11 -9 -29.5t-4 -44.5zM165 305
v13h-7q-8 -20 -12 -31t-6.5 -19.5t-4 -16t-4.5 -19.5q5 5 11 13t16 13v47h7zM357 531h14q0 5 4 13t9 13q3 3 7 3h2q1 -1 2 -1.5t2 -1.5q5 5 7 10t7 10h-14v27q-5 -8 -5.5 -11t-0.5 -8v-8l-16 -16q-8 -8 -10.5 -13.5zM411 411q12 3 20 11t12 18t5.5 20t1.5 18q-2 -2 -8.5 -12
t-13.5 -22t-12 -22.5zM145 384q10 15 13 17.5t13 2.5v47q-5 -10 -6.5 -20t-6.5 -20h-7zM184 604l7 7q0 5 1 14t6 19q-11 0 -13 -1t-7 -6v-6q0 -5 0.5 -12t5.5 -15zM404 378q10 7 17.5 8.5t12.5 2t7.5 3t2.5 12.5q-9 0 -19 -3.5t-16 -12.5l-5 -4v-6zM431 478l11 15.5t7 10.5
l6.5 11t8.5 16h-7v-7h-7q0 -5 -4 -14t-9 -19q0 5 -1 5l-5 -5v-13zM145 491h-7q-5 -10 -9 -16.5t-4 -16.5q5 5 9 6.5t4 6.5t3.5 10t3.5 10zM131 351h7l7 20q-5 0 -7 -2.5t-7 -17.5zM384 478l7 20h-7v-20zM178 484h-7v-6h7v6zM444 404q5 0 5.5 1.5t0.5 9.5l-1 -3l-2 -4l-2 -2z
" />
    <glyph glyph-name="Q" unicode="Q" horiz-adv-x="576" 
d="M494 -106q-15 0 -30 4.5t-30 9.5q-5 5 -12 16.5l-14 23.5t-12.5 23t-8.5 16l-16 6l-13 4q-2 -8 -4 -10.5t-5 -3t-8 -0.5t-14 -2q0 5 -0.5 10t-5.5 10h-14q-2 -10 -3.5 -15.5t-4 -8.5t-7 -5t-11.5 -4v19l-13 7q-11 -10 -13 -13t-7 -13h-14q-5 10 -6.5 12t-6.5 7
q-11 -11 -23 -11t-24 9t-22.5 21.5t-18.5 26t-12 21.5q-25 10 -34 22.5t-19 37.5q-11 2 -14.5 12t-3.5 24q0 11 1 24t1 26q0 16 -3 28.5t-14 18.5q0 20 -1.5 32.5t-11.5 27.5v106q5 0 6.5 1t6.5 6q2 30 3 46.5t2.5 24.5t3 10.5t4.5 4.5q-5 0 -6.5 3.5t-6.5 3.5l6 73h7
q7 18 11.5 28t9 18t10.5 16.5l16 23.5q10 4 23 10.5t27.5 13t29.5 11t29 4.5q9 0 24 -5q5 5 10 13t10 13q17 0 26 -20q0 11 11 15.5t16 4.5q11 -13 21.5 -17.5t20 -5.5t17.5 -0.5t14.5 -3.5t11.5 -14t8 -32h13v13q30 0 49 -18t24 -48q7 0 12 -14.5t8 -38t4.5 -53t1.5 -58.5
q0 -38 -2 -70.5t-4 -44.5q-2 -8 -3 -12.5t-2.5 -10t-3 -14t-4.5 -23.5q10 -5 16.5 -7t16.5 -7l-10 -19.5l-10 -19.5q0 -26 -14.5 -62.5t-34.5 -70.5q2 -5 4.5 -10t4.5 -10q18 -28 28 -39t18.5 -17.5t19 -16t28.5 -34.5q-15 -15 -32.5 -30t-27.5 -30zM288 626q-7 -4 -12 -5.5
t-16 -1.5h-19v-13q0 -4 -2 -4q-1 0 -1 0.5t-1 0.5l-3 3l-40 -20h-6q-5 -15 -7 -33.5t-7 -33.5h-13q5 -20 6 -35.5t1 -30.5t-3.5 -33.5t-3.5 -33.5q4 -15 4 -36q0 -28 -5 -57.5t-5 -58.5q5 -20 9.5 -40t9.5 -40l20 -20l34 -27q11 -3 21 -5t20 -2q18 0 35 6.5t37 20.5
q5 40 13 83t13 83q0 15 -0.5 31t-5.5 36h-7q14 31 18 56.5t4 51.5q0 20 -1 42.5t-1 48.5h-7q-5 11 -6.5 20.5t-6.5 19.5h-7v-6h-13v-20h-20v13h-7q-5 5 -5.5 14t-0.5 19q-10 0 -11.5 1t-1.5 6zM421 247l-10 -29t-10 -24h-20q0 -11 -3.5 -17t-3.5 -17h7q0 -10 3 -19.5
t3 -20.5q2 2 2.5 4t1.5 4l2 7q1 1 1 9v16l15.5 31.5t9 20t5 16t3.5 19.5h-6zM494 -32l-40 59q0 -16 4 -31t4 -31q0 -5 -0.5 -8.5t-1.5 -8.5q0 -7 7 -7zM454 599q-5 -5 -10 -6.5t-10 -6.5q0 -15 -1 -30t-6 -30q8 -5 11 -5q4 0 16 12v66zM135 639l-17.5 -21.5t-12.5 -19.5
t-7.5 -22t-2.5 -30q10 20 21.5 40t11.5 40h7v13zM108 333l-16 -27l-10.5 -18t-9 -17l-11.5 -24q5 0 7 -3.5t7 -3.5v13h6q5 15 7 27t7 27h3q2 0 2.5 0.5t0.5 5.5zM95 546l-11 -32t-3 -22v-19q8 8 11 23.5t3 30.5v19zM115 307h13q0 10 -3.5 16.5t-3.5 16.5zM147 569q1 2 1 16
q-2 -6 -7 -6q-5 -10 -5 -13q0 -5 5 -13q1 2 2 5.5t2 5.5zM401 300l-7 -20q5 0 6.5 2.5t6.5 17.5h-6zM88 406q-5 -5 -6 -7t-1 -13q5 5 6 7.5t1 12.5zM228 672q-5 -5 -6 -7t-1 -9q0 3 3 6q4 4 4 10z" />
    <glyph glyph-name="R" unicode="R" horiz-adv-x="561" 
d="M404 -33q-10 10 -16.5 15.5t-16.5 10.5q0 10 1 20t6 20q-13 8 -17.5 28.5t-4.5 45.5q0 17 1.5 35t4 34.5t5 29.5t4.5 20q-2 3 -9 10l-11 10q-5 5 -9 10t-4 10q4 9 4 23l-11 -3q-12 2 -23.5 3t-22.5 1q-24 0 -40 -4l-54 20v-40q-5 -11 -9 -21.5t-4 -25.5v-53h13
q0 -10 3.5 -23t3.5 -24h7q-11 -14 -13 -20t-7 -6q0 -5 -4.5 -18t-4.5 -24q0 -7 2 -11l13 -20l7 -34h-20v-6q-20 0 -36.5 4t-32.5 4q-5 0 -8.5 -0.5t-8.5 -1.5q-5 7 -13.5 10.5t-17 5.5l-16.5 4t-13 7q0 15 10.5 30t15.5 30q-11 15 -15.5 37.5t-4.5 48.5q0 22 2 46t5 46
t5 41.5t2 33.5q-5 20 -6 35.5t-1 30.5q0 45 -3 91.5t-3 94.5q0 39 4 75t15 65q15 0 22.5 -9t17.5 -24v13h40q5 10 6.5 16t6.5 11h14q4 -11 6 -14t7 -13l7 7q5 0 10 -3.5t10 -3.5q2 7 3.5 10t4 4t6.5 2t12 4q0 -5 3.5 -6.5t3.5 -6.5h7q10 10 14 15t19 5l-7 -14h13l14 14h13
q5 -5 6.5 -12.5t6.5 -7.5q7 4 17 4q11 0 21.5 -5.5t19 -12.5t14.5 -14.5t8 -11.5l20 -5t13.5 -4t10 -6.5t9.5 -11.5q13 -2 15 -13.5t2.5 -26t4 -28t18.5 -18.5q0 -12 -4 -21.5t-4 -17.5q0 -4 2 -8v-100h-7q-3 -18 -5 -22.5t-4 -4.5q-2 1 -4 7q-9 -12 -16.5 -21t-15.5 -17
q3 -8 7.5 -14l8 -11t6.5 -10.5t3 -12.5q-2 -2 -2 -3q0 -2 7.5 -5.5t16.5 -8.5l1 -1q-13 -18 -22.5 -32.5t-13.5 -22.5q1 1 2 1.5t2 1.5q4 4 9 4q0 5 3.5 9.5t3.5 9.5h20v-13h6q0 5 0.5 10.5t1.5 10.5v2q0 7 -4 16l14 -6q12 -5 15 -6q-8 -5 -12 -20.5t-6 -33.5t-2 -35v-24
q-5 -5 -10 -11t-10 -16q0 -16 8.5 -31.5t18.5 -30.5t18.5 -30.5t8.5 -31.5q0 -2 -0.5 -4.5t-0.5 -4.5q-10 -3 -28 -6.5l-38 -7.5t-38.5 -7t-28.5 -5zM191 385q5 0 14.5 -1t20.5 -1q12 0 25.5 2t26.5 7v-7q2 0 3 -1q3 -3 3 -5q5 5 7 5.5t7 0.5q0 5 0.5 10t5.5 10h7v7h20v-13
h7v-7h6q5 10 6 16t1 11h7q0 10 3 15q2 4 3 5q-5 0 -7 2.5t-13 17.5h7q5 10 6 19.5t1 20.5q-5 25 -13.5 49t-13.5 44q-20 11 -46 23.5t-52 12.5q-12 0 -22 -3v-13q-1 -1 -2 -1.5t-2 -2.5q-2 -2 -4.5 -5t-4.5 -5q-10 -19 -20 -40q5 -10 16 -23t11 -23q-6 -5 -6 -15
q0 -9 3 -19.5t3 -18.5q-5 -11 -9.5 -29.5t-4.5 -44.5zM165 312l-7 7h-7l-11 -31.5t-6 -19.5l-4 -15.5l-5 -19.5q10 10 13 19t13 14v40h14v6zM404 412q12 3 20 11t13 18t8 20t6 18q-5 -3 -13 -12t-15.5 -19.5t-13 -20.5t-5.5 -15zM358 532h6q5 10 10 16.5t10 16.5h14
q0 5 0.5 6.5t5.5 6.5q-6 0 -6 7q0 5 -1 10t-6 10q-5 -5 -6 -8.5t-1 -18.5l-12.5 -15.5t-6.5 -10t-3.5 -9t-3.5 -11.5zM417 0h34v46q-11 -10 -18 -22.5t-22 -17.5zM138 385l27 27v36q-2 -10 -5 -13q-2 -4 -4.5 -7.5t-4.5 -8.5h-6zM178 605l7 7q0 10 3 16.5t3 16.5h-20
q0 -10 3.5 -20t3.5 -20zM431 485l11 11q5 5 8 9.5t6 10.5l8 16h-7v-7h-13q0 -5 -3.5 -13t-3.5 -13h-6v-14zM398 379q10 7 17 8.5t12 2t7.5 3.5t2.5 12q-3 0 -13 -2q-13 -4 -13 -11h-13v-13zM378 40q10 5 13 12.5t13 7.5v25q-2 -4 -4.5 -6.5l-4.5 -4.5q-8 -11 -11 -17t-6 -17
zM344 306q11 10 14 11.5t13 1.5v27q-5 -5 -9 -10t-4 -10h-7zM138 492h-6q-4 -4 -6 -14q-1 -3 -1 -17q3 11 13 11v20zM384 479l7 20h-13q0 -5 0.5 -10t5.5 -10zM125 359h13v13q-5 0 -6.5 -1.5t-6.5 -11.5zM417 86v7h-6q-3 -4 -7 -7h13zM358 412q6 0 6 7q5 5 5 6q0 2 -1.5 3
t-3.5 4q0 -5 -0.5 -10t-5.5 -10zM211 485q0 10 5 10q2 0 2 -3v-7h-7zM444 206h7v13zM105 20q0 5 -4 6q-3 1 -3 4v-10h7zM171 485h-6v-6h6v6zM491 286q3 -4 4 -8q-2 1 -4 1.5t-4 1.5q1 1 1.5 2t2.5 3v0zM181 98q-1 1 -2 1t-1 -6h7q1 0 -4 5v0zM79 449q0 -3 2 5z" />
    <glyph glyph-name="S" unicode="S" 
d="M244 -15q-10 2 -27.5 4t-37 4.5t-38 5.5t-30.5 6l-33 39.5t-26 35t-17.5 36.5t-6.5 43q0 14 3 32q11 0 11 5q0 3 -1.5 6.5t-1.5 6.5q0 7 12 15q2 -5 13 -5q9 0 20.5 2t24.5 4.5t25.5 4.5t22.5 2q17 0 20 -8v-53q4 -4 4 -8q0 -6 -2.5 -13t-6 -14.5t-6 -14t-2.5 -10.5h9
q8 0 16.5 -1t20.5 -5h2q5 0 19.5 -7.5t37.5 -7.5q12 0 25 3.5t29 11.5q26 8 33 31.5t7 44.5v23q-19 29 -30.5 37.5t-19.5 8.5q-5 0 -9 -2t-7 -2q-5 0 -7 5q-40 35 -90.5 62.5t-95.5 57.5q-5 0 -7.5 3t-4.5 6.5t-3.5 6.5t-4.5 3q-3 5 -6.5 6t-7 1t-7 1t-6.5 6h-6v13
q0 11 0.5 21.5t5.5 18.5q-5 0 -13 3.5t-13 3.5q5 10 5.5 19.5t0.5 20.5q-5 0 -6.5 3t-6.5 3q5 10 6.5 20t6.5 20h7l7 47l6 -7q9 39 35 68t60.5 48t74 28.5t75.5 9.5q5 0 10.5 -0.5t10.5 -0.5q11 -5 21.5 -13.5t25.5 -13.5v-20q10 0 24 -3t29 -3l20 -40h13q5 -10 10 -19
t10 -14q15 -21 15 -48q0 -28 -15 -52q-23 0 -41 -3t-37 -3t-41 6l6 13h-13q0 10 -3.5 20t-3.5 20h-13v7q-2 0 -2 1q0 2 1.5 5t1.5 9q0 5 -3 12.5t-11 18.5q-20 0 -38.5 3t-34.5 3q-13 0 -24 -3.5t-19.5 -13.5t-14.5 -28t-9 -47l40 -60q17 -20 43 -35.5t55.5 -27.5
t59.5 -22.5t55 -20.5q10 -10 18.5 -23l18 -26.5t20 -25.5t23.5 -19q11 -24 11 -53q0 -35 -10.5 -71l-20.5 -68q-8 -15 -14.5 -21.5t-13 -11.5t-13 -12t-13.5 -22q-11 -3 -20 -3q-5 0 -10 0.5t-9 0.5q-14 0 -14 -11q-15 -5 -26.5 -10t-26.5 -10q-15 -3 -25 -3q-12 0 -21 2
t-22 2h-9t-9 -1zM337 690q-15 -5 -34.5 -6t-39.5 -1l27 -27q15 5 19.5 7t7.5 3l9 3l9 3t15 4q-5 5 -6.5 7t-6.5 7zM414 345q4 -5 11 -12t11 -13l-4 -19q-5 1 -9 5.5t-9 5.5l-2 -7q28 -27 48 -31q-7 15 -13.5 27.5l-12.5 23.5q-3 5 -5 9t-5 7l-8 13zM421 274q5 -11 13 -20.5
t7 -19.5l33 -13zM157 207h-7v-14q5 0 6 1.5t1 12.5zM392 353l-7 -20q5 0 6.5 2.5t6.5 17.5h-6zM55 184q-1 -1 -9 -1q0 -10 -3 -19t-3 -14q1 -4 4 -4q4 0 8 16q1 9 6 23q-2 -1 -3 -1v0zM138 119q4 2 7 7.5t7 7.5l-9 3q2 -4 -0.5 -7.5t-4.5 -10.5zM155 143l6 18q-4 -2 -5 -6.5
t-10 -8.5zM65 476q5 5 8 13.5t13 12.5l-4 40h6l1 20l-13 1q-6 -29 -7.5 -41.5t-2.5 -24.5zM92 482q-5 0 -10.5 -10t-15.5 -10l13 -54q5 11 6.5 25t6.5 29v20z" />
    <glyph glyph-name="T" unicode="T" horiz-adv-x="497" 
d="M297 594q6 -21 8 -48t2 -56q0 -39 -2 -75.5t-2 -59.5q0 -20 3.5 -36t3.5 -31q-1 -11 -1.5 -21t-0.5 -21q0 -35 2.5 -72.5t2.5 -74.5q0 -32 -3 -61.5t-13 -55.5q-15 5 -22.5 15t-17.5 25q0 -5 -4 -9q-1 -1 -1.5 -2t-1.5 -2q-5 0 -14 -3.5t-19 -3.5q-5 -5 -9 -10t-4 -10
h-20q0 5 -3.5 14t-3.5 20l40 80l-7 6q-8 -22 -16 -35t-25 -13q-2 0 -12 2q-4 21 -7 43.5t-3 45.5q0 19 3 37q3 3 3 14q0 9 -1.5 19t-1.5 14q4 7 7 24t4.5 37.5t2 42.5t0.5 39v36q0 10 4 21l9 26q0 40 -3.5 75.5t-3.5 77.5q-4 0 -8 0.5t-8 0.5q-19 0 -35 -3.5l-32 -7l-33 -7
t-37 -3.5v66q3 4 3 12q0 5 -1 11t-1 12q0 12 6 18h9q8 0 15.5 -1t15.5 -5q11 11 31 15t43 4q29 0 57.5 -3t48.5 -3q5 0 38 -1t72.5 -2.5t73.5 -2.5t42 -1q14 0 14 -3q0 -2 -14 -7q-6 -2 -14.5 -4.5l-19.5 -5.5q8 0 9 1q5 1 11 2t14 4q0 -12 4 -14.5t4 -6.5q0 -2 -2 -6l7 -6
v-27l1 -1q-2 0 -9 2t-11 2q-3 -1 -1 -3l7 -20h-20q-9 6 -10 7l-4 3q-1 2 -3.5 3.5t-9.5 6.5l-7 -6q7 -3 9.5 -4.5t1.5 -3.5t-2.5 -6t-1.5 -13q-12 0 -19.5 -3t-13.5 -7t-13.5 -7t-19.5 -3q0 6 -7 6t-15 -3t-12 -3q0 5 -8 6.5t-18 6.5zM226 223q-1 -1 -9 -1q0 -10 -3.5 -19
t-3.5 -14q-5 0 -10 -3.5t-10 -3.5v27h-13q0 -20 1.5 -37t11.5 -37q8 15 14 28l11 24t8.5 21t5.5 18zM224 441q-5 -10 -10 -18t-10 -8l-7 -40q0 -5 -1 -6t-6 -1v-13h7l15 31q9 17 10.5 27.5t1.5 27.5zM210 295q-10 -15 -13 -17.5t-13 -2.5v-40q5 10 9 16.5t4 16.5h7zM224 322
h-7v-14q5 0 6 1.5t1 12.5zM204 594v-13l13 13h-13zM270 248v-19l5 12q0 2 -1.5 3t-3.5 4z" />
    <glyph glyph-name="U" unicode="U" horiz-adv-x="532" 
d="M368 737q5 0 6.5 -3.5t6.5 -3.5v-13q7 -5 13 -5q8 0 15 3.5t15 3.5l10 -2q5 -14 21 -14q8 0 17 2t16 2q13 0 13 -10l2 -21.5t1 -19.5q0 -18 -5 -29t-19 -11q-2 0 -3 0.5t-3 0.5v-13h13v-13h7q0 -26 -1.5 -49.5t-11.5 -43.5q5 -11 10 -13t10 -7q0 -20 -1.5 -28.5
t-12.5 -18.5q-5 -20 -6.5 -36t-6.5 -30q5 -5 10 -6t10 -1v-40q0 -5 -4 -6q-1 -1 -3 -1q-4 -7 -6.5 -13t-2.5 -10q0 -3 3 -3q5 0 10 0.5t10 5.5q1 -9 1.5 -16t0.5 -14q0 -18 -3.5 -29.5t-7.5 -21.5l-7.5 -19.5t-3.5 -22.5q0 -14 6 -36q-2 -2 -13.5 -22l-25.5 -43t-27 -41.5
t-18 -18.5q-2 0 -2 5l-20 -20l-20 27q-10 -11 -21 -16.5t-26 -10.5v7q-6 -3 -12 -10l-11.5 -14t-11 -12.5t-11.5 -5.5q-5 0 -7 2v26q-10 -5 -14.5 -6t-8.5 -1t-8.5 -0.5t-14.5 -5.5v33q-11 0 -15.5 8.5t-4.5 18.5q-5 -10 -6 -19t-1 -14q-11 0 -18 -1t-12 -1q-10 0 -23 8v7
q-5 0 -6.5 1t-6.5 6v13h-7v7q-5 10 -14 16.5t-19 16.5q-8 -2 -7 -2q-7 0 -11.5 7t-6.5 16q-1 2 -1 12l-5 -10q-1 -4 -3 -4v1l-6 73q0 6 -7 13h-7q5 15 9.5 26t4.5 21q0 23 3 53t3 56q0 27 -6 44q3 27 3 54q0 48 -5 94t-5 94q0 42 7 77l13 13l133 -13q0 -38 -4 -78.5t-9 -82
t-9 -83.5t-4 -82q0 -41 6 -80q5 -25 6 -45.5t1 -40.5q14 -11 14 -24t-8.5 -26t-12.5 -23q5 -3 8 -4.5t7.5 -2.5l11.5 -2.5l20 -4.5q5 -23 20 -32.5t33 -9.5q23 0 43.5 13t22.5 36l23 7.5t12.5 4.5t6.5 3.5t5 4.5q-5 5 -13.5 6.5t-13.5 6.5q-5 19 -7 37.5t-2 37.5
q0 38 4.5 76t4.5 75q0 36 -3.5 67t-3.5 63q0 22 3 44t11 46q-5 9 -7.5 27t-2.5 38q0 24 4 44t13 24zM68 125l-1 1zM425 396q5 5 10 13.5t10 13.5h7l9 25t6 31q0 2 -2 10q-5 0 -6 -1t-1 -6l-6 -6q0 -5 -4.5 -6t-9.5 -1q-5 -20 -6.5 -36.5t-6.5 -36.5zM457 676
q-5 -5 -6.5 -5.5t-6.5 -0.5q0 -11 -1 -20t-6 -14h-13q0 5 -3.5 10t-3.5 10h-6q5 -20 8 -35.5t18 -30.5q5 29 10 50.5t10 35.5zM397 473l27 27v36q-2 -10 -5 -13q-2 -4 -4.5 -7.5t-4.5 -8.5h-6zM397 580h-6q-4 -4 -6 -14q-1 -3 -1 -17q3 11 13 11v20zM384 447h13v13
q-5 0 -6.5 -1.5t-6.5 -11.5zM430 573h-6v-6h6v6zM457 276q5 -5 6.5 -10t6.5 -10v13q-5 0 -6.5 3.5t-6.5 3.5zM460 288q1 1 4 1q0 5 -4 6q-3 1 -3 4v-15q0 2 3 4zM68 374q15 15 18 17.5t8 2.5l-6 40q-5 -5 -6 -14t-1 -19h-13v-27zM61 348h13l-6 13q-5 0 -6 -1.5t-1 -11.5z
" />
    <glyph glyph-name="V" unicode="V" horiz-adv-x="536" 
d="M98 737q7 -5 18.5 -8t24 -5.5t24.5 -5.5t20 -8q0 -2 0.5 -4t0.5 -4q0 -17 -7.5 -37.5t-7.5 -33.5q20 -18 31 -51t17.5 -70.5t10 -73t8.5 -58.5l20 -60q3 -8 5.5 -28t4.5 -42.5t4.5 -42.5t5.5 -27q3 13 11.5 37l18 52t16.5 56t7 48q0 7 2 26t5 40.5t6.5 40t6.5 26.5
q5 18 7 33t2 29q0 17 -1.5 32.5t-1.5 30.5q0 20 5 40.5t22 47.5q15 0 22 -11.5t12 -21.5q1 1 1.5 2t1.5 2l2 4q1 1 1 5h47q0 5 4 10t9 10h20v-33l-26.5 -36.5l-26.5 -36.5v-7q13 17 24 29t29 12q10 0 13 -1q0 -30 -4 -63.5t-9 -63.5q-9 -2 -11.5 -10.5t-2.5 -17.5
q0 -6 0.5 -11t0.5 -7q-10 -10 -18.5 -35.5t-15.5 -54.5t-12 -54.5t-8 -35.5q-5 -10 -13 -20.5t-13 -25.5q-15 -60 -20 -120t-20 -120l-49 -10t-44 -10q-10 15 -20 26l-20 21h-20q0 -5 -1 -13.5t-6 -13.5h-20l-9 20.5t-4 19.5q5 15 10 34l10 39l-7 7q-5 -20 -13 -33t-33 -13
l-22.5 66t-17.5 67q4 0 4 5q0 8 -7 21t-10 20q6 6 6 26q0 16 -3.5 38.5t-8 45t-9 41.5t-5.5 29q0 10 3 20.5t3 25.5l-15 55.5t-15 49.5l-15 49q-4 13 -7 25.5t-7 26.5q12 3 22.5 9.5t19.5 14t18 14t19 9.5zM185 251q-1 -1 -2 -1.5t-2 -1.5q-5 -3 -10 -3q3 -6 3 -12
q0 -5 -1.5 -9.5t-1.5 -11.5h-19q0 5 -3.5 10.5t-3.5 15.5h-13q5 -20 11.5 -39t21.5 -34q5 30 12.5 51t7.5 35zM408 477q4 1 10 7q5 5 9.5 13.5t9.5 13.5q0 5 7.5 5.5t12.5 0.5q0 -5 -3 -13t-3 -13h13q0 14 1.5 25t1.5 23q0 11 -3 25l-19.5 -28t-18.5 -24q-17 -20 -21 -37z
M358 258q10 10 16.5 18.5t16.5 8.5l13 40h7l7 20h-14l-19 -31.5t-11.5 -20t-7.5 -16zM318 72v-27h20l13 73q-10 -10 -16.5 -23t-16.5 -23zM152 611q-5 -5 -7.5 -13.5t-12.5 -13.5l6 -40h-6v-20h13q5 29 6 41.5t1 24.5v21zM138 498q-5 0 -10.5 -10t-15.5 -10l13 -54
q5 11 6.5 25t6.5 29v20zM152 325q-11 -15 -14 -17.5t-13 -2.5l7 -40q5 5 5.5 14t0.5 19h14v27zM404 404q20 14 24 17t9 3l14 40q-5 -10 -10 -16.5t-10 -16.5h-13zM384 378l14 -7v20q-5 0 -7 -1.5t-7 -11.5zM158 351h-6v-13q5 0 5.5 1t0.5 12zM354 461q4 4 4 10
q-5 -5 -6 -7.5t-1 -9.5q0 2 3 7zM225 278q0 -6 3 -10q1 -2 1.5 -4t1.5 -4v2q0 2 -1 5t-5 11z" />
    <glyph glyph-name="W" unicode="W" horiz-adv-x="788" 
d="M397 724q10 -11 16.5 -16.5t16.5 -10.5l6 -7l27 20l-20 -26q1 -7 5 -7q1 0 4 3l3 3q1 0 1 -6q12 -12 20.5 -35t15 -52t11 -61t8 -62l6.5 -55.5t6 -40.5q5 -15 9 -30t4 -30q5 -15 7 -26.5t7 -26.5l9.5 48.5t9.5 38.5q0 15 1 29.5t6 29.5q7 34 11.5 73.5t11 79t16.5 77.5
t28 70q11 0 25 2t28 2q11 0 19.5 -2t12.5 -9q-1 0 -1.5 0.5t-1.5 0.5q-5 0 -9.5 -2.5l-9.5 -5.5q-11 -5 -22 -13q9 5 18.5 6t19.5 1q5 5 7 10t7 10h20v-34q-15 -20 -27 -39t-27 -34l7 -6l22 29.5t23 11.5q2 0 4 -0.5t4 -0.5q0 -30 -1.5 -63.5t-11.5 -63.5q-5 0 -6.5 -6.5
t-1.5 -14.5t0.5 -14.5t0.5 -10.5q-8 -8 -15 -32t-13.5 -52t-11 -53.5t-6.5 -35.5q-5 -11 -10.5 -21.5t-16.5 -25.5q-10 -60 -16.5 -126.5t-16.5 -126.5q-17 0 -31 1.5t-28 1.5t-27 -3q-5 15 -13.5 26t-13.5 21h-20q0 -10 -3.5 -16t-3.5 -11h-13q-10 21 -20 40q5 15 10 34
l10 39l-7 7q0 -25 -7 -35.5t-33 -10.5q-10 29 -19 62.5t-14 63.5q4 3 4 10q0 9 -6 20.5t-11 15.5q5 13 5 29q0 10 -1.5 20.5l-3.5 24.5q0 -15 -3.5 -29t-3.5 -25l-10 -19.5l-10 -19.5q-15 -60 -19 -120t-14 -120q-20 -5 -43 -6.5t-43 -6.5q-5 10 -11 19.5t-16 20.5h-20
q0 -5 -1 -10t-6 -10h-13q0 5 -4 14t-9 19q5 15 10 34l10 39l-7 7q-3 -10 -5 -18.5t-5.5 -15t-10.5 -10t-19 -3.5q-10 30 -19 63.5t-14 63.5q5 2 5 12t-4 22.5t-8 18.5q4 7 4 22q0 16 -3 38t-7 43.5t-8 40.5l-6 29v40q-10 60 -26.5 119.5t-26.5 119.5q20 5 39 9t34 4
q9 -6 22 -6q8 0 16.5 1.5t16.5 1.5q11 0 16 -5q1 -2 1 -9q0 -9 -3 -20.5l-6 -22.5t-6 -20t-3 -13q17 -20 27.5 -54.5t17.5 -72.5t11.5 -74t9.5 -58l20 -60q0 -11 3 -24q4 -9 4 -26q5 27 10 47.5t10 35.5q0 15 0.5 30t5.5 30q7 33 12 69l10 73q5 37 12 72t19 65q0 11 -3 20.5
t-3 19.5q20 0 40 4.5t40 9.5zM476 245q-5 0 -6.5 -1t-6.5 -6v-26q-5 -5 -10 -6t-10 -1q0 5 -3.5 13.5t-3.5 13.5h-6q5 -20 8 -37t18 -37q5 30 12.5 51t7.5 36zM663 464q5 5 6.5 6t6.5 1q5 10 9 16.5t4 16.5h20v-26h7q5 25 5 39t-5 34q-15 -30 -31.5 -51t-21.5 -36zM177 238
q-5 -5 -6.5 -5.5t-6.5 -0.5q0 -11 -1 -20t-6 -14h-13q0 5 -3.5 10t-3.5 10h-6q5 -20 8 -35.5t18 -30.5q5 29 10 50.5t10 35.5zM104 664q-10 0 -16.5 -3.5t-16.5 -3.5l13 -73q5 15 7.5 36.5t12.5 36.5v7zM589 72v-27h14l20 67q-11 -5 -20 -17.5t-14 -22.5zM131 451
q-5 -10 -7.5 -19t-12.5 -14l6 -34q0 -1 -1.5 -3.5t-4.5 -2.5v-13h13q5 29 6 41.5t1 24.5v20zM623 251q10 11 16.5 20t16.5 14l7 33h13v20h-7l-19 -31t-11.5 -19.5t-7.5 -16zM284 59v-27h13l13 73q-10 -10 -15.5 -23t-10.5 -23zM317 245q10 5 15.5 13t10.5 13l14 40h6v14h-6z
M410 411l7 -20h-7v-13h7q8 29 10.5 41t2.5 22v10q-10 -10 -20 -40zM669 398q15 10 18.5 12.5t8.5 7.5l6 33q-5 -5 -9 -13.5t-4 -13.5h-13zM443 318q-10 -15 -12.5 -17.5t-7.5 -2.5l7 -40v5q0 6 0.5 13t5.5 15h7v27zM144 305q-10 -15 -12.5 -17.5t-7.5 -2.5l7 -40q0 9 0.5 16
t5.5 17h7v27zM377 478l-7 13l-20 -40q4 4 9 6q1 1 4 1q5 10 7 15t7 5zM377 404v7h-7l-13 -27q10 11 12.5 15.5t7.5 4.5zM450 345h-7v-20q5 0 6 2.5t1 17.5zM649 365h7l7 19q-5 0 -7 -2.5t-7 -16.5zM337 358h13v13q-5 0 -6.5 -1.5t-6.5 -11.5zM151 331h-7v-13q5 0 6 1.5
t1 11.5zM616 438q5 10 6 12.5t1 7.5q-5 -5 -6 -7.5t-1 -12.5zM510 271v-20q5 5 5 8q0 2 -1.5 4.5t-3.5 7.5zM313 441q4 4 4 10q-5 -5 -6 -7.5t-1 -7.5q0 2 3 5zM370 664h-7l7 -7v7z" />
    <glyph glyph-name="X" unicode="X" horiz-adv-x="573" 
d="M113 717q25 -5 50 -6t50 -1q25 -49 38 -83.5t20 -51.5l13.5 -31.5t14.5 -31.5l20 41.5t21 40.5q3 7 17 34t42 69q5 5 10 6.5t10 6.5l111 -4l22 4l-17 -35l-24 -60q-12 -12 -18 -25q-9 -17 -17 -34q-6 -13 -22 -29q4 -3 -17 -53q4 5 -14 -9q6 -11 -1 -25
q-3 -8 -10.5 -29.5t-18.5 -57.5l17 -32.5t18 -30.5t17 -24.5t14 -14.5q3 -5 5.5 -13t5.5 -16t6.5 -14.5t8.5 -9.5q15 -30 29 -63t25 -63q-4 -1 -7 -1.5t-7 -0.5q-20 0 -34.5 12.5t-31.5 29.5l-7 -7q20 -20 40 -36.5t40 -36.5q5 -10 6 -19t1 -14l-14 -7q-10 5 -15.5 13.5
t-10.5 13.5h-47l-6 6q-3 -5 -3.5 -10.5t-2.5 -10.5t-6.5 -8.5t-14.5 -3.5q-39 39 -65.5 89.5t-49.5 102.5q-6 -7 -14.5 -13.5l-16.5 -12.5l-27 -79q0 -2 -11.5 -18.5l-25 -35.5l-25 -35t-11.5 -18q-10 1 -11.5 8.5t-1.5 18.5q-5 -11 -10 -17t-10 -16q-15 0 -32 -6t-31 -6
q-10 0 -17 5l7 7h-14l7 13h-7l7 13l-10 10.5t-10 16.5q-6 -3 -10 -3q-5 0 -5 5q0 6 5 17t12.5 21.5t16 18t14.5 7.5q5 0 6.5 4.5t6.5 9.5h-19v13h-7q10 10 20.5 23t25.5 23q7 18 22.5 42.5l31.5 49.5t28 47t12 34l10.5 16l10.5 16q-11 22 -28.5 54l-34.5 65.5t-29 64
t-12 50.5q0 8 3 14q-11 15 -17 29.5t-17 29.5q5 11 11 21.5t16 25.5zM137 73q3 1 3 6zM392 560q4 1 10 7q5 5 9.5 13.5t9.5 13.5q0 5 7.5 5.5t12.5 0.5q0 -5 -3 -13t-3 -13h13q0 14 1.5 25t1.5 23q0 11 -3 25l-19.5 -28t-18.5 -24q-17 -20 -21 -37zM342 341q10 10 16.5 18.5
t16.5 8.5l13 40h7l7 20h-14l-19 -31.5t-11.5 -20t-7.5 -16zM388 487q20 14 24 17t9 3l14 40q-5 -10 -10 -16.5t-10 -16.5h-13zM368 461l14 -7v20q-5 0 -7 -1.5t-7 -11.5zM338 544q4 4 4 10q-5 -5 -6 -7.5t-1 -9.5q0 2 3 7zM255 296l-10 -29t-10 -24h-20q0 -11 -3.5 -17
t-3.5 -17h7q0 -10 3 -19.5t3 -20.5q2 2 2.5 4t1.5 4l2 7q1 1 1 9v16l15.5 31.5t9 20t5 16t3.5 19.5h-6zM151 699h-14l7 -7q-10 -5 -11.5 -10t-1.5 -10h-7l27 -53l-7 -6q5 0 6.5 -3.5t6.5 -3.5q3 7 3 16q0 11 -4.5 22t-11.5 22q11 0 11 16q0 10 -4 17zM164 586q1 -7 7 -13h6
q-4 9 -10 15l-8 8q4 -6 5 -10zM406 95q5 5 14 7t20 7v66q-10 -15 -18 -35t-22 -31q0 -5 3 -7t3 -7zM473 159q5 -2 3.5 4t-4.5 13q-2 8 -6 19.5t-12 31.5h-7v-14l4 -4l3 -36q10 -5 13 -13t6 -1zM244 538l9 -9v20q-9 0 -9 -11z" />
    <glyph glyph-name="Y" unicode="Y" horiz-adv-x="531" 
d="M92 722q7 -2 20 -3.5t26 -2.5t24.5 -2.5t16.5 -4.5q1 -1 1 -6q0 -8 -4.5 -17t-4.5 -14q0 -2 1 -3q20 -10 31 -28t16.5 -38t7.5 -38.5t5 -28.5q10 -10 16 -19t11 -14q0 -10 3 -16t3 -11q11 11 16.5 23t10.5 17q0 10 3.5 19t3.5 14q10 20 16 42t13.5 43t18.5 40.5t31 34.5
q19 0 25 -4.5t15 -8.5l7 6h40q5 0 10 4.5t10 9.5h13q5 -5 6 -10t1 -10q-15 -11 -30 -20.5l-30 -19.5l6 -7q15 15 28.5 21t38.5 6q-5 -15 -7.5 -33.5t-12.5 -33.5q-9 -5 -9 -14q0 -3 1 -6.5t1 -5.5q-10 -5 -19.5 -18.5t-17 -28.5t-12 -28.5t-4.5 -17.5q-19 -11 -26 -27
q-15 -30 -22.5 -60.5t-17.5 -65.5h-16q2 -10 2 -14q-8 -5 -8 -14q0 -5 2.5 -10.5t5.5 -8.5q-6 -4 -9.5 -14t-6 -22.5t-3.5 -26.5t-1 -26v-24l-10 -10.5t-10 -16.5q0 -17 3 -33.5t7 -32.5t7 -32.5t3 -34.5l-49.5 -13l-49.5 -13q-11 10 -20 15.5t-14 10.5q0 11 1 20.5t6 19.5
q-13 8 -17.5 24t-4.5 35q0 29 6 57.5l9 43.5q-5 8 -5.5 15.5t-0.5 15.5v9q2 29 12.5 49t16.5 44h-9q-5 0 -7 -4t-7 -9l-13 6q-5 5 -10 7t-10 7q5 10 10.5 19.5t16.5 19.5l-7 7q-5 -15 -13 -20.5t-33 -5.5q-15 14 -26 32.5t-21 33.5q5 2 5 8q0 5 -4 10t-8 9q3 3 3 10
q0 9 -4 21t-9.5 24l-10 22.5t-5.5 15.5q0 10 3 15.5t3 10.5q-15 30 -29.5 54t-29.5 59q12 0 22.5 3t19.5 7t18 7t19 3zM185 470q-5 0 -9 -4q-1 -1 -2 -1.5t-2 -1.5q0 -5 -0.5 -6.5t-5.5 -6.5h-20q0 3 -1 4l-6 9h-7q5 -15 11 -22.5t16 -17.5q10 15 18 25.5t8 21.5zM252 24
q5 0 14 3.5t19 3.5v40q-10 -11 -17.5 -20.5t-22.5 -19.5zM289 256q1 1 10 1q0 5 3 10t3 10h20v-14h7q0 11 -1 21.5t-6 25.5q-8 -10 -14 -18.5t-11 -16.5q-4 -6 -7.5 -12.5zM312 377v-20q5 0 10 3t10 3l20 33l-20.5 -9.5zM152 656q-10 -5 -13 -9t-13 -4l13 -20h-13v-14h13
q8 19 10.5 26.5t2.5 12.5v8zM408 588q1 1 10 1q0 5 4.5 9.5t9.5 4.5t9.5 3t9.5 3v-13h7q4 7 7 13.5t3 11.5t-3 8l-20.5 -14.5l-17.5 -11.5q-4 -2 -8 -5t-8 -5l-6 -4t-5 -4q4 3 8 3zM132 596q-5 0 -10 -6.5t-10 -6.5l7 -27q5 5 7.5 13.5t12.5 13.5q0 5 -1 6q-1 7 -6 7z
M212 64q10 5 13 10t14 10v26q-3 -4 -5.5 -7t-4.5 -5q-8 -11 -10 -17t-7 -17zM358 470q11 5 17 10t17 10l6 19q-8 -5 -12 -9q-11 -8 -15.5 -13.5t-12.5 -16.5zM405 549q15 5 19 6t14 1l7 20q-5 0 -10 -4t-10 -9h-7zM259 330q10 10 13 11.5t13 1.5v27q-5 -5 -6.5 -10t-6.5 -10
h-7zM146 503q-11 -5 -13 -6t-7 -1l6 -20q0 5 3.5 7t3.5 7h7v13zM385 536l7 -7l6 14q-5 0 -6.5 -1t-6.5 -6zM152 523h-6v-13q5 0 5.5 1t0.5 12zM412 510v6h-7q-1 -1 -3 -2.5t-4 -3.5h14zM252 111v6h-7q-3 -5 -6 -6h13zM279 230h6v14zM225 483v-13q5 5 5 6q0 2 -1.5 3t-3.5 4z
" />
    <glyph glyph-name="Z" unicode="Z" horiz-adv-x="540" 
d="M467 591h-26q0 -5 0.5 -10t5.5 -10q-10 -15 -19 -30t-14 -30q1 2 1.5 1.5t-6.5 -17.5q-4 -12 -10.5 -27.5t-13.5 -30l-12 -24.5t-6 -10v1q-10 -20 -19 -35.5t-14 -30.5q-5 -10 -9 -21t-4 -26q-20 -35 -37.5 -77t-42.5 -82q17 2 41 3t51 1q42 0 80.5 -5t60.5 -19
q10 10 18 10q14 0 22 -30q-5 0 -6 -4q-1 -1 -1 -3q-5 -5 -6.5 -5.5t-6.5 -0.5q-5 -15 -3.5 -33.5t-3.5 -33.5q-6 -2 -11 -2q-8 0 -13 4.5t-16 4.5v-27h-6v-7l-7 -6v-7q-20 0 -46 8t-41 19q-5 -5 -6.5 -13.5t-6.5 -13.5h-13q-11 0 -25 3t-22 10q-2 2 -2 4q0 4 5 10l10.5 12.5
l10.5 13t5 10.5q0 2 -2 4q0 -3 -12.5 -11.5l-27.5 -18.5l-19 -11l-21 -13h-27v7q-6 0 -9 3q-2 1 -2.5 2t-1.5 2q0 -5 -3 -10t-3 -10v-7q-7 0 -7 7l-47 -7q-8 5 -18.5 7t-21.5 2.5l-21.5 1t-17.5 2.5q-5 11 -7 17t-7 17l20 60l7 6l6 7l-6 7v13h-7q3 10 12 24l19.5 29l20.5 29
t15 24q15 5 17.5 17.5t2.5 22.5q10 5 22.5 22.5t24.5 39t21 41.5t11 30q11 5 17 14t17 19q7 15 15 36l17 43.5l17.5 44t16.5 36.5h-13v7q-11 10 -21 10q-12 0 -26 -10q-20 5 -44 9t-49 4q-8 -3 -18.5 -4.5t-21 -3.5t-19.5 -4.5t-14 -7.5q-5 10 -10.5 19t-16.5 14q7 15 7 24
q0 5 -3.5 7.5t-9.5 7.5q1 3 2 6.5t2 7.5q3 9 5.5 27.5t16.5 32.5l40 -13q10 0 26.5 1.5t33.5 1.5t33.5 -3t26.5 -13q20 3 38 11.5t38 8.5q16 0 30 -7q9 9 80 20v-13h33q-8 -9 -12 -15.5t-6 -6.5q-1 0 -1 2l-14 -20v-7q5 0 10 -1t10 -6q0 11 7 26t13 21q3 -11 4.5 -30
t1.5 -38q0 -20 -1.5 -36t-4.5 -22zM314 5q1 -1 2 -1q5 0 19 8.5l31 19t33.5 19t27.5 8.5q7 13 7 18q0 7 -7 7q-2 0 -3 -0.5t-3 -0.5q-5 -2 -12 -4.5t-15 -6.5q-7 -3 -19.5 -13.5l-25.5 -22.5l-24 -21.5zM201 245q-5 -5 -10 -13.5t-10 -13.5h-20q0 5 3.5 10t3.5 10h-7
q-20 -32 -20 -53l24 19l20 17q4 4 7.5 7t6.5 6l11 11h-9zM221 298q-15 -5 -19 -6t-14 -1l-13 -33q5 5 13 10.5t13 16.5h7zM294 411q-10 -5 -19.5 -12.5t-20.5 -7.5l-13 -33zM301 644q5 -5 6.5 -10t6.5 -10v13q-5 0 -6.5 3.5t-6.5 3.5zM88 644h7q3 0 3 2t-1.5 4.5t-1.5 6.5z
M304 656q1 1 4 1q0 5 -4 6q-3 1 -3 4v-15q0 2 3 4zM248 325h-7l-7 -14zM234 358l-6 -7h6l7 7h-7zM48 99q0 3 -1 4l-2 4q-1 1 -3 5l13 -13h-7zM347 540h1q2 0 6 4h-10l2 -2zM148 145v7l-7 -7h7zM55 657v-1q-1 -6 -7 -12z" />
    <glyph glyph-name="bracketleft" unicode="[" horiz-adv-x="305" 
d="M88 -189v6q0 7 -5 7v7h-6q0 -23 -17 -23q-7 0 -14 3l-1 -1q-2 0 -2 6q0 3 0.5 7t0.5 9q0 8 -1 15t-6 10q0 5 2 13.5t2 18.5v20h-4q0 5 -0.5 6t-5.5 1q5 5 6 5t4 -5q3 8 6.5 15t6.5 7q1 0 3 -2v13l-11 7q-1 1 -1.5 2t-1.5 2q-2 10 -2 9h-4q3 10 4 22.5t5 23.5q0 23 5 61
t5 70q0 24 -4 33q3 33 3 72q0 52 -3 107.5t-3 106.5q0 37 3 69q3 0 3.5 2t2.5 5l-6 4q-2 1 -3.5 2t-3.5 2q-4 6 -5.5 14t-2 21.5t-0.5 34t-2 50.5q8 3 8 15q0 5 -1 9.5t-1 7.5t2 3h2q5 1 8.5 1.5t5.5 0.5q18 0 18 -17h6v5q2 0 3 1t2 1.5t1 2.5v5l164 3q3 -3 6 -3t5.5 1.5
t4.5 1.5q4 0 5 -3t6 -3q0 -11 0.5 -24.5t4.5 -24.5q-8 0 -13 -5.5t-13 -9.5l4 -15.5t4 -12.5t3 -9.5t1 -5.5l-1 1q-1 1 -3 7l-30 5q-8 10 -18.5 13t-21.5 3q-12 0 -23 -2t-18 -2t-8 3l7 -63q1 -5 1 -9v-8q0 -22 -9 -28q0 -44 0.5 -84t1.5 -79.5t3.5 -80t6.5 -84.5v-14
q0 -12 -1 -28l-2 -32t-2 -30t-1 -22q10 -13 10 -28q0 -8 -2 -15.5l-4 -15.5h-5l3 -86q4 9 11 9t14.5 -5.5t16.5 -5.5q6 0 12 3.5t14 14.5l26 -26v-7l-6 -7q8 -5 16.5 -8.5t16.5 -3.5q-3 -14 -3.5 -32t-0.5 -33q-5 0 -6 -3.5t-5 -3.5q-2 0 -4.5 1.5t-5.5 1.5t-6 -3zM99 615
q0 2 -3 7q-3 3 -3 6l-5 -9z" />
    <glyph glyph-name="backslash" unicode="\" horiz-adv-x="319" 
d="M289 -7q-20 0 -38.5 3t-37.5 3q-20 63 -34.5 120t-35.5 120q-4 14 -11 24t-11 21q-5 12 -12.5 38l-16.5 54.5t-19 52.5t-20 32q0 2 -0.5 9t-2.5 15t-5 15.5t-8 10.5q-8 29 -15.5 61.5l-14.5 64.5q2 1 10 1q15 0 27 -12t23 -32l1 5l-27 38.5l-26 37.5q0 9 -2 18t-2 17v3
h12q5 -5 9 -10t8 -15q9 4 16 5t12 1h5q5 -5 6 -8.5t5 -3.5q6 14 6.5 23.5t14.5 14.5q20 -31 34.5 -69t26.5 -78.5t22.5 -80.5t22.5 -76q2 -19 6 -34t9 -29q5 -21 15.5 -51l21.5 -62.5t19.5 -64t8.5 -55.5q0 -18 -4 -26q5 -14 11.5 -28.5t11.5 -28.5q-5 -10 -10.5 -22.5
t-10.5 -21.5zM265 37q1 1 1 6v7q-18 14 -29.5 31.5t-30.5 31.5l29 -70h5q5 0 11.5 -1t13.5 -5zM125 473q-9 14 -25.5 34t-34.5 49q-3 -9 -3 -17q0 -14 4.5 -26.5t6.5 -26.5h7v1q0 5 -2.5 11t-2.5 11v2h19q5 -9 9 -17.5t9 -13.5q0 -5 4 -6t9 -1zM188 258q-6 10 -10 16
t-8.5 14t-12 20l-20.5 33h-7l6 -19h6l10 -38q10 -5 19 -13t17 -13zM127 404l-12 25l-6 -6q-4 9 -9.5 17.5t-13.5 13.5l17 -38q5 0 7.5 -1.5t16.5 -10.5zM150 372l-11 17v-4l5 -13h6zM167 448v5q0 6 -1 7l-6 4l1 -2q1 -2 2.5 -5.5z" />
    <glyph glyph-name="bracketright" unicode="]" horiz-adv-x="304" 
d="M217 712v-6q0 -7 5 -7v-7h6q0 23 17 23q6 0 14 -3l1 1q1 0 1 -6v-17q0 -8 1 -15t6 -9q0 -5 -2 -13.5t-2 -18.5v-20h4q0 -5 0.5 -6t5.5 -1q-5 -5 -6 -5q-2 0 -4 5q-3 -8 -6.5 -15t-6.5 -7q-1 0 -3 2v-13l11 -7l2 -4q1 -2 2 -4.5t1 -4.5h4q-3 -10 -4 -22.5t-5 -23.5
q0 -12 -1.5 -27.5t-3.5 -33.5t-3.5 -36t-1.5 -34q0 -24 4 -33q-3 -33 -3 -72q0 -54 3 -109t3 -106q0 -37 -3 -68q-3 0 -3.5 -2t-2.5 -5l6 -4q2 -1 3.5 -2t3.5 -2q4 -6 5.5 -14t2 -21.5t0.5 -34t2 -50.5q-5 -2 -6.5 -6t-1.5 -9t0.5 -9.5t0.5 -7.5q0 -4 -1 -4t-1 0.5t-1 0.5
q-5 -1 -8.5 -1.5t-5.5 -0.5q-18 0 -18 17h-6v-5q-2 0 -3 -1q-3 -2 -3 -4v-5l-164 -3q-3 3 -6 3t-5.5 -1.5t-4.5 -1.5q-4 0 -5 3t-6 3q0 11 -0.5 24.5t-4.5 24.5q8 0 13 5.5t13 9.5q-3 8 -5 15.5t-4 12.5q-4 9 -4 14q1 0 5 -7l30 -5q8 -10 18.5 -13t21.5 -3q12 0 23 2t18 2
q6 0 8 -3l-7 63q-1 5 -1 9v8q0 22 9 28q0 43 -0.5 83t-1.5 80t-3.5 80.5t-6.5 84.5q-1 3 -1 19q0 12 1 27.5t2.5 30.5t2.5 28t1 21q-6 7 -8 13.5t-2 13.5q0 8 2 16l4 16h5l-3 86q-5 -9 -11 -9q-7 0 -14.5 5.5t-16.5 5.5q-6 0 -12.5 -3.5t-13.5 -14.5l-26 26v7l6 7
q-8 5 -16.5 8.5t-16.5 3.5q3 14 3.5 32t0.5 33q5 0 6 3.5t5 3.5q2 0 4.5 -1.5t5.5 -1.5t6 3zM206 -92q0 -3 3 -7l3 -6l5 9z" />
    <glyph glyph-name="asciicircum" unicode="^" horiz-adv-x="525" 
d="M96 290q-13 0 -22 3t-17.5 7l-17.5 8t-21 6q12 31 27 57t27 61q0 4 -4 10.5t-4 13.5q2 2 4 7l5 12q6 12 15 12q3 0 6.5 -1t5.5 -1q9 0 11 11v7q0 10 -4 13q5 5 11 12t6 12q0 2 -2 4q6 14 16 33.5t23 38.5q3 32 10 32q2 0 3 -1q5 -4 8.5 -9.5t7.5 -12.5l5 6q-4 11 -9.5 21
t-12.5 21q0 3 5 9.5t12 9.5h14q7 -3 7.5 -7.5t0.5 -7.5h24q12 9 42 13q17 4 36 4q5 0 10 -0.5t10 -1.5q6 -17 10 -32.5t10 -32t15 -33t25 -34.5q6 -7 12.5 -12.5t12.5 -11.5q4 -8 9 -22t12 -29.5t15.5 -29t18.5 -18.5v-6q0 -7 1 -12.5t6 -10.5q12 -14 19 -33t7 -38
q-22 0 -34.5 7.5t-26.5 21.5v-5q11 -11 24 -21.5t29 -20.5v-20h-24q-4 4 -6 7.5t-8 7.5q-5 -2 -9 -2h-9q-8 0 -13.5 1t-7.5 1q-3 0 -6 3l-2 2q-12 -6 -16.5 -13t-22.5 -7q-20 18 -31.5 40t-19 44.5t-13 44.5t-14.5 41q-5 7 -6.5 14.5t-1.5 13.5v5q-5 12 -11 23t-12 26
q-6 -9 -6.5 -16t-0.5 -13q-6 -7 -12.5 -16.5t-10.5 -17.5q-7 -12 -10.5 -31.5t-9 -40t-15 -39.5t-28.5 -30q-4 -4 -4 -6q0 -1 0.5 -1.5t0.5 -1.5l3 -12q2 -6 5 -12t3 -10q-7 -3 -19 -5t-25 -3.5t-24.5 -2.5t-16.5 -3zM392 432q-5 0 -12 4q5 -6 12.5 -11.5t15.5 -10.5
q17 -12 32 -29q11 8 11 16q0 6 -3.5 11l-7.5 11h-5v-5q0 -1 5 -4q-6 -2 -7 -2q-3 0 -6.5 1t-7.5 1q-6 3 -11 7t-5 11h-11zM341 555l9.5 -11l7.5 -8.5t11 -10.5l20 -17h14l-9 10h-5l-10 18q-12 3 -19.5 9.5t-18.5 9.5zM150 367q0 2 -0.5 6t-1.5 9l-6 21h-17v-4q6 0 7 -0.5
t1 -4.5l-8 -20q14 -3 16.5 -7t8.5 -10v10zM280 659q7 -7 11 -14.5t17 -13.5l-12 38l-5 2q-10 2 -11 2v-14zM133 437q-5 3 -7 12t-6 16l-10 -33q8 0 13 -5t10 -9v19zM403 456l8 4q4 -7 11.5 -11t12.5 -8l-9 19q-6 0 -10 0.5t-7 2t-7.5 4t-12.5 7.5zM333 446q0 -4 1 -5t7 -4
q0 3 -0.5 4t-7.5 5zM379 480v8h-8z" />
    <glyph glyph-name="underscore" unicode="_" horiz-adv-x="591" 
d="M511 -34q4 0 49 -20q0 -15 -11.5 -22.5t-21.5 -17.5h7q5 -10 5.5 -19.5t0.5 -20.5q5 -5 10 -6.5t10 -6.5v-13q-5 -5 -14 -7t-19 -7q-11 22 -16 23l-6 -6q9 -13 10 -12q2 2 2 -18q-31 -5 -44 -9q-12 -4 -49 -4q-3 6 -13 6t-20.5 -3t-12.5 -3q-11 9 -42 12t-65 3h-9t-18 -1
t-19.5 -1h-13.5q-10 5 -20.5 9t-25.5 4q-6 1 -7.5 1.5t2.5 0.5h7l-9.5 -1.5t-25.5 -3.5l-37.5 -4.5l-45.5 -5.5q-5 25 -10 46l-10 41q7 5 9.5 13t3 16.5t1.5 16.5t6 13q7 0 18.5 -3t24 -7t24 -7t19.5 -3q-13 12 -11.5 16t36.5 4q3 0 44 -3q42 -3 67 -3q-5 5 11 6
q8 0 32 -0.5t65 -1.5q37 -12 132 9zM378 -114q5 -5 6.5 -9t6.5 -4q5 -5 13.5 -6.5t13.5 -6.5t5.5 -10t0.5 -10h-26v-7q20 0 39 1.5t34 11.5q-30 11 -51.5 23t-41.5 17zM110 -130q10 -11 19 -14t14 -13h40v-7h14v7q-20 8 -31.5 12t-20 6.5t-16 4t-19.5 4.5zM311 -134
q15 -15 17.5 -18t2.5 -8h40q-10 5 -16.5 6.5t-16.5 6.5v7zM278 -120v-14h20q0 5 -2.5 7t-17.5 7z" />
    <glyph glyph-name="grave" unicode="`" horiz-adv-x="240" 
d="M129 602l-14 13.5t-9 8.5l-8 8q-2 2 -4 3.5l-10 7.5t-24 20.5l-47 43.5h9q14 0 16 -2h1q0 3 1 4q-9 4 -9 8q0 1 1 1l1 1q-1 1 -8 4l-4 10t-2 10t1 6l14 1l22 -16q10 1 20.5 1.5t20.5 1.5l4 -9q4 12 19.5 13.5t27.5 7.5q23 -36 34.5 -60.5t14.5 -43.5l10 -17t14 -15v-1
q0 -7 -10 -9t-24 -2q-12 0 -24.5 0.5t-22.5 0.5h-11zM136 716l-6 -1h-2l23 -16z" />
    <glyph glyph-name="a" unicode="a" horiz-adv-x="462" 
d="M202 -14l-14 4t-15 4q-2 1 -5 3q-5 4 -8 14q-2 1 -4 1t-6 1q-2 -5 -6.5 -6t-10 -0.5t-10 1.5t-7.5 0q-5 -5 -18 0.5t-28 10.5q-2 7 -5 14t-5 14l-20 58.5t-16 72.5q3 22 10 35q9 15 37 41q30 27 31 28l5 -4q26 25 54 31.5t68 6.5q10 5 11.5 7t1.5 7q10 5 19.5 9t20.5 4
v20q-3 15 -3.5 27t-1.5 20.5t-4 13.5t-11 7q-15 4 -29.5 7t-36.5 10q-5 0 -10 -3t-10 -3q-1 -5 -2 -9.5t-2 -9.5q-2 -9 -3 -21.5t-6 -32.5h-10.5t-17.5 -1q7 1 -4 8q-5 3 -18 2q-13 -8 -33 -7.5t-49 5.5q0 22 3.5 38t10.5 29.5t17 27l22 30.5q14 15 30 25.5t36 20.5
q28 5 57.5 12.5t58.5 7.5q11 0 21 -1t21 -5v-7l73 -33q2 -10 5.5 -15.5t7.5 -10.5q2 -2 5 -4.5t5 -4.5q3 -3 -22 -2q37 -23 32 -35q11 -24 9 -44q0 -9 -3 -31q-2 -23 -10 -21q0 -51 -3 -37q3 -29 4.5 -49l2.5 -34t1 -22.5v-14.5q0 -14 -5 -26q-1 0 5 -3q-2 -32 -5 -13
q-3 -37 -10 -45l6 -17l8 -20h13q0 -20 0.5 -39.5t5.5 -39.5h-42q-16 0 -32 2t-30.5 7.5t-25 16t-15.5 27.5h-20q-10 -10 -17 -18.5l-13.5 -16t-15 -14t-20.5 -11.5zM183 79q6 3 11 3t9.5 -1.5t12.5 -1.5l13.5 13t19.5 13q12 20 18.5 39.5t10 40.5t4 43.5t0.5 48.5
q-2 0 -4 0.5t-5 0.5q-11 0 -26 -3.5t-30 -10t-26.5 -17t-14.5 -23.5q-23 -12 -28.5 -24.5t-5.5 -33.5q0 -7 0.5 -15.5t0.5 -18.5q5 0 6.5 -1t6.5 -6q-5 -10 -9 -15.5t-4 -10.5l7 -7q19 -5 23.5 -7t9.5 -6zM268 514q11 0 16.5 8.5t10.5 18.5q-10 0 -19 3t-14 3v-10
q0 -8 0.5 -11.5t5.5 -11.5zM334 33q5 0 10 3t10 3q-5 5 -5.5 10.5t-0.5 16.5q-11 -5 -16.5 -6t-10.5 -1v-13q0 -5 4 -6.5t9 -6.5zM341 270q5 5 10 6t10 1q0 10 8.5 27t14.5 52l-27.5 -40t-12.5 -20t-5 -9.5t-5 -9.5q2 0 3 -1q4 -1 4 -6zM216 488l6 13q-10 0 -15.5 -0.5
t-10.5 -5.5v-7h20zM374 26v7q-4 4 -7.5 5t-5.5 5v-17h13zM367 181q15 15 18 17.5t8 2.5l5 43q0 29 -9 1q-9 -27 -9 -37h-13v-27zM360 155h13l-6 13q-5 0 -6 -1.5t-1 -11.5zM109 251q-10 -5 -19.5 -12.5t-20.5 -7.5l-13 -33zM104 197l-7 7h-7l-11 -31.5t-6 -19.5l-4 -15.5
l-5 -19.5q10 10 13 19t13 14v40h14v6z" />
    <glyph glyph-name="b" unicode="b" horiz-adv-x="479" 
d="M183 514q4 0 5.5 -1.5t3.5 -1.5t5 3q2 14 4 17.5t7 3.5q2 0 6 -0.5t9 -0.5v-6q5 -5 6.5 -6t6.5 -1q3 7 4.5 11.5t4 7t6.5 4t12 3.5v-13l6 -6q10 5 11.5 7t1.5 12h14l13 -13q7 7 15 7q9 0 18.5 -7t17.5 -16.5t13.5 -19.5t7.5 -17q12 -2 19 -5.5t11.5 -9t8 -13.5t8.5 -18
q11 0 11 -22q0 -6 -0.5 -13.5t-0.5 -15.5q0 -13 2.5 -24t13.5 -17q0 -15 1.5 -23.5t11.5 -22.5q-5 -12 -5.5 -26t-0.5 -29v-18l-7 -7q-5 -32 -6 -44.5t-1 -16.5v-5h7l-7 -59h-6l-8 -16l-6 -11l-8 -13q-2 -4 -4.5 -8.5t-6.5 -10.5q-17 -5 -41.5 -14.5t-45.5 -9.5q-12 0 -19 4
l-20 -20q-5 0 -9.5 3.5t-9.5 3.5q0 -5 -7.5 -7t-12.5 -7q-15 15 -27.5 17l-22 3.5t-17 8t-12.5 31.5v-46q-20 -5 -40 -7t-40 -7q-10 11 -16 23.5t-17 23.5v59q-11 15 -14.5 43.5t-3.5 62.5q0 45 4 90.5t8 74.5q-5 14 -6 30t-1 36q1 13 1.5 26.5t0.5 27.5q0 33 -1.5 68
t-1.5 70t3 66.5t11 57.5q15 0 22.5 -12l17.5 -27v13q10 5 19.5 6t20.5 1q0 5 4 9.5t9 9.5h13q0 -5 1 -13.5t6 -19.5q-11 -20 -20.5 -39.5l-19.5 -39.5l7 -6q10 20 18 33t28 13q5 -35 9 -69.5t4 -69.5q-5 0 -6 -4.5t-1 -15.5zM256 66q5 3 7 4.5t10 1.5h16v13h7v7h13v13
q0 11 0.5 21.5t5.5 18.5h7v53q0 10 1 20.5t6 25.5q-4 8 -5 16.5t-1 18.5q0 18 3 37.5t3 39.5q-5 15 -7 26.5t-7 26.5l-13 13v20q-20 7 -38 7q-14 0 -26 -4t-28 -10q0 -35 -7.5 -65.5t-12.5 -59.5q0 -10 1 -23t6 -23h6q-14 -27 -17.5 -50.5t-3.5 -48.5q0 -11 0.5 -22.5
t0.5 -24.5h7q5 -10 6.5 -16t6.5 -17h7v7h6v13q5 5 7 5t3 -1.5t4 -3.5l6 -6q5 -5 6 -11t1 -16q5 0 6.5 -0.5t6.5 -5.5zM111 495q3 0 4 1l4 2q1 1 5 3q0 10 3.5 16.5t3.5 16.5h19v-26h7q0 20 -1 39.5t-6 39.5q-14 -35 -24 -56.5t-15 -35.5zM98 39q5 0 13 3.5t13 3.5l7 72
q-10 -14 -17.5 -35.5t-22.5 -36.5q0 -7 7 -7zM111 270q5 5 10.5 13.5t15.5 13.5v39q0 3 2 3h1q1 -1 2 -1.5t2 -1.5v20h-7l-12.5 -34t-6.5 -20.5l-3.5 -15t-3.5 -16.5zM124 422q15 10 18 12.5t8 7.5v39q-5 -10 -6.5 -16t-6.5 -17h-6zM375 59q15 15 24 28t9 38
q-6 -15 -16.5 -27t-10.5 -32h-6v-7zM401 283l11 20t6.5 12.5t4.5 11t5 16.5h-7v-7h-7q0 -10 -3 -19.5t-3 -19.5h-7v-14zM170 382h7q0 5 3 11t3 16h-6v26q-5 -15 -6 -26.5t-1 -26.5zM411 147q2 6 2.5 10.5t0.5 8.5v12q-5 -5 -6 -21v-23q1 10 3 13zM117 389h7v13q-5 0 -6 -1.5
t-1 -11.5zM355 277l7 20h-7v-20zM335 99h7v16q-1 -2 -2 -3.5t-2 -3.5q-3 -5 -3 -9zM296 33q10 5 11.5 6.5t1.5 6.5q-5 0 -6.5 -4t-6.5 -9zM72 478q0 -3 2 5z" />
    <glyph glyph-name="c" unicode="c" horiz-adv-x="457" 
d="M208 -20q-5 5 -13 9.5t-13 4.5q0 10 1 12t6 7v7q-10 -5 -12 -9t-2 -9v-2q-14 0 -18.5 5t-14.5 15h-26v13q-10 0 -18 -1.5t-13 -1.5q-6 0 -9 3l7 33q-42 7 -42 37q0 14 9 29l-15 79t-7 76q0 9 0.5 18t1.5 19h-6q5 14 9.5 25t9.5 21q0 2 -3 5q-1 1 -3 1v27h6q3 12 10 27.5
t17.5 29t24 23.5t28.5 12q0 5 3 13.5t3 13.5q7 0 13 3l13 6q12 5 18 5q7 0 9 -1q0 -5 3.5 -10t3.5 -10q5 15 11.5 20.5t21.5 5.5v-26h13q5 15 10.5 25.5t15.5 20.5h53l38 -21q13 -7 23 -14t18 -16.5t14.5 -22.5t12.5 -31h13l-9 -20.5t-4 -19.5q5 -12 5 -27q0 -17 -5.5 -34
t-13.5 -31h-19q-5 12 -15.5 16t-22.5 4.5t-23.5 0.5t-18.5 5q-2 17 -6 35.5t-11.5 33.5t-19.5 25t-29 10q-6 0 -12.5 -1t-13.5 -4q-8 -8 -17 -15t-16.5 -15t-13 -17t-5.5 -19t6 -20q0 -5 -3.5 -14t-3.5 -19q5 -17 7.5 -38t2.5 -41t-2.5 -39.5t-7.5 -33.5h-6q-5 -5 -6 -9.5
t-1 -9.5h-7q0 -11 8.5 -22t18.5 -11q0 -11 4 -21.5t9 -25.5h7v-6q5 0 6.5 -4t6.5 -9q35 0 53.5 13.5t38.5 38.5q0 25 1 45.5t6 40.5l13 13q3 0 5.5 -0.5t5.5 -0.5q20 0 35 4t26 4q14 0 20.5 -11.5t6.5 -47.5q6 -14 6 -28q0 -25 -10.5 -48.5t-15.5 -42.5q-2 0 -9 -3
t-15.5 -7.5t-18 -9t-16.5 -7.5h-13q-12 0 -24 -1t-23 -5q-20 -5 -35.5 -10.5t-30.5 -16.5zM92 301q-5 0 -6.5 -1t-6.5 -6v-26q-5 -5 -10 -6t-10 -1q0 5 -3.5 13.5t-3.5 13.5h-6q5 -20 8 -37t18 -37q5 30 12.5 51t7.5 36zM157 467l7 -20h-7v-13h7q8 29 10.5 41t2.5 22v10
q-10 -10 -20 -40zM67 362q-10 -15 -12.5 -17.5t-7.5 -2.5l7 -40v5q0 6 0.5 13t5.5 15h7v27zM400 373h-7v-20q5 0 6 2.5t1 17.5zM262 545v-20q5 5 5 8q0 2 -1.5 4.5t-3.5 7.5zM103 134q5 5 8 13.5t13 12.5l-4 40h6l1 20l-13 1q-6 -29 -7.5 -41.5t-2.5 -24.5zM339 199
q-5 0 -10.5 -10t-15.5 -10l13 -54q5 11 6.5 25t6.5 29v20z" />
    <glyph glyph-name="d" unicode="d" horiz-adv-x="473" 
d="M310 24q-3 -1 -9 -7q-5 0 -10 3.5t-10 3.5q-2 -10 -3.5 -14.5t-4 -6t-7 -2.5t-11.5 -3q0 5 -1 6.5t-6 6.5h-6q-5 -10 -11 -15t-16 -5v13l-6 7q-11 -10 -13 -12.5t-7 -7.5h-7l-13 13q-7 -7 -16 -7t-18.5 6t-18 14.5t-15.5 17.5t-11 15q-20 10 -28 18.5t-18 28.5
q-10 0 -10 17q0 9 1.5 21.5t1.5 24.5q0 10 -2.5 18t-10.5 11q0 20 -1.5 28t-11.5 18q0 14 1.5 26.5t1.5 25.5t-3 27h6q3 25 4.5 38.5t2.5 19.5t2.5 7t3.5 1l-6 7v53h13l8 19.5t6 13t7 11t12 15.5q8 4 19 9t23 9.5t24 8t23 3.5q9 0 17 -3q0 5 4 9.5t9 9.5q20 0 20 -13
q5 5 13 9t13 4q12 -15 23 -16.5t20.5 -2t17 -6t12.5 -27.5h6v13h7q0 54 -3.5 112t-3.5 112l39 10t34 10q10 -15 19.5 -25.5t19.5 -20.5q0 -15 -3 -30t-3 -30q11 -18 14.5 -50t3.5 -69q0 -45 -2.5 -88t-2.5 -70q0 -15 3.5 -29.5t3.5 -29.5q-2 -17 -2 -33v-33q0 -25 0.5 -50.5
t0.5 -50.5q0 -42 -3.5 -82t-15.5 -75q-15 5 -21.5 15t-11.5 25q0 -5 -3.5 -6.5t-3.5 -6.5h-33q-5 -10 -6.5 -16t-6.5 -11h-13q0 11 -3.5 20.5t-3.5 19.5v5q-1 -4 -4 -5zM301 156q0 -5 3 -5q4 0 4 5q1 1 1 3v1l-2 3q-2 6 -2 3q0 1 3 3l-7 13q2 1 3.5 1t3.5 1v45h6v13
q6 9 6 36q0 15 -1.5 32.5t-3.5 35.5l-4 35.5t-3 31.5q-7 -4 -14 -4q-6 0 -6 11h-7v5q0 6 -1 13t-5 15h-7v-13l-7 6v-19h-19q3 3 3 5t-1.5 3t-1.5 5h-7q0 5 -1 10t-6 10q-5 0 -5.5 1t-0.5 12q-10 -5 -14 -6t-19 -1l-7 -13h-6v-13h-7q0 -10 -3.5 -23t-3.5 -23q-5 -5 -7 -5
q-1 0 -6 5q5 -15 6 -26.5t1 -26.5q0 -10 -3.5 -21t-3.5 -25q3 -17 3 -33q0 -19 -2.5 -39.5t-6.5 -40.5q5 -14 9.5 -29t9.5 -30q5 0 7 -4t7 -9l13 -13q20 -5 39 -5q15 0 30.5 2.5t29.5 8.5l13 13l-7 14h-6q5 5 6.5 10.5t6.5 15.5zM380 697q-5 -5 -14 -6.5t-19 -6.5v-73
q10 20 17.5 39t22.5 34q0 5 -3.5 6.5t-3.5 6.5zM327 215q-3 -9 -3 -20q0 -10 1.5 -21t1.5 -25q11 30 23 51.5t17 41.5q-5 -5 -6.5 -6t-6.5 -1q-5 -10 -6.5 -19t-6.5 -14q0 -5 -4.5 -5.5t-9.5 -0.5v19zM77 255q-8 -12 -12 -19.5l-7 -13.5t-6 -13.5l-8 -19.5h6v7h7
q5 10 6.5 19.5t6.5 19.5q2 0 3 1q4 1 4 6v13zM103 479q-15 -20 -24 -33t-9 -33q5 11 15.5 24.5t10.5 28.5h7v13zM321 70v-26q10 15 15.5 29.5t10.5 29.5l-6 7q0 -29 -20 -40zM70 407q-8 -14 -10.5 -21.5t-2.5 -16.5v-15q10 10 11.5 26.5t1.5 26.5zM341 301q-4 -7 -6.5 -10.5
t-3.5 -4.5q-2 -2 -2.5 -3t-1.5 -2q0 -6 7 -6v13h7l6 26q-3 -3 -5 -9q-1 -2 -1 -4v0zM116 262v-27h7q0 5 -1 10.5t-6 16.5zM360 341l-6 6v-19q5 0 5.5 1t0.5 12zM400 268v-26q5 12 5 13q0 2 -1.5 5t-3.5 8zM131 426l5 -13v20q-2 -3 -4 -5zM176 506q-5 -5 -6 -7.5t-1 -7.5
q0 2 3 5q4 4 4 10z" />
    <glyph glyph-name="e" unicode="e" horiz-adv-x="492" 
d="M229 -41q-11 5 -13 8.5t-7 17.5q-12 3 -20 4.5t-13.5 4.5t-10 8t-9.5 16h-33q-5 3 -6 10q-1 1 -1 4l-19 9q-4 2 -7.5 4.5t-6.5 5.5q-5 9 -5.5 16t-0.5 15v9q-10 5 -16 9t-11 4q-5 55 -10.5 98.5t-15.5 93.5q5 15 7.5 23.5t4.5 14.5t3.5 12t4.5 16l-7 6v20h7q5 40 16.5 68
t36.5 57q15 4 29.5 11.5t29.5 14.5t29.5 12t29.5 5q9 0 20 -3q1 1 4 1q7 0 12.5 -8t11 -18t11.5 -19.5t14 -13.5q4 0 12.5 6.5l18.5 14l19 14t15 6.5q2 0 2.5 -0.5t1.5 -0.5v-63q1 -1 3 -1q6 0 9 7.5t5.5 16.5t5.5 16.5t9 7.5q-1 0 5 -2q1 4 4 4q4 0 9.5 -9l12 -20t13 -20.5
t13.5 -10.5q0 -2 0.5 -3t0.5 -2t1 -1t0 5t-1 8q0 4 1 4l5 -5q9 -32 13 -59t4 -54q0 -16 -1 -32t-3 -33q-5 -5 -6.5 -13t-6.5 -13q-5 0 -7.5 -1.5t-12.5 -12.5q-15 0 -29.5 -4t-29.5 -9h-73q-18 5 -31 7t-24 2q-14 0 -28 -3.5t-36 -11.5q0 -30 7.5 -60.5t12.5 -65.5l20 -33
h40q25 25 44.5 51t34.5 61h99l-7 -112q-10 -15 -30.5 -28t-35.5 -18q0 -5 -7.5 -11t-16.5 -11.5t-17.5 -10t-11.5 -7.5q-25 0 -45 -10.5t-40 -15.5zM196 335q20 0 39.5 1t39.5 6q10 0 19.5 4t19.5 9q-5 19 -11.5 40.5t-17 40t-26 32.5t-37.5 19q-5 -10 -10 -16.5t-10 -16.5
h-6l-20 -53q0 -15 0.5 -30.5t5.5 -35.5h14zM377 416q15 8 27 22t12 40v8h-20q-3 -2 -5.5 -7.5t-4.5 -11t-4.5 -10t-5.5 -4.5v-6l-20 -45q5 4 10.5 7t10.5 7zM369 371h-1q-3 0 -12 -6l-19.5 -13.5l-20.5 -14.5t-14 -8l46 4zM111 255q-8 -12 -12 -19.5l-7 -13.5t-6 -13.5
l-8 -19.5h6v7h7q5 10 6.5 19.5t6.5 19.5q2 0 3 1q4 1 4 6v13zM137 479q-15 -20 -24 -33t-9 -33q5 11 15.5 24.5t10.5 28.5h7v13zM355 70v-26q10 15 15.5 29.5t10.5 29.5l-6 7q0 -29 -20 -40zM104 407q-8 -14 -10.5 -21.5t-2.5 -16.5v-15q10 10 11.5 26.5t1.5 26.5zM150 262
v-27h7q0 5 -1 10.5t-6 16.5zM167 417q1 -1 1.5 -2t1.5 -2v9q-1 -1 -3 -5z" />
    <glyph glyph-name="f" unicode="f" horiz-adv-x="323" 
d="M281 540q4 0 49 -20q0 -6 -12 -13q-5 -4 -9 -4q1 -3 1 -13q5 -5 10 -6.5t10 -6.5v-13q-5 -5 -14 -7t-19 -7q-11 22 -16 23l-6 -6q9 -13 10 -12q2 2 2 -18q-30 -5 -29 -9t-34 -4q-1 3 -7 5q-2 -32 -3 -57q-3 -33 -3 -58q5 -15 5.5 -30t0.5 -29q0 -39 3.5 -85.5t3.5 -91.5
q0 -29 -2.5 -56.5t-10.5 -50.5q-10 0 -16 3.5t-9.5 8.5t-6.5 10.5t-8 10.5l-4 -4q-3 -5 -3 -9h-33q-5 -5 -6.5 -10t-6.5 -10h-13q-5 5 -6.5 14t-6.5 19q10 15 19.5 33t19.5 33l-6 6q-10 -20 -18 -29.5t-28 -9.5q-5 29 -9.5 59t-4.5 60q5 2 6.5 7t1.5 11q0 8 -2.5 16.5
t-5.5 11.5q4 4 7 15.5t5 26t2.5 31.5t0.5 33q0 20 -0.5 35.5t-0.5 23.5q5 10 9 20.5t4 25.5v27q-2 0 -3 1q-4 -1 -11 -1.5t-17 -2.5q-17 -2 -27.5 -5t-14.5 -5q-5 25 -10 46l-10 41q8 5 9 -7q3 -12 3 -4q1 9 2 17t6 13q7 0 18 -3t4 -7t15 -7q15 -2 24 -3l1 4q-8 9 -7 12
t10 4l1 5q0 25 -3 49.5t-3 49.5l16 10q12 -2 10.5 5t-1.5 13q0 10 4 18t10 14q17 12 36 20t45 8q6 0 12 -0.5t13 -1.5h26h2q6 1 33 0q28 0 29 -1q1 -2 6 0q3 -18 1.5 -25t-5.5 -11l7 -7v-9q-4 0 0 -4q5 -4 2.5 -3.5t-8.5 -9.5l2 -6l-2 -7q-8 10 -5 -17q-4 6 -9 4v-3h-33
q-25 0 -39 -9.5t-14 -29.5v-47l1 -11q30 2 63 13zM118 538h7q10 15 16.5 30t16.5 30l-7 6q-5 -5 -14 -5.5t-19 -0.5v-60zM145 195q-3 0 -4 -1q-2 -1 -5 -2t-5 -3q0 -5 -3 -13.5t-3 -13.5q-5 0 -10 -3t-10 -3v26h-7q0 -20 1 -35.5t6 -30.5l24.5 43.5t15.5 35.5zM145 400
q-11 -10 -16.5 -18.5t-10.5 -8.5v-39h-13v-13h13l11 30t6.5 18.5l4.5 14zM243 518q15 -15 17.5 -18t2.5 -8h40q-10 5 -16.5 6.5t-16.5 6.5v7zM125 261l-20 -20l-7 -33q5 5 9.5 13.5t4.5 13.5h13v26zM40 484q10 -11 19 -14t14 -13h12l-6 11v6q-1 1 -4 1q-8 3 -15.5 4.5
t-19.5 4.5zM138 288h-7v-14q5 0 6 1.5t1 12.5zM204 545l-7 20v-7q0 -3 1 -4q1 -6 6 -9zM264 701q-4 0 -2 -0.5t9 -1.5q-2 2 -7 2zM183 212q0 -4 -3 -8q3 3 3 5q1 1 1 7z" />
    <glyph glyph-name="g" unicode="g" horiz-adv-x="487" 
d="M340 -173q-17 -2 -26.5 -4t-20 -4t-26 -3.5t-45.5 -1.5q0 4 -9 4t-24 -2.5t-29 -2.5q-11 0 -21 3t-15 11q-3 -1 -5.5 -1.5t-5.5 -0.5q-16 0 -30 15t-31 46l-7 20q14 10 18.5 14t4.5 5t-3.5 1.5t-8 2t-8 6.5t-3.5 17l40 -13q0 -1 1 -1q2 0 10 7.5t13 7.5q1 -1 2 -1h59v-7
l6 -6l7 -20l-7 7q-5 -5 -9 -7.5t-4 -12.5h13v-20q5 5 10 9t10 4v13q10 -5 19.5 -12t19.5 -7l28 8.5t19 8t15 12.5t17 23q0 29 3.5 54t3.5 64q-9 -10 -20 -19.5t-22.5 -17.5t-21.5 -13t-16 -5q-5 0 -6 3q0 -6 -5 -6t-11 3t-10 3q-15 15 -27.5 16.5t-23 2t-19 6t-15.5 27.5h-6
v-13q-25 5 -40.5 16.5t-25.5 35.5q-5 0 -8 7.5t-5 20t-2.5 28.5t-0.5 33q0 35 1.5 66.5t1.5 41.5q2 7 3 8l2 7q2 5 3.5 12t4.5 19q-5 0 -13 3t-13 3q5 10 6.5 15.5t6.5 10.5q2 17 13 39t26.5 44t33 40t32.5 28q10 0 15.5 -3t10.5 -3q2 13 4 16.5t7 3.5q2 0 6 -0.5t9 -0.5
q1 -1 1.5 -2t1.5 -2q4 -4 4 -9h13q5 15 8 18t18 8v-13l7 -6q10 5 12 7t7 12h13q0 -10 1.5 -11.5t11.5 -1.5q10 10 26 10q19 0 35.5 -12.5t24.5 -23.5q2 -1 8 -1q11 0 20.5 5.5t16.5 5.5q9 0 13 -10q8 0 8 -19q0 -20 -5 -50t-5 -56q0 -15 3.5 -26t12.5 -13q0 -14 0.5 -22.5
t5.5 -23.5v-72q-5 0 -5.5 -0.5t-0.5 -2.5v-3q-3 -22 -4.5 -34t-2.5 -18t-2.5 -8.5t-4.5 -5.5h7l-7 -52h-6q0 -5 -3.5 -10.5t-3.5 -15.5l20 6v-48q0 -28 -1 -43.5t-6 -32.5q-5 0 -12 -8.5t-14 -19t-14 -20t-12 -11.5q14 0 24 3t16 3t6 -6l-14 -14.5l-25 -25t-28.5 -25
t-24.5 -14.5zM229 83q4 4 8.5 5t24.5 1v13h13v7h6q5 15 6.5 26.5t6.5 25.5h7v46q0 10 3 20.5t3 25.5q-2 5 -2 10v10q0 22 4.5 45t4.5 46q-5 15 -9 30t-4 29q-10 0 -12.5 3.5t-7.5 3.5v20q-20 7 -39 7q-15 0 -29 -4t-30 -10q0 -29 -8 -59t-18 -59q0 -15 3 -26.5t3 -25.5h7
q-14 -27 -17.5 -48.5t-3.5 -44.5q0 -11 0.5 -21.5t0.5 -23.5h7q5 -10 5.5 -17t0.5 -16h13v7h7v13q5 5 10 5q2 0 10 -5v-7h6q0 -5 1 -10.5t6 -15.5q5 0 6.5 -0.5t6.5 -5.5zM314 -160h20q0 2 5.5 7.5l12 12l12 12.5t5.5 10q0 2 -3 4q0 -5 -14.5 -9.5t-24.5 -9.5l-20 -20z
M78 102q5 5 10 6.5t10 6.5q0 11 0.5 23.5t5.5 22.5q-10 0 -13 -0.5t-13 -5.5v-53zM104 358h7l14.5 26t14.5 12q4 0 4 -5q5 10 6.5 15.5t6.5 10.5h-7l-6 26q-5 -5 -6 -8.5t-1 -17.5l-15.5 -23.5t-8.5 -14t-4.5 -10t-4.5 -11.5zM399 24q10 5 13 7t13 12q3 16 3 23t-2 7
q-1 0 -1 -3h-6q-5 -9 -10 -20.5t-10 -25.5zM383 102q12 15 16 33q-10 -10 -21.5 -24t-11.5 -28q5 5 9.5 10t7.5 9zM386 292q15 18 20.5 25.5t10.5 17.5l8 16h-6v-6h-7l-19 -40zM393 142q7 14 10 21t3 15v16q-10 -10 -11.5 -26t-1.5 -26zM314 115h7l5 13q0 2 -1.5 3t-3.5 4
q0 -5 -3.5 -10t-3.5 -10zM340 286l7 26h-7v-26zM353 70l13 13h-13v-13zM124 319h7v13zM275 50q5 5 5.5 6.5t0.5 6.5q-1 -1 -1.5 -2t-1.5 -2q-3 -3 -3 -9zM399 240l6 6q1 1 1 5q-1 -1 -1.5 -2t-2.5 -3q-3 -2 -3 -6z" />
    <glyph glyph-name="h" unicode="h" horiz-adv-x="488" 
d="M130 739q10 -10 20 -23t20 -23q0 -15 -3.5 -30t-3.5 -30q11 -15 17 -42t6 -59q0 -22 -3 -44q5 7 10.5 13l10.5 12v-4q5 2 8.5 4t7.5 4v-7q4 3 8.5 8.5t10 11t11 10t11.5 4.5q5 0 6 -1v-19q14 5 29 20.5t30 25.5v-27q10 0 15 -7t5 -12q6 6 6 14v5q8 2 13 3.5t10 1.5
t10.5 -1.5t13.5 -3.5v-6q5 0 6.5 -1t6.5 -6v-6h6v-7q11 -19 27 -26l8 2q8 0 12.5 -8t4.5 -16q0 -18 -12 -18v-13h13q0 -3 1 -4q1 -6 6 -9h6q-5 -11 -9 -17t-4 -16t-1.5 -26t-4 -35t-4 -39t-1.5 -37q0 -11 1 -20.5t4 -14.5q-2 -11 -3 -24.5t-1 -27.5q0 -35 4 -70.5t4 -70.5
q0 -31 -4 -51q-6 0 -10 -4q-1 -1 -2 -1.5t-2 -1.5l-118 13q0 39 2 83t2 89q0 36 -2.5 71.5t-8.5 67.5v66q-14 5 -14 16q0 10 7 19.5t7 16.5q-4 4 -7 5.5t-14 1.5h-19q-5 18 -16.5 26t-24.5 8q-15 0 -29 -11q-8 -6 -12 -16q-14 -20 -14 -62l-7 -7q0 -15 1 -30t6 -29
q-3 -27 -3 -57q0 -5 0.5 -11t0.5 -11l2 -83v-23q0 -35 -3 -69t-11 -63q-10 0 -15.5 3.5t-9 9t-6.5 12.5t-8 14q0 -5 -1 -9t-6 -4q-10 -5 -17 -5.5t-16 -0.5q-5 -5 -6.5 -10t-6.5 -10h-13q-5 5 -6.5 14t-6.5 19l19.5 39.5l19.5 39.5l-6 7q-10 -20 -18.5 -33.5t-28.5 -13.5
q-5 30 -9 66.5t-4 65.5q6 4 6 14t-3 21t-3 18q4 6 7 19t4.5 29.5t2 35t0.5 35.5q0 23 -0.5 40.5t-0.5 25.5q5 15 7 25.5t7 20.5q0 66 -4.5 129l-9.5 129q25 0 45.5 4t40.5 9zM399 101v7q10 5 15.5 10.5t10.5 15.5h7v73h13q-5 5 -6 10t-1 10q-15 -20 -17.5 -40t-2.5 -40
q-14 -5 -20 -20.5t-6 -25.5h7zM117 686q-5 0 -14 -3.5t-19 -3.5v-79q10 20 17.5 42.5t22.5 36.5q0 2 -1 3q-1 4 -6 4zM110 231q-3 0 -4 -1q-5 -2 -9 -6q0 -10 -3 -16.5t-3 -16.5h-20v26h-13q5 -25 6.5 -42t6.5 -37l24.5 56.5t14.5 36.5zM392 9v11q0 8 1 14.5t6 20.5
q-15 -5 -22.5 -11.5t-17.5 -21.5q5 0 6.5 -4t6.5 -9h20zM104 455q-5 -5 -10 -13t-10 -13v-40q-5 -5 -6.5 -6t-6.5 -1v-13h6l15.5 34.5t8 21t3 15t0.5 15.5zM91 303q-11 -10 -13 -12.5t-7 -7.5l-7 -39q5 10 9 16.5t4 16.5h14v26zM333 484q5 5 9.5 6t9.5 1q0 5 1 13t6 13
q-5 0 -8.5 -4t-17.5 -29zM104 336h-7v-20q5 0 6 2.5t1 17.5zM435 251q3 10 3 15h-6v-31q1 4 1.5 8t1.5 8zM399 458q5 0 6.5 3t6.5 3v13q-5 -5 -6.5 -9.5t-6.5 -9.5zM425 55q5 5 5 6q0 2 -1.5 3t-3.5 4v-13z" />
    <glyph glyph-name="i" unicode="i" horiz-adv-x="218" 
d="M85 -19q-10 11 -20 20.5l-20 19.5q0 10 3.5 20.5t3.5 25.5q-10 12 -13.5 31.5t-3.5 42.5q0 36 5 73t5 58q0 15 -3 26.5t-3 26.5q2 27 1.5 58t1 63t6.5 63.5t17 59.5q15 0 22 -11.5t18 -21.5v13h39q0 5 4 10t9 10h14q0 -10 3 -16.5t3 -16.5q-10 -10 -19.5 -27.5
t-19.5 -32.5h6q10 15 18 24t28 9q4 -17 7 -36.5t3 -38.5q0 -15 -3 -30q-3 0 -3 -8q0 -7 1.5 -16t1.5 -16q-7 -5 -11 -21.5t-6 -37t-2.5 -40.5t-0.5 -32v-7l-9 -20.5t-4 -19.5q-3 -30 -3 -61q0 -32 1.5 -64t1.5 -66q-20 0 -39.5 -4.5zM155 727q10 -5 13.5 -3.5t13.5 -2.5
q0 -11 -1 -16.5t-6 -10.5q11 -24 11 -50q0 -21 -4 -36q-20 0 -34.5 1t-25.5 6v-7h-33q-5 -5 -9 -6.5t-4 -6.5h-20q0 5 -3 10t-3 10q4 4 4 5l-1 1l-2 1q0 1 5 6l7 20q-8 -8 -7.5 -12t-4.5 -4q-4 0 -14 3q-4 11 -7 21t-3 21q0 8 3 17q6 4 6 9t-3 9.5t-3 8.5h2q6 0 9.5 -8.5
t5.5 -19.5q2 -13 3 -28v3q5 5 9 10t4 10q1 5 1.5 8t0.5 5q0 6 -5 6h-2q-3 0 -5.5 3t-2.5 17h105zM118 371q5 5 6.5 5.5t6.5 0.5q0 5 4 13.5t9 13.5h13v-20h14v7q0 14 -2 26.5t-12 25.5q-10 -25 -22 -41t-17 -31zM91 28h33l7 59q-10 -15 -17.5 -29t-22.5 -24v-6zM111 199
q10 5 16 13.5t11 13.5l6 26q0 5 1 5l1 -1q2 -2 3 -2.5t2 -1.5v13h-7l-15.5 -23.5t-8.5 -14.5t-4.5 -12t-4.5 -16zM116 674q-5 -5 -10.5 -9.5t-16.5 -9.5v-20h-6l-7 -7h13l11 16t6.5 10.5t4.5 8.5t5 11zM131 318q15 10 18 11.5t8 1.5l7 33q-5 -5 -9 -13t-4 -13h-13zM162 648
q-15 -10 -18 -11.5t-8 -1.5v-18q0 3 3 8q3 4 3 10h13zM118 292h13v13q-5 0 -6.5 -1.5t-6.5 -11.5zM152 714q-3 -2 -3 -7q5 5 5 7q1 1 1 4l-2 -2z" />
    <glyph glyph-name="j" unicode="j" horiz-adv-x="270" 
d="M109 111l-7 6q0 13 1 41t1 58q0 28 -1.5 51.5t-6.5 33.5q0 4 1.5 13.5t1.5 18.5t-3 14q0 33 0.5 67t5.5 64q20 0 27.5 -11t12.5 -35l6 6q-10 20 -26 46t-26 46q0 5 4 7.5t9 4.5l9 3.5t4 4.5h13q5 -5 6 -10t1 -10q10 0 18.5 -3.5t13.5 -3.5v-13q10 15 16.5 27.5t16.5 12.5
q9 -26 11.5 -54t2.5 -58q0 -20 -0.5 -41t-0.5 -44h7q2 -11 3 -23t1 -24q0 -32 -4 -65t-4 -65q0 -11 1 -23t3 -23q-5 -13 -5 -33q0 -16 1.5 -34.5t4 -36t4 -32t1.5 -21.5q0 -10 4 -19t9 -14q-5 -5 -6.5 -5.5t-6.5 -0.5v-7h-13v-13q6 0 9 -5t3 -11q0 -8 -5 -16t-14 -8
q-5 0 -6 1q-5 -5 -13 -10t-13 -10v-6h-7v-13h-6v-7q-15 -5 -23 -5q-9 0 -23 5q0 5 -1 10t-6 10q0 -5 -4 -12.5t-9 -7.5q-5 -5 -5.5 -10t-0.5 -10q-10 5 -24 20t-29 20v-20q-1 -1 -6 -1q-9 0 -11 9t-15 18l13 33q-14 0 -14 20q0 15 7 39q27 -6 43 -6q17 0 24.5 4.5t11.5 8.5
q0 5 -6 15t-6 18q0 9 12 12v66q5 10 6.5 23t6.5 23zM115 602q-5 5 -10.5 6.5t-15.5 6.5q0 5 3.5 13t3.5 13q-8 11 -8 30q0 11 2.5 24.5l5.5 30.5q14 0 28 -0.5t24 -5.5v6h39q1 1 2 1.5t2 1.5q4 4 10 4h13q0 -5 3 -6.5t3 -6.5q-5 -5 -5 -7t1.5 -3t1.5 -3q0 -3 -4 -7l-7 -19
q5 5 6 8.5t2 6t4.5 3.5t13.5 1q4 -11 7 -23t3 -24q0 -11 -3 -18q-4 0 -4 -6q0 -1 0.5 -1.5t0.5 -2.5q2 -6 3 -10q-6 -2 -5 -2q-4 0 -6.5 6t-4 14t-2.5 16.5t-2 13.5v5q-5 -5 -9 -10t-4 -10q-1 -3 -1 -9q0 -8 2.5 -10.5t5 -3.5t5 -2.5t2.5 -8.5q0 -9 -1 -12q-13 0 -32.5 1.5
t-39.5 1.5q-10 0 -18 -0.5t-15 -2.5zM161 242q0 -15 5 -28t15 -18q0 -20 4.5 -38.5t15.5 -33.5q0 5 0.5 6.5t5.5 6.5h-6v72h-14q-5 10 -7 15t-12 5v13h-7zM147 318l-2 4q-1 1 -3 5q-5 -5 -9 -10t-4 -10q10 -10 17 -15.5t22 -10.5q-5 15 -6 20t-1 19l-6 7v-16q1 -3 3 -7
l-10 10q-1 1 -1 4v0zM142 353q-5 10 -6.5 19.5t-6.5 19.5q-5 -10 -6 -19.5t-1 -19.5h20zM155 661q5 5 10.5 9t15.5 4v20h6l7 6h-13l-12.5 -15.5t-7 -9t-3.5 -6.5t-3 -8zM109 687l18 6q1 1 8 1l7 19q-5 -5 -9 -6.5t-4 -6.5h-14zM109 -118q8 -16 10 -23.5t4 -7.5l1 1l5 3
q-5 5 -6 10.5t-1 16.5h-13zM201 117q-5 -5 -6 -13.5t-1 -18.5h7v32zM168 -92q0 -6 3 -9q1 -1 1.5 -2t1.5 -2v11q-3 -3 -3 -1zM187 281q0 -6 3 -9q1 -2 2 -2.5t2 -1.5q0 5 -1 6.5t-6 6.5zM122 615v7q-5 0 -5 -1t5 -6z" />
    <glyph glyph-name="k" unicode="k" horiz-adv-x="508" 
d="M97 -20q-10 10 -19.5 22t-19.5 17v60q-11 19 -15 51t-4 69q0 42 2.5 81t2.5 63q-5 20 -5.5 35.5t-0.5 30.5q0 40 -3 84.5t-3 89.5q0 38 4 72.5t15 63.5q15 0 22 -9l18 -24v13h39q5 5 6.5 13.5t6.5 13.5h14q5 -11 6.5 -20.5t6.5 -19.5q-10 -15 -20 -34l-20 -39l7 -13
q10 25 19 39t34 14q0 -35 3 -68.5t3 -63.5q-6 -5 -6 -14q0 -10 3 -21t3 -18q-7 -7 -10 -33.5t-3 -57.5v-41l72.5 114t92.5 104q15 -5 15 -11.5t5 -21.5q0 5 4 6.5t9 6.5h40q5 5 9.5 10t9.5 10h20q-5 -5 -6.5 -13t-6.5 -13l-39.5 -30l-39.5 -30v-6q21 13 35 23.5t34 10.5
q2 0 4.5 -0.5t5.5 -0.5l-30.5 -49.5t-35.5 -49.5q-10 -5 -15.5 -20t-10.5 -20t-17.5 -15t-22.5 -25q7 -15 19.5 -35.5t26.5 -40.5t26.5 -35.5t19.5 -20.5l11 -22q6 -13 16 -17q15 -25 29.5 -53t29.5 -53q-20 0 -36 10t-36 30v-7q20 -15 36 -29.5t36 -29.5q0 -5 3.5 -13.5
t3.5 -13.5h-13l-20 20h-40q0 3 -3 6q-1 1 -3 1q0 -6 -6.5 -9.5t-16 -6.5t-20 -5.5t-17.5 -5.5q-25 25 -40 54t-26.5 59.5l-23 60.5t-29.5 57l-39 -39q-10 -10 -16.5 -15t-16.5 -5q5 -40 6.5 -82.5t6.5 -82.5q-25 0 -45.5 -4t-40.5 -9zM104 33q10 0 19 3t14 3l6 73
q-14 -15 -22.5 -36.5t-23.5 -36.5q3 0 6 -3q1 -2 1 -3v0zM117 475q1 1 2 1.5t2 1.5q2 1 4.5 2t4.5 1q0 11 1 17t6 16q5 0 10 3.5t10 3.5v-26h6q0 20 -0.5 36t-5.5 36l-27.5 -53t-12.5 -39zM117 257q10 5 13 13t13 13v40h14v20h-14l-11 -35.5t-6 -20.5t-4 -14t-5 -16z
M275 363h20q5 10 10.5 15.5t16.5 10.5q5 0 9.5 3.5t9.5 3.5q-5 -5 -6.5 -10t-6.5 -10h7l19 28q9 14 14 25q-30 -25 -54 -40.5zM170 204v-6q10 5 16.5 9t16.5 4l20 33h6l-6 6l-27.5 -22.5t-16.5 -14.5zM130 402q15 15 18.5 17.5t8.5 2.5l6 40q-5 -5 -9 -14t-4 -19h-13z
M302 330l13 19q-5 -5 -10 -6.5t-10 -6.5zM124 376h6v13q-5 0 -5.5 -1.5t-0.5 -11.5zM269 310q0 6 6 6v7l-13 -7zM77 448v20q-5 -5 -5 -7q0 -3 5 -13zM295 290l7 -7h6l-6 7h-7zM295 257l13 -13l-6 13h-7zM298 187l4 1l-5 1z" />
    <glyph glyph-name="l" unicode="l" horiz-adv-x="220" 
d="M129 739q11 -15 20.5 -25.5t19.5 -20.5q0 -15 -3.5 -30t-3.5 -30q14 -16 19 -47t5 -67q0 -41 -4 -82.5t-6 -67.5q5 -15 9 -29.5t4 -29.5q-1 -11 -1.5 -22t-0.5 -22q0 -37 2.5 -75.5t2.5 -76.5q0 -32 -3 -63t-13 -58q-10 0 -16 3.5t-10.5 9t-9 12.5t-11.5 15v-14
q-10 0 -19.5 -3t-19.5 -3q0 -5 -4 -10t-9 -10h-14q0 5 -3 14t-3 19q10 20 16.5 39.5t16.5 39.5v7q-10 -25 -19 -35.5t-34 -10.5q-5 29 -9 65.5t-4 66.5q7 3 7 16q0 9 -2.5 18t-4.5 12q8 13 11 47t3 69q0 22 -0.5 40.5t-0.5 28.5l10 20.5t10 25.5q0 60 -6.5 122t-6.5 122
l40 10q10 2 21 5t24 5zM110 244q-5 -5 -7 -6.5t-7 -6.5q0 -5 -4 -13.5t-9 -13.5q0 -5 -4 -5.5t-9 -0.5q0 5 -1 13t-6 13h-6q0 -20 1.5 -39t11.5 -34q10 30 22.5 51.5t17.5 41.5zM116 686q-5 -5 -14 -6t-19 -1v-79q10 20 17.5 42.5t22.5 36.5q-7 0 -7 7zM103 462
q-5 -11 -10.5 -19.5t-15.5 -13.5v-40h-7v-13h7l11 31.5t6 19.5l4 15.5zM90 310l-7.5 -7.5t-5 -4.5t-5.5 -3.5l-9 -4.5v-40q5 11 7 17t7 16h6zM96 343v-20l7 20h-7z" />
    <glyph glyph-name="m" unicode="m" horiz-adv-x="777" 
d="M124 -15q-20 5 -36 15t-36 25q0 66 -1 129.5t-6 127.5q-5 5 -6.5 6t-6.5 1q5 65 4 131t9 126q25 5 40.5 6t32.5 1h26q19 -10 40 -20v-39q5 0 9.5 3t9.5 3q0 2 1 3q1 4 6 4q10 0 16.5 11.5t16.5 21.5q15 0 34 3t39 3v-13h26q0 5 3.5 6.5t3.5 6.5l13 -6q4 -3 17 -9.5
t28.5 -13.5t29 -12t17.5 -5q20 10 39.5 23t39.5 23q20 0 41.5 1.5t42.5 1.5q22 0 42 -3v-19q10 -5 20.5 -7t25.5 -7q0 -14 5 -21t15 -12q5 -15 7.5 -23.5t4.5 -17t3.5 -20t4.5 -31.5l-8.5 -52t-4.5 -54q0 -25 6 -46q2 0 3 -1q4 -1 4 -5q-5 -5 -7 -14t-7 -19q0 -32 4.5 -63
t4.5 -60q0 -8 -0.5 -15t-1.5 -14q-5 -20 -10 -35.5l-10 -30.5q-15 0 -25.5 1.5t-20.5 11.5q-32 3 -48.5 5.5t-24 10t-9 22l-4.5 41.5q5 32 11 74.5t6 81.5q0 14 -1 26.5t-3 22.5q-10 5 -13 25.5t-3 45.5q0 26 1.5 50t1.5 37q-10 0 -12.5 3.5t-7.5 3.5q-5 5 -5.5 10t-0.5 10
q-25 -5 -49.5 -13.5t-49.5 -13.5v-251q6 -20 11.5 -50t5.5 -60q0 -25 -5 -46t-19 -35q-29 5 -62.5 3.5t-62.5 3.5q-5 20 -6 35.5t-1 30.5v217h13v14l-6 6v86q-4 -4 -6 -13q-1 -1 -1 -7l-2 16q-2 13 -11 17v20q-10 5 -15.5 6t-10.5 1v13q-6 5 -17.5 8t-24.5 3q-16 0 -31 -5
v-13h-7q-7 -17 -10 -41.5t-4.5 -50.5t-2 -50.5t-2.5 -42.5q2 -5 2.5 -25.5t0.5 -44.5t0.5 -46t2.5 -29q0 -10 0.5 -21.5t0.5 -24.5q0 -21 -2.5 -41t-11.5 -32h-53zM654 262v-13q-11 -5 -16.5 -10.5t-10.5 -15.5h-6v-73h-7q0 -5 3.5 -9.5t3.5 -9.5q19 37 19 85
q11 0 15.5 14.5t4.5 24.5zM719 375q-2 0 -10 -4.5l-17 -9.5t-18 -9.5t-14 -4.5v-11q0 -8 -1 -12.5t-5 -15.5q10 2 15.5 3.5t10 3.5t8.5 6.5l11 12.5q-1 0 -1 2q0 3 3.5 9l7 12l7 12zM177 342v11q0 11 -3 28t-10 20q0 -10 -4 -15.5t-9 -10.5v-33h26zM85 335q10 5 13 7.5
t13 12.5v26h-7q-5 -10 -9.5 -20.5t-9.5 -25.5zM98 58v13h-20v-13h20zM101 242q3 1 3 7h-6v-11l2 2zM98 296h6q0 8 1 9v1zM156 221q-5 -10 -10 -18t-10 -8l-7 -40q0 -5 -1 -6t-6 -1v-13h7l15 31q9 17 10.5 27.5t1.5 27.5zM357 274q-5 -5 -10 -6.5t-10 -6.5q0 -15 -1 -30
t-6 -30q8 -5 11 -5q4 0 16 12v66zM631 354l27 27v36q-2 -10 -5 -13q-2 -4 -4.5 -7.5t-4.5 -8.5h-6zM631 461h-6q-4 -4 -6 -14q-1 -3 -1 -17q3 11 13 11v20zM618 328h13v13q-5 0 -6.5 -1.5t-6.5 -11.5zM664 454h-6v-6h6v6zM455 65q-15 -5 -19 -6t-14 -1l-13 -33q5 5 13 10.5
t13 16.5h7zM357 429q2 -10 3.5 -16.5l3.5 -14.5l5 -21l8 -35h6v16l-1 -1l-5 5v40q-5 5 -10 13.5t-10 13.5zM370 282l7 -26h6q0 -10 1 -19t6 -14v39q-5 0 -7.5 2.5t-12.5 17.5zM357 309l6 -13v13h-6z" />
    <glyph glyph-name="n" unicode="n" horiz-adv-x="502" 
d="M151 -33q-5 5 -6.5 5.5t-6.5 0.5v13q-4 2 -9 2q-6 0 -12.5 -2t-14.5 -2q-2 0 -10 2q-5 8 -19 8q-7 0 -14.5 -1t-13.5 -1q-13 0 -13 8q-1 5 -1.5 10t-0.5 9q0 29 22 29q3 0 6 -0.5t7 -1.5v6h-6v7h-7q0 25 1 42t6 37q0 5 -7.5 6.5t-12.5 6.5q0 15 4.5 21.5t15.5 11.5v13
q0 11 0.5 21.5t5.5 18.5q-5 0 -10 3.5t-10 3.5q0 5 1 14t6 19h7q0 10 3 15q2 4 3 5h-26q-3 21 -3 38q0 4 0.5 7t0.5 6l3 53q1 8 1 15v15q0 38 -9 70q5 5 5 10q0 2 -5 10q5 5 6.5 13t6.5 13q15 0 30.5 1t35.5 6q3 -10 6.5 -15.5l6.5 -10t5 -9t2 -11.5q5 0 10 4t10 9l13 -20
q10 5 23 10t23 10v-7q4 3 8.5 8.5t10 11t11 10t11.5 4.5q5 0 6 -1v-19q14 5 29 20.5t30 25.5v-27q10 0 15 -7t5 -12q6 6 6 14v5q8 2 13 3.5t10 1.5t10.5 -1.5t13.5 -3.5v-6q5 0 6.5 -1t6.5 -6v-6h6v-7q11 -19 27 -26l8 2q8 0 12.5 -8t4.5 -16q0 -18 -12 -18v-13h13
q0 -3 1 -4q1 -6 6 -9h6q-5 -11 -9 -17t-4 -16t-1.5 -26t-4 -35t-4 -39t-1.5 -37q0 -11 1 -20.5t4 -14.5q-2 -11 -3 -24.5t-1 -27.5q0 -35 4 -70.5t4 -70.5q0 -31 -4 -51q-6 0 -10 -4q-1 -1 -2 -1.5t-2 -1.5l-118 13q0 39 2 83t2 89q0 36 -2.5 71.5t-8.5 67.5v66
q-14 5 -14 16q0 10 7 19.5t7 16.5q-4 4 -7 5.5t-14 1.5h-19q-5 18 -16.5 26t-24.5 8q-16 0 -29 -10.5t-15 -30.5l-25 -4.5t-11 -4.5l-4 -4q5 0 10.5 -3t15.5 -3q3 -14 4 -27t1 -27q0 -31 -4.5 -60t-6.5 -58q0 -30 3.5 -63.5t3.5 -66.5q0 -22 -3 -42.5t-11 -38.5q7 -13 7 -24
q0 -16 -20 -22zM389 105v7q10 5 15.5 10.5t10.5 15.5h7v73h13q-5 5 -6 10t-1 10q-15 -20 -17.5 -40t-2.5 -40q-14 -5 -20 -20.5t-6 -25.5h7zM382 13v11q0 8 1 14.5t6 20.5q-15 -5 -22.5 -11.5t-17.5 -21.5q5 0 6.5 -4t6.5 -9h20zM138 92q5 0 6.5 4t6.5 29h-13v-33zM323 488
q5 5 9.5 6t9.5 1q0 5 1 13t6 13q-5 0 -8.5 -4t-17.5 -29zM144 363q0 5 1 9.5t6 9.5q-10 0 -12.5 -4.5t-7.5 -14.5h13zM131 435q10 0 12.5 1.5t7.5 11.5q-10 -5 -12.5 -6.5t-7.5 -6.5zM425 255q3 10 3 15h-6v-32q1 5 1.5 9t1.5 8zM389 462q5 0 6.5 3t6.5 3v13
q-5 -5 -6.5 -9.5t-6.5 -9.5zM118 336q5 5 6.5 9t6.5 4q0 3 -3 6q-1 1 -3 1q0 -5 -3.5 -10t-3.5 -10zM415 59q5 5 5 6q0 2 -1.5 3t-3.5 4v-13z" />
    <glyph glyph-name="o" unicode="o" horiz-adv-x="477" 
d="M209 -15q-15 15 -27 16.5t-21.5 3t-17 8.5t-12.5 31h-7v-13q-29 0 -44.5 14t-20.5 39q-7 0 -11.5 10.5t-7.5 28t-4 39t-1 43.5q0 29 1 53.5t3 34.5q1 2 2 5l2 6l2 9q1 1 1 10v16q-5 5 -10 9t-10 4q0 10 4 16.5t9 16.5q0 17 10 41t24.5 47.5t31.5 42.5t32 26q10 0 16 -3
t11 -3q0 12 1 16.5t4 5.5t8 1t13 3v-13h13q5 14 10.5 17.5t15.5 8.5v-20h13q10 5 11.5 7.5t1.5 12.5h13q5 -10 6.5 -12.5t6.5 -7.5q10 10 21 10q10 0 20 -6.5t18.5 -15.5t15.5 -18.5t11 -15.5q20 -10 30 -21t15 -31q9 0 12 -6.5t3 -17.5q0 -8 -0.5 -16t-0.5 -16
q0 -14 3.5 -25.5t15.5 -16.5q0 -15 1 -25.5t6 -20.5v-79l-7 -6q-2 -25 -3 -38.5t-2.5 -20.5t-3 -9t-4.5 -4h7v-59h-7q-8 -12 -12.5 -19.5l-8 -13.5l-7.5 -13.5t-11 -19.5q-11 -2 -23 -6.5l-25 -9.5t-25.5 -9t-23.5 -4q-9 0 -15 3q-5 -5 -12 -10t-7 -10q-10 0 -15.5 4.5
t-10.5 9.5q0 -5 -11 -9.5t-16 -4.5zM222 64q2 2 4 2.5t4 1.5l7 2q1 1 9 1h16v13h13v13h6q0 14 4.5 26l9.5 26h6q0 15 -3 26.5t-3 26.5q0 10 4 22.5t9 22.5q-6 19 -6 40q0 20 3 39t3 39q-5 20 -10 35.5l-10 30.5l-13 13v20q-21 6 -37 6q-29 0 -61 -20q0 -29 -8 -62t-19 -62
q5 -15 6 -26.5t1 -25.5q5 0 6 -1t1 -6q-11 -21 -14 -38.5t-3 -35.5q0 -17 1.5 -35t1.5 -42h7q0 -5 3.5 -13.5t3.5 -18.5h13v6h6v20h20v-13h6q0 -5 1 -10t6 -10t5.5 -6.5t0.5 -6.5zM111 359q5 10 6.5 19.5t6.5 19.5h13q5 10 6.5 15.5t6.5 10.5h-6q0 10 -3.5 16.5t-3.5 16.5
q-5 -8 -5.5 -11t-0.5 -11v-11l-15.5 -23t-8.5 -14t-4.5 -12t-4.5 -16h13zM78 84q5 5 10 9t10 4q0 14 1 25t6 21q-7 4 -12 4q-4 0 -6.5 -2.5l-8.5 -8.5v-52zM380 293l15.5 19t9 13.5t6.5 14l8 19.5h-7v-7h-13q0 -10 -3 -19.5t-3 -19.5h-7zM370 74q12 11 17.5 22.5t5.5 33.5
q-5 -15 -16.5 -30.5t-16.5 -35.5q2 1 3 2.5t3 3.5zM396 149q3 11 4 16t6 17q-7 -5 -10 -17t-3 -23v-11q1 10 3 18zM131 319v14q-5 0 -6.5 -1.5t-6.5 -12.5h13zM321 103v20q-5 -5 -6 -10.5t-1 -15.5zM340 313h-6v-26zM275 31q5 5 5.5 6.5t0.5 6.5q-1 -1 -1.5 -2t-1.5 -2
q-3 -3 -3 -9zM393 241q5 0 5.5 1t0.5 9q-1 -1 -1 -2l-2 -4l-2 -2zM353 57l7 7h-7v-7z" />
    <glyph glyph-name="p" unicode="p" horiz-adv-x="469" 
d="M165 511q4 4 10 4q5 0 10 -3.5t10 -3.5q3 12 4.5 17t4 6t6 1t11.5 3v-13h13q5 14 8.5 17.5t17.5 8.5v-20h7q10 5 11.5 7.5t1.5 12.5h13q5 -10 6.5 -11.5t6.5 -1.5q6 6 14 6q9 0 18.5 -7t18 -16.5t14 -19.5t7.5 -16q20 -10 28 -18t18 -28q11 0 11 -24q0 -6 -0.5 -13.5
t-0.5 -14.5q0 -14 3 -24.5t13 -14.5q0 -15 1 -25.5t6 -20.5v-72q0 -5 -4 -6q-1 -1 -3 -1q-3 -33 -4.5 -44.5t-1.5 -16.5v-4l6 -7l-6 -52h-7l-8 -19.5t-6 -13.5t-7 -11.5l-11 -14.5q-15 -8 -38 -17.5t-43 -9.5q-17 0 -24 7q-5 -10 -9 -15.5t-4 -10.5q-10 0 -16 4t-11 9
q0 -5 -7 -9t-12 -4q-15 15 -27 16.5t-22 2t-17.5 6t-12.5 27.5h-6v-6q0 -60 3 -117.5t3 -111.5l-39 -9.5t-39 -4.5q-10 11 -16.5 20.5t-16.5 19.5q0 20 0.5 34.5t5.5 24.5q-14 17 -19 49t-5 68q0 44 4.5 88t6.5 70q-5 14 -5.5 29.5t-0.5 35.5q1 14 1 27v27v24l-2 82v23
q0 35 3 68t11 64q15 0 22 -12.5t17 -27.5v14q7 0 13 1.5t13 1.5t13 -3q0 10 3.5 15.5t3.5 10.5h20v-9q0 -8 0.5 -15t5.5 -16zM254 70q4 4 8.5 5t24.5 1v7q0 2 1 2h2l3 -2v13h7l9 25t4 21q0 6 6 6q0 10 -0.5 23t-5.5 23q5 10 6.5 23t6.5 23q-6 19 -6 38q0 18 3 35.5t3 37.5
q-5 15 -6.5 30t-6.5 29q-5 5 -9 6.5t-4 6.5v20q-11 3 -19.5 5t-16.5 2q-14 0 -27 -5.5t-29 -14.5q0 -29 -7.5 -59t-12.5 -59q0 -15 1 -26.5t6 -25.5q-9 -23 -12 -41.5t-3 -38.5q0 -14 1 -30t1 -35h6q5 -5 6 -13t1 -13l13 -6v13h7v13h13q0 -7 6 -7l7 -6v-20q5 0 6.5 -0.5
t6.5 -5.5zM97 -160q5 5 13 9t13 4l6 72q-6 -6 -11 -16l-8 -19q-4 -10 -8.5 -20t-11.5 -17q0 -3 1 -4q1 -6 6 -9zM149 358l7 6q-5 5 -6 10.5t-1 16.5q-8 -17 -14 -31.5t-11 -25.5l-7.5 -19.5t-6.5 -19.5q1 1 2 1.5t2 1.5t9 1q0 10 3 19.5t3 19.5h20v20zM110 70
q5 10 10.5 18.5t15.5 13.5v40h7v19h-7l-12.5 -34.5t-6.5 -21t-3.5 -16t-3.5 -19.5zM123 227q15 10 18 11.5t8 1.5v37q-1 -2 -1.5 -5t-2.5 -6q-2 -4 -4.5 -7.5t-4.5 -5.5h-7zM391 279l16 19.5t9 13.5t4.5 13.5t3.5 19.5h-6v-7h-7q0 -10 -3 -19.5t-3 -19.5h-7zM365 56
q20 20 30 33t10 33q-5 -10 -16 -24t-11 -28h-6zM149 463v26q-5 -15 -10.5 -29t-15.5 -24l6 -6q5 10 10 19t10 14zM408 144q2 6 2.5 11t0.5 10v16q-5 -11 -6 -26v-23q1 9 3 12zM110 194h13v13q-5 0 -6.5 -1.5t-6.5 -11.5zM352 279l7 20h-7v-20zM336 101q1 1 3 1v18l-3 -9
q-3 -5 -3 -14q0 2 3 4zM293 37q10 5 11.5 6.5t1.5 6.5zM405 227q5 5 5 7q1 1 1 9q-2 -5 -4 -8.5t-2 -7.5zM71 285v-2q1 1 0 2v0z" />
    <glyph glyph-name="q" unicode="q" horiz-adv-x="472" 
d="M295 28h-20q0 -14 -2.5 -17.5t-9.5 -3.5q-2 0 -5.5 0.5t-8.5 0.5v13h-13q-5 -14 -7 -17.5t-12 -8.5v13l-14 7q-5 -5 -6.5 -7.5t-6.5 -12.5h-13q0 5 -0.5 6.5t-5.5 6.5q-7 -7 -18 -7q-10 0 -19.5 6.5t-17.5 15.5t-14.5 17.5t-9.5 13.5q-20 10 -28 20.5t-18 25.5
q-11 4 -11 27q0 6 0.5 12.5t0.5 13.5q0 14 -3 26t-13 19q0 15 -1 23t-6 23v72q5 0 6 0.5t1 5.5q3 22 4.5 34t3 18t2.5 8.5t3 5.5h-6v52h6l11.5 19.5t8 14t8 13.5t11.5 19q8 1 17.5 5.5t20 9t21 8t20.5 3.5q11 0 20 -6q5 5 9.5 10.5t9.5 15.5l20 -20q0 10 10.5 12t15.5 8
q12 -15 23 -17l20 -3.5t16.5 -8t12.5 -30.5v46q20 5 39.5 6.5t39.5 6.5q10 -10 19.5 -20.5t19.5 -25.5q0 -15 -3 -29.5t-3 -29.5q11 -18 14.5 -49.5t3.5 -66.5q0 -43 -2.5 -84.5t-2.5 -68.5v-65q0 -40 2.5 -86t2.5 -91q0 -38 -3.5 -73.5t-14.5 -64.5q-15 0 -22.5 12.5
t-17.5 27.5v-13q-10 -5 -16 -6t-16 -1q-5 -5 -7 -10t-7 -10h-13q-5 11 -6.5 17t-6.5 16l19.5 39.5t20.5 39.5l-7 6q-10 -20 -18 -32.5t-28 -12.5q-5 34 -5.5 68t-0.5 69q6 0 6 12v8zM223 473q-8 -3 -11 -4.5t-13 -1.5h-15v-14h-7v-13l-6 7q-5 -15 -6.5 -28.5t-6.5 -23.5h-7
q0 -15 3.5 -26.5t3.5 -26.5q-5 -10 -7 -20.5t-7 -25.5q4 -8 5 -17t1 -18q0 -18 -3 -37t-3 -39l9 -29q5 -18 5 -23l9 -10q4 -4 10 -4v-19q17 -7 34 -7q12 0 24 3.5t27 9.5l10.5 62.5t16.5 62.5q-5 10 -6 23t-1 23h-7q9 25 11.5 47.5t2.5 45.5v51h-7q0 10 -3.5 16t-3.5 16h-6
v-6h-7l-6 -13q0 -3 -2 -3t-4.5 1.5t-6.5 1.5v6h-7q0 5 -0.5 10.5t-5.5 16.5q-5 0 -6 0.5t-1 5.5zM361 47q-7 0 -7 -6q-5 -10 -6.5 -16.5t-6.5 -16.5h-13v26h-13q0 -20 1.5 -39t11.5 -39q10 35 21.5 56t11.5 35zM380 499q-10 0 -16 -3t-16 -3l-7 -72q15 14 22 35.5t17 36.5v6
zM361 277q-5 -10 -10 -19t-10 -14l-7 -39h-6v-20h6l15.5 34.5t8 21t3 16.5t0.5 20zM105 480q-20 -15 -29.5 -28t-9.5 -38q10 15 19 27t14 32h6v7zM348 119q-11 -10 -14 -12t-13 -7v-40q5 11 6.5 17t6.5 16h7zM302 159h-7q0 -5 -3 -10.5t-3 -15.5h6q0 -5 1 -13.5t6 -13.5v53z
M79 257q-8 -12 -12 -19.5l-7 -13.5l-6 -11q-2 -4 -4 -7.5t-4 -7.5q0 -7 7 -7v14h6q5 5 6.5 17t6.5 22h7v13zM118 264l-6 -27h13q0 10 -3.5 16t-3.5 11zM72 408q-8 -15 -10.5 -21.5t-2.5 -13.5v-11q5 5 6.5 20.5t6.5 25.5zM138 440h-7v-19q5 5 6 9.5t1 9.5zM66 309
q-5 0 -6 -1.5t-1 -11.5q5 5 6 6.5t1 6.5zM361 152h-7v-13zM164 493q5 0 6 4q2 4 4 6z" />
    <glyph glyph-name="r" unicode="r" horiz-adv-x="345" 
d="M191 493q5 10 12 15.5t15 9t16 6.5t16 8q15 15 27 24t32 9l26 -26v-112h-39q-25 0 -44.5 -5.5t-34.5 -20.5t-20.5 -31t-5.5 -41l-7 13q-2 -17 -3.5 -34.5t-1.5 -33.5q0 -25 5 -43q-5 -10 -9.5 -16.5t-9.5 -16.5q0 -49 6.5 -98t6.5 -98q-20 0 -42.5 -3.5t-42.5 -3.5
q-10 5 -20 14t-20 19q0 10 3.5 20.5t3.5 25.5q-14 14 -19 39.5t-5 54.5q0 32 4 61.5t7 47.5q-5 14 -6.5 25.5t-6.5 26.5q1 7 1 14v15q0 25 -1.5 52t-1.5 55t3 55t12 51q10 0 15.5 -2t9 -6t6.5 -8.5t8 -9.5l7 7h39q0 5 3.5 9.5t3.5 9.5h19q0 -5 3.5 -13t3.5 -13
q-10 -14 -19 -29t-14 -30v-6q8 17 15 25.5t21 8.5q4 0 7.5 -0.5t8.5 -1.5zM106 34q5 0 13.5 3.5t19.5 3.5v52q-11 -10 -18 -26t-22 -26q0 -5 1 -6t6 -1zM112 375q5 5 6.5 5.5t6.5 0.5q5 11 7 16.5t7 10.5q1 1 2 1.5t2 1.5l4 2q1 1 5 1v-5q0 -4 0.5 -7t5.5 -7h7q0 14 -1.5 28
t-11.5 24q-10 -25 -22.5 -41t-17.5 -31zM119 205q5 5 10.5 13t15.5 13v33h7v13h-7l-12.5 -26.5t-6.5 -16.5t-3.5 -13t-3.5 -16zM132 322q10 11 13 12.5t13 1.5v32q-5 -5 -6.5 -10.5t-6.5 -15.5h-6zM119 296h6l7 13l-5 4q-2 0 -8 -17z" />
    <glyph glyph-name="s" unicode="s" horiz-adv-x="450" 
d="M168 -45q-14 5 -33 20.5t-39 25.5q-26 29 -47 63t-21 76q0 11 3 25q7 0 17.5 5t21.5 12l21.5 13.5t17.5 8.5q10 -15 22.5 -20t17.5 -19q0 -10 0.5 -24t5.5 -29q5 -5 9 -9.5t4 -9.5q10 0 20 -1t20 -6q5 -5 17 -5.5t22 -0.5q7 2 11.5 9t6 15.5t2 17.5t0.5 17
q-15 5 -18.5 11.5t-8.5 20.5q-34 30 -74.5 52t-75.5 47q-10 0 -16.5 -1t-16.5 -6q0 10 -1 15.5t-6 10.5q0 3 -3 6q-1 1 -3 1q0 10 3 19.5t3 19.5q-5 0 -9.5 3.5t-9.5 3.5q0 10 0.5 15.5t5.5 10.5l-13 13q0 5 3.5 14t3.5 19l13 -7v39l6 -6q9 32 29.5 54.5t48 36.5t59 20.5
t62.5 6.5h18q10 -5 17 -10t22 -10l-7 -13q11 -5 20 -5.5t17 -0.5h9l20 -33h6q5 -5 10 -13t10 -13q12 -10 18.5 -25.5t6.5 -33.5q0 -25 -12 -46q-29 5 -55.5 7t-55.5 12l6 20h-13q0 5 -3 13t-3 13h-7v13q-4 0 -6.5 1.5t-11.5 9.5l-15 16q-20 0 -35.5 -2t-28 -9t-21 -20
t-13.5 -35l46 -6q25 -35 65 -56.5t79 -35.5q20 -15 36 -29.5t36 -29.5q12 -18 18.5 -33t6.5 -32q0 -22 -12 -53q-10 -20 -24 -40t-28 -52q-15 -5 -28.5 -15.5t-24.5 -30.5l-19.5 -9.5l-19.5 -9.5q-25 0 -52.5 -1t-52.5 -6zM350 435q-15 -5 -30.5 -6t-35.5 -1l26 -20l14 7
q6 4 10 4.5t22 8.5q-6 0 -6 7zM103 34l6 26h-19q-3 -6 -3 -11t1.5 -8t1.5 -7h13zM68 333q5 0 10 3q2 1 4.5 2t7.5 2h-22v-7zM380 140q-1 -1 -1 -4l-10 -10q2 4 3 7v16l-6 -7q0 -14 -1 -19t-6 -20q15 5 22 10.5t17 15.5q0 5 -4 10t-9 10q-2 -4 -3 -5zM405 175q0 10 -1 19.5
t-6 19.5q-5 -10 -6.5 -19.5t-6.5 -19.5h20zM108 381l15.5 19t9 13.5t6.5 14l8 19.5h-7v-7l-21 11q-3 -24 -0.5 -32t2.5 -18h-7zM68 401h-6v-26zM315 92l16 19.5t9 13.5t4.5 13.5t3.5 19.5h-6v-7h-7q0 -10 -3 -19.5t-3 -19.5h-7zM276 92l7 20h-7v-20zM329 40q5 5 5 7q1 1 1 9
q-2 -5 -4 -8.5t-2 -7.5zM249 276h6l7 13l-5 4q-2 0 -8 -17zM111 180q-15 -5 -19 -6t-14 -1l-13 -33q5 5 13 10.5t13 16.5h7zM361 460q2 -10 3.5 -16.5l3.5 -14.5l5 -21l8 -35h6v16l-1 -1l-5 5v40q-5 5 -10 13.5t-10 13.5zM303 256l7 -26h6q0 -10 1 -19t6 -14v39
q-5 0 -7.5 2.5t-12.5 17.5zM290 283l6 -13v13h-6z" />
    <glyph glyph-name="t" unicode="t" horiz-adv-x="322" 
d="M83 440q0 -5 -4 -5.5t-9 -0.5q-10 5 -23 9.5t-23 9.5q-5 20 -9 43t-4 43q14 4 28.5 6.5t28.5 2.5q13 0 22 -3q0 45 1.5 87t11.5 77q14 0 18 -11.5t14 -21.5v13h33q0 5 3.5 13t3.5 13h13q5 -10 5.5 -19.5t0.5 -19.5q-5 -20 -13 -39t-13 -39q10 20 17.5 32.5t21.5 12.5
q5 -24 7 -52t7 -52q11 4 25 5t29 1h18q-8 -8 -10 -12t-3 -4v3l-20 -20q-3 -2 -2.5 -2.5t4 -0.5t8.5 -0.5t10 -2.5q0 2 2 7.5t5 11t6.5 10t5.5 4.5q3 -10 4.5 -24t1.5 -28t-1.5 -25t-4.5 -15h-59q-5 5 -10.5 6.5t-15.5 6.5q-3 -14 -5 -44.5t-2 -62.5v-76q0 -15 3.5 -26.5
t3.5 -26.5v-59q14 -5 14 -16q0 -10 -7 -19.5t-7 -16.5q4 -4 11.5 -8.5t27.5 -4.5q16 0 46 6q3 -18 3 -29t-2 -16t-6 -8l-8 -6l13 -32q-8 -5 -12 -14.5t-12 -9.5q-5 0 -9 4v13q-14 -5 -25.5 -19.5t-26.5 -19.5v26q-10 0 -12.5 4t-7.5 9q0 -5 -3 -10t-3 -10q-8 0 -12.5 -1
t-9.5 -1q-11 0 -24 9v7h-7v6l-6 7v6l-10.5 10t-15.5 10q-2 -2 -7 -2q-7 0 -10 8.5t-3 17.5q0 6 1.5 10.5t5.5 4.5q6 0 6 7h-20v13h-6q0 10 4 16t9 17q0 10 1 27t2.5 37l3 39.5t1.5 34.5q0 16 -1 19q3 21 3 42q0 26 -3 53t-7 55zM116 283q10 20 11.5 39.5t1.5 39.5
q15 0 20.5 14.5t5.5 24.5h-6v-6q-11 -5 -16.5 -11t-10.5 -16h-6v-65h-7q0 -5 1 -10t6 -10zM194 512q0 15 -3 25.5t-3 20.5l-10 -19.5l-10 -19.5zM155 467q0 5 1 9.5t6 9.5h-7v-10q0 -8 -1 -13t-5 -16q14 5 18 10.5t14 15.5q0 5 -0.5 9t-5.5 4h-7v-13q-2 0 -4.5 -1t-4.5 -2
l-2 -2zM207 47q-5 -5 -8 -5.5t-7 -0.5h-4v-26zM142 67h-7v-13q4 4 6 9q0 1 0.5 1.5t0.5 2.5v0zM115 263q-1 -8 -6 -19l7 6v24zM122 440q-5 0 -5 -2q0 -3 5 -11v13z" />
    <glyph glyph-name="u" unicode="u" horiz-adv-x="498" 
d="M355 563q0 -7 6 -7q0 -5 3.5 -6.5t3.5 -6.5l8 -2q6 0 11.5 2t11.5 2l8 -2q2 -5 6.5 -6t10.5 -1q7 0 15 1t14 1q13 0 13 -8q1 -6 1.5 -10.5t0.5 -9.5q0 -14 -4 -18q-4 -10 -20 -10q-6 0 -8 1l3 -2q1 -1 1 -3h7v-7h6q0 -25 -1.5 -41.5t-11.5 -36.5q5 0 10 -4.5t10 -9.5
q0 -10 -1.5 -16t-11.5 -16q-5 -15 -7 -26.5t-7 -26.5q5 0 10 -0.5t10 -5.5v-26l-6 -7q-4 -4 -7 -9t-3 -8t3 -3q5 0 10 1t10 6q1 -7 1 -13.5v-13.5q0 -26 -2 -54.5t-2 -55.5q0 -20 2 -38.5t7 -34.5q-3 -3 -3 -7q0 -3 1.5 -5.5t1.5 -6.5q0 -5 -3 -10t-3 -10q-20 0 -35.5 -3.5
t-30.5 -3.5q-2 7 -5.5 11.5t-7.5 8.5l-7 8q-3 4 -6 12q-5 0 -9 -4q-1 -1 -2 -1.5t-2 -1.5l-20 13l-19.5 -9.5l-19.5 -9.5v6q-8 -2 -14 -8l-12 -12q-9 -9 -17 -9q-5 0 -9 3v13q-15 -5 -30 -20.5t-29 -25.5v26q-11 5 -13 10t-7 10q0 -5 -1 -10t-6 -10q-9 -4 -19 -4t-26 11v7
h-7v6q-5 0 -6 1t-1 6v6q-10 5 -15.5 10l-10.5 10l-8 -2q-10 0 -15.5 10.5t-5.5 19.5q0 11 7 11h3q5 5 5.5 6.5t0.5 6.5h-20v13h-13q5 10 10 19t10 14q0 12 1 31.5t2.5 40.5l3 42t1.5 36v11t-1 9q1 8 1 15.5v15.5q0 36 -3 72.5t-3 72.5q0 17 1 33.5t4 33.5q1 1 2 1.5t2 1.5
l4 2q1 1 5 1l111 -6q0 -43 -2.5 -89t-2.5 -92q0 -34 2.5 -66t9.5 -61q5 -20 5.5 -35.5t0.5 -30.5q11 -6 11 -16t-7 -21.5t-10 -21.5q3 -3 6 -4.5t14 -1.5h19q5 -18 15.5 -26.5t23.5 -8.5q15 0 28.5 11t17.5 30q29 5 35 7t11 7q-10 0 -15.5 4t-10.5 9q-5 13 -7 26t-2 27
q0 29 4.5 58.5t4.5 58.5q0 26 -3.5 60t-3.5 67q0 21 2.5 40.5t10.5 35.5q-5 10 -5 19q0 20 25 27zM113 432v-13q-11 -5 -16.5 -10.5t-10.5 -15.5h-6v-73h-7q0 -5 3.5 -9.5t3.5 -9.5q19 37 19 85q14 0 17.5 6t3.5 14q0 5 -0.5 10t-0.5 9zM145 524q-5 0 -10.5 -3.5t-15.5 -3.5
v-11q0 -8 -1 -12.5t-5 -15.5q10 2 15.5 3.5t10 3.5t8.5 6.5l11 12.5q-5 5 -9 10t-4 10zM178 45q-5 0 -6.5 -0.5t-6.5 -5.5t-6 -13t-1 -13zM368 445q-5 -5 -7 -9.5t-6 -23.5h6q0 5 1 14t6 19zM361 170q0 -5 -3 -10t-3 -10q5 5 6.5 7.5t6.5 12.5h-7zM378 189q-6 -2 -10 -6
q5 0 6 -4q1 -1 1 -3q4 4 6 10l3 6zM106 72v-14q1 1 1.5 2t1.5 2q4 4 4 10h-7zM368 98q-5 0 -6.5 -1.5t-6.5 -11.5z" />
    <glyph glyph-name="v" unicode="v" horiz-adv-x="452" 
d="M85 550q5 -3 15 -4.5t21 -3.5t21 -4.5t15 -7.5q0 -8 -4.5 -22t-4.5 -26q0 -7 3 -11q15 -15 23 -41t13 -55t8 -56t8 -44q5 -10 10 -23t10 -23v-9q0 -8 0.5 -15t5.5 -16q5 20 10 35.5l10 30.5q0 10 0.5 23t5.5 23q7 27 11.5 58t11 63t16.5 61.5t27 53.5q15 0 19 -8t14 -19
q0 2 1 3q1 4 5 4t9 1.5t11 1.5q7 0 13 -3q5 5 6.5 10t6.5 10h20v-27q-15 -14 -25.5 -29l-20.5 -30v-6q14 20 23.5 29.5t28.5 9.5q0 -25 -1.5 -51.5t-11.5 -46.5q-3 -5 -4.5 -14t-1.5 -18v-7q-8 -8 -15 -26.5t-13.5 -40t-11 -41.5t-6.5 -30q-5 -10 -10 -16.5t-10 -16.5
q-10 -49 -16.5 -93.5t-16.5 -89.5q-20 -5 -42.5 -9t-42.5 -4q-5 10 -10.5 16.5t-15.5 16.5h-20q0 -5 -0.5 -10t-5.5 -10h-13q-5 5 -9 13t-4 13l9.5 29.5l9.5 29.5l-6 7q-5 -20 -12.5 -30t-27.5 -10q-10 25 -18.5 52t-13.5 47q1 1 1 5q0 7 -5.5 18t-8.5 16q4 4 4 19
q0 14 -3.5 32t-7.5 35t-8 31t-5 20q0 11 3 19.5t3 13.5q-5 25 -11 45.5l-12 39.5l-11.5 38t-10.5 41q5 2 9 4l8 4l15 11q8 6 15.5 10t17.5 4zM334 347q5 5 10 5.5t10 0.5q0 10 4 15.5t9 10.5q4 0 6.5 1.5t5.5 1.5q4 0 7 -3q-5 -5 -5.5 -6.5t-0.5 -6.5h6l5.5 16t2.5 15
q0 11 -8 22q-14 -25 -28 -41.5t-24 -30.5zM156 179l-2 -2q-1 -1 -3 -1q0 -10 -3.5 -15.5t-3.5 -10.5h-13q-5 5 -6 10t-1 10h-6q0 -20 4.5 -32t15.5 -27q4 24 12 41l4 14t2 13zM301 183q10 5 16.5 13t16.5 13l7 26h6l7 13h-13q-15 -23 -21 -31t-11 -18zM131 458
q-5 -10 -7.5 -15.5t-12.5 -10.5l7 -26q0 -5 -1 -6t-6 -1v-6h13q5 22 6 30.5t1 18.5v16zM269 39v-20q4 0 9 3l4 4l19 52q-10 -10 -18.5 -19.5t-13.5 -19.5zM118 373q-5 -5 -10 -12.5t-10 -7.5l7 -46q5 10 6.5 22.5t6.5 17.5v26zM131 235q-10 -10 -13 -12t-13 -7l13 -27v27h13
v19zM341 294q14 15 18 17.5t14 2.5l7 26l-10 -10.5t-10 -15.5l-6 6zM327 275h7v13zM131 255h-7l7 -13v13zM295 334q5 5 5.5 6.5t0.5 6.5q-5 -5 -5.5 -6.5t-0.5 -6.5zM190 203q0 -11 3 -13t3 -7v3q0 3 -1 5.5t-5 11.5z" />
    <glyph glyph-name="w" unicode="w" horiz-adv-x="750" 
d="M378 569q5 -5 13 -10.5t13 -15.5h13l7 -6q0 -15 3.5 -25.5t3.5 -20.5q16 -15 26.5 -41.5t17 -55t11.5 -56t10 -44.5l9 -24.5t4 -21.5q5 -10 6.5 -19.5t6.5 -19.5q5 15 10 33t10 33q0 10 0.5 20.5t5.5 24.5q7 28 12 58t11.5 60t16 58.5t26.5 53.5q15 0 19 -8t14 -18v13h39
q0 5 4 9.5t9 9.5h13q0 -10 3.5 -16t3.5 -16q-15 -11 -26.5 -24.5t-26.5 -28.5l7 -6q10 14 21 23t31 9q0 -24 -4 -48.5t-9 -49.5q-8 -5 -8 -17q0 -5 1 -11t1 -11q-10 -5 -17.5 -23.5t-13.5 -40t-9.5 -41t-5.5 -26.5q-10 -19 -20 -40q-14 -45 -18.5 -91.5t-14.5 -91.5
q-20 0 -42.5 -4t-42.5 -9q-5 10 -13 19t-13 14h-20q0 -5 -0.5 -6.5t-5.5 -6.5h-13q-5 5 -9 10.5t-4 15.5q5 14 9.5 29t9.5 30h-6q-5 -15 -12.5 -24t-27.5 -9q-10 25 -18.5 49.5t-13.5 48.5q1 1 1 6q0 8 -5 18t-9 16q5 5 5 22q0 12 -5 37q-5 -15 -6 -28t-1 -18q-5 -5 -10 -14
t-10 -19q-10 -45 -16 -91.5t-16 -91.5q-20 -5 -39.5 -7t-39.5 -7q-5 11 -10.5 19.5t-15.5 13.5h-13q-5 -5 -6.5 -9.5t-6.5 -9.5h-13q0 10 -4.5 16t-9.5 16q5 10 10 24l10 29l-6 6q0 -13 -4.5 -24t-18.5 -11l-10 2l-19 49.5t-14 49.5q2 2 2 5q0 7 -5.5 16.5t-9.5 17.5
q4 4 4 16t-2.5 29.5t-6 34t-6 31t-2.5 20.5v39q-10 45 -26 92t-27 92q20 0 39 4t34 9q10 -10 20.5 -19t24.5 -14q0 -15 1 -25.5t6 -20.5q15 -15 24 -41t15 -55.5t10.5 -58t9.5 -48.5q5 -10 9 -20.5t4 -25.5q5 -10 6.5 -19.5t6.5 -19.5q5 20 10 37.5t10 28.5v52q7 24 11.5 52
t10 56t14 56t23.5 52q-5 5 -6.5 13t-6.5 13q20 5 39 6.5t39 6.5zM169 189q-5 0 -7 -3t-7 -3v-26h-19q0 5 -1 9.5t-6 9.5h-6l10.5 -28t15.5 -24q5 20 12.5 37.5t7.5 27.5zM450 196q-6 0 -6 -7q0 -5 -3.5 -9.5t-3.5 -9.5q-3 -5 -9 -6q-1 -1 -4 -1q-5 5 -6 10t-1 10h-13
q5 -15 10.5 -28.5t16.5 -23.5q5 20 12 37.5t7 27.5zM267 52v-20h19l14 53q-11 -5 -17 -14t-16 -19zM627 366q6 0 9 3l4 4l10 10.5t10 15.5h13v-20h6q0 10 1.5 20t1.5 18q0 9 -3 15q-14 -20 -28 -35.5t-24 -30.5zM97 524q-5 -5 -13.5 -6t-13.5 -1l13 -52q5 10 7.5 26t12.5 26
zM594 203q10 5 16 12t11 7l13 33h6v13h-6q-15 -23 -21 -31t-11 -18zM562 58v-19h13l13 59q-10 -10 -15.5 -19.5t-10.5 -20.5zM300 196q10 5 16 10t16 10l7 32h6v7h-6q-10 -14 -15.5 -22.5t-9 -14.5t-6.5 -10.5zM404 360v-7q0 -5 -4 -10.5t-9 -15.5l7 -13q0 -5 -4 -6t-9 -1
l6 -6h7q5 17 8 25.5t3 14.5q0 4 -1.5 8t-3.5 11zM123 353q-5 -5 -6.5 -12t-6.5 -7l6 -33h-6v-13h6q5 26 6 36.5t1 16.5v12zM424 248q-10 -10 -13 -11.5t-13 -1.5l6 -26q5 5 6 10t1 10h13v19zM136 242q-5 -10 -7.5 -11.5t-12.5 -1.5l7 -33q5 5 5.5 13t0.5 13h7v20zM634 314
q14 10 17.5 11.5t8.5 1.5l6 33q-5 -5 -6.5 -13t-6.5 -13h-6zM359 379l-7 7q-5 -10 -10 -15.5l-10 -10.5q5 0 10 0.5t10 5.5q0 5 1 6.5t6 6.5zM359 320v7h-7l-13 -20q10 5 12.5 9t7.5 4zM614 294h13v7q-5 0 -6.5 -1t-6.5 -6zM424 275h-7l7 -13v13zM142 262h-6v-7q5 0 5.5 1
t0.5 6zM326 281h6v13zM293 340q4 4 6 9q1 1 1 4q-5 -5 -6 -6.5t-1 -6.5zM483 216q0 1 2 -9l1 -1q2 2 2 3q0 2 -5 7zM588 359v-2q1 1 0.5 1.5z" />
    <glyph glyph-name="x" unicode="x" horiz-adv-x="489" 
d="M410 532q5 -10 13 -19t13 -14l-16.5 -25.5t-16.5 -20.5q2 -8 2 -11q0 -14 -8.5 -34.5t-20.5 -43t-26 -45.5t-25 -43q0 14 1.5 23t1.5 18q0 7 -3 18q-15 -25 -31.5 -41t-21.5 -31q5 5 6.5 6t6.5 1q5 10 9 15.5t4 10.5h20v-20h7l18 -37q5 -10 8.5 -15t5.5 -7v-39
q25 -45 56 -93t56 -97q-20 0 -39.5 -1t-39.5 -6q-15 11 -26.5 17t-25.5 16q-10 15 -12.5 25.5t-7.5 20.5q-20 15 -35.5 35.5t-29.5 49.5l-51 -90t-61 -80q-10 0 -14 2t-5.5 6t-2.5 8.5t-4 9.5q-1 -1 -2 -1.5t-2 -1.5q-5 -3 -9 -3h-33q-5 -5 -13 -10t-13 -10h-13q0 10 3 16.5
t3 16.5l33.5 23.5l38.5 28.5l-6 7l-33 -24t-33 -9q5 25 18.5 51.5t27.5 46.5q5 3 7.5 9t4.5 12t3.5 11t4.5 7q7 5 17.5 18.5t21.5 30t21.5 34t18.5 29.5q-5 10 -10 18.5t-10 13.5q-12 27 -31 59.5l-37 65t-30.5 63t-12.5 55.5q14 -5 25.5 -11.5t26.5 -21.5v13h39v20l13 -7
q5 -5 13.5 -10.5t13.5 -15.5q0 -15 -3.5 -29.5t-3.5 -29.5l7 -6q0 20 4 29.5t28 9.5q7 -11 13 -26l12 -30.5t11 -30t10 -24.5l17.5 31.5l21.5 41l21.5 42l18.5 35.5q24 0 38 -3t34 -3zM384 492h-40l-32 -59q20 15 36 29t36 24v6zM181 165q-5 -5 -10 -6t-10 -1q-5 -5 -10 -13
t-10 -13h-19q0 5 3 10t3 10h-6q-20 -29 -20 -59q25 25 46.5 41t32.5 31zM384 21q5 0 13 3t13 3l-26 53q-3 -5 -3.5 -12t-1.5 -14.5t-2.5 -14.5t-6.5 -12q5 0 7 -3t7 -3zM194 217q-20 -10 -24.5 -11.5t-8.5 -1.5l-20 -33q5 5 13 10.5t13 16.5h7zM174 414q15 10 18 11.5t8 1.5
l13 33q-5 -5 -9.5 -11t-9.5 -16h-7zM207 237l-7 -13q5 0 6.5 0.5t6.5 5.5zM181 342v19q-5 -5 -5 -7q0 -4 5 -12zM263 322q-4 -1 -4 -7v-6q4 4 6 10l3 6z" />
    <glyph glyph-name="y" unicode="y" horiz-adv-x="465" 
d="M78 -130q-6 4 -10 8t-4 13q0 6 1.5 15t6.5 23q25 -6 42 -6q18 0 25.5 4.5t10.5 8.5q0 10 17.5 28.5t41.5 30.5q0 5 -4 9.5t-9 9.5h-19q-5 5 -7 13t-7 13l10 30q2 8 5 15t5 14l-6 7l-5 -17t-5.5 -12t-10.5 -7.5t-19 -2.5q-10 24 -18.5 48.5t-13.5 49.5q4 1 4 6
q0 6 -5.5 14.5t-5.5 12.5q3 4 3 14q0 12 -4 29.5t-9.5 35.5l-10 33.5t-5.5 24.5q5 5 5.5 14t0.5 19q-10 45 -26 88.5t-26 88.5q9 0 16 -3.5t13 -7l12 -7t12 -3.5q5 0 6 1q1 -1 6 -1q14 0 33.5 7.5t31.5 7.5q9 0 9 -9q0 -11 -7.5 -27t-7.5 -24q18 -12 28.5 -37t17 -53.5
t11 -56t9.5 -43.5q5 -10 10 -22.5t10 -23.5q0 -10 3 -19.5t3 -19.5q5 20 12.5 35.5t7.5 30.5q0 10 0.5 20.5t5.5 24.5q7 27 12 57t11 59.5t16 57t27 49.5q14 0 21 -8t12 -18q0 5 3 6.5t3 6.5h33q5 5 9.5 10t9.5 10l14 -7v-19q-11 -15 -23.5 -30t-22.5 -29v-7q12 17 20 25.5
t25 8.5h6.5t7.5 -1q-5 -20 -6.5 -46t-6.5 -46q-11 -5 -12.5 -19.5t-1.5 -19.5q-8 -5 -15 -23.5t-13 -40t-10.5 -41t-6.5 -26.5q-5 -10 -10 -16.5t-10 -16.5q-10 -45 -16.5 -88.5t-16.5 -88.5q-10 0 -19.5 -3t-19.5 -3q7 -11 11.5 -21.5t4.5 -19.5q0 -8 -3 -12l2 -8
q0 -6 -2 -11t-2 -9q0 -3 2 -5h-13v-13h-13v-13q5 0 8 -5t3 -11q0 -7 -3.5 -13t-10.5 -6q-4 0 -10 3q-5 -11 -13 -16.5t-13 -10.5v-6h-7v-7q0 -4 -4 -5q-1 -1 -3 -1v-7q-15 -5 -23 -5q-10 0 -22 5q0 5 -1 10t-6 10q0 -5 -4 -12.5t-9 -7.5q-5 -5 -6 -10t-1 -10q-10 5 -23.5 20
t-28.5 20v-20q-1 -1 -5 -1q-6 0 -8.5 3.5t-4.5 8t-5 9t-10 6.5zM157 433h-6q-5 0 -12 -1t-15 -5l13 -53q10 15 13 29t13 24q0 2 -3 5q-2 1 -3 1v0zM353 361q3 0 4 1q5 1 10 6t6.5 10t6.5 10q5 0 9.5 3t9.5 3q0 -5 -3 -10t-3 -10h6l7 19.5t3 17.5q0 7 -3 16q-20 -20 -34 -38
t-19 -28zM170 198l-7 -7q0 -5 -0.5 -10t-5.5 -10q0 -5 -4 -5.5t-9 -0.5q0 5 -3.5 9.5t-3.5 9.5h-6q0 -14 4.5 -28t14.5 -24q10 20 15 35.5t5 30.5zM314 204q10 5 16.5 10t16.5 10l6 26h7l7 13h-14l-15 -23l-9 -14l-7 -11q-4 -4 -8 -11zM281 60v-20q6 0 9 3l4 4l20 52
l-19 -19.5t-14 -19.5zM131 355l-20 -20l7 -26q0 -5 -4 -6q-1 -1 -3 -1v-6h7q8 22 10.5 30.5t2.5 15.5v13zM353 309q15 10 19 11.5t14 1.5l7 33q-5 -10 -10 -15.5l-10 -10.5h-6zM144 250l-20 -20l7 -26v26h13v20zM163 -136l10 -24t5 -7q1 0 5 4q-5 5 -5.5 10.5t-0.5 16.5h-14
zM150 270h-6v-13q5 0 5.5 1t0.5 12zM222 -110q0 -6 3 -9l4 -4v13h-7zM308 342q4 4 5 9q1 1 1 4q-5 0 -5.5 -1.5t-0.5 -11.5zM340 289h7l6 7q-5 0 -6.5 -1t-6.5 -6z" />
    <glyph glyph-name="z" unicode="z" horiz-adv-x="458" 
d="M32 84l27 6q-1 1 -2 1.5t-2 2.5q-3 3 -3 9q10 10 16.5 20t16.5 20l-7 6q-1 -1 -2 -1q0 3 6.5 16t14.5 27.5t16 26t10 11.5q1 0 1 -1q10 14 22 25t17 21t7 19.5t7 19.5q20 25 36.5 57t41.5 61q-24 0 -52 -4t-56 -4q-18 0 -35.5 3t-33.5 11q-10 -7 -18 -7q-14 0 -14 20v7
q4 0 9 3l4 4q3 7 3 16v13q0 4 0.5 8t2.5 8q9 3 15 3q7 0 12 -2.5t12 -6.5v26h7l7 7h6v6q15 0 29.5 -1.5t29.5 -11.5q5 5 9 10t4 10q15 0 19 -1.5t14 -11.5q10 0 19.5 -3.5t19.5 -3.5q5 5 6 6.5t1 6.5h26v-6q5 0 9 -4q1 -1 2 -1.5t2 -1.5q0 5 3.5 10t3.5 10h59
q10 -10 17 -12.5l22 -7.5q5 -5 6.5 -10t6.5 -10q-5 -14 -10 -24.5l-10 -20.5v-7h-13l13 -13q-5 0 -5.5 -1t-0.5 -6h6q-5 -14 -13.5 -33t-18.5 -39q-11 0 -15.5 -10.5t-4.5 -15.5q-10 -5 -22.5 -19t-24 -30t-20.5 -30t-12 -19q-10 -10 -16 -15.5t-16 -10.5
q-15 -25 -26.5 -48.5t-26.5 -43.5h13l-6 -13q6 -3 12.5 -4t11.5 -1q12 0 22 5q24 0 48.5 -1t49.5 -6q14 5 26 10.5t26 16.5q5 -11 10 -16.5l10 -10.5q-5 -15 -5 -16q0 -5 11 -16v-14q-7 -5 -9 -13l-4 -16.5t-5.5 -16t-13.5 -12.5l-40 6q-12 0 -30 -4.5t-35 -4.5q-19 0 -26 9
q-23 -3 -43.5 -10t-42.5 -7q-15 0 -26 4q-5 0 -27.5 -4t-57.5 -9v13h-26l13 13l20 13v7h-20q0 -5 -7.5 -16.5t-12.5 -16.5q-2 10 -3 23.5t-1 26.5q0 31 4 42zM281 346h13q5 5 10 9.5t10 9.5h20q0 -5 -1 -6.5t-6 -6.5h7q19 19 19 40q-24 -15 -43 -25.5t-29 -20.5zM203 221
l19.5 10l19.5 10l13 20h7l6 6h-6q-11 -8 -18.5 -13l-12.5 -8.5l-9 -6.5t-8 -7zM275 306q10 5 14.5 6t9.5 1h9l13 26l-10.5 -10t-16.5 -10h-6zM163 123l14 20q-24 -11 -33 -20h19zM144 464q5 -5 8 -7t18 -7l7 7q-11 0 -17 3.5t-16 3.5zM209 77q-4 4 -7.5 5t-5.5 5v-3
q0 -5 4 -6t9 -1zM196 31v13q-1 0 -3.5 -1.5t-2.5 -4.5zM399 84h-13v-7zM229 333l13 13q-10 -5 -11.5 -6.5t-1.5 -6.5zM249 287h6l7 13zM347 418v-7l6 7h-6z" />
    <glyph glyph-name="braceleft" unicode="{" horiz-adv-x="386" 
d="M154 -161l-8 8q1 1 -6 6l-3 12q3 1 -2 11q-7 0 -14 3l-1 -1q-2 0 -2 6q0 3 0.5 7t0.5 9q-11 -1 -22 8q9 4 1 11v20v7q3 8 6.5 15t6.5 7q1 0 3 -2v13l-11 7q-1 1 -1.5 2t-1.5 2q-2 10 -2 9h-4q3 10 4 22.5t5 23.5q-2 8 0 19.5t5 23.5t4 23t-4 17q1 0 3 3.5t3 12.5
t0.5 23.5t-3.5 37.5q-1 4 -1 8v8q-4 7 -25 25q-17 0 -44 8l1 81q69 -1 68 30q-2 32 3 46q-4 9 -6 17v24.5t-1 22.5v20q0 37 3 69q3 0 3.5 2t2.5 5l-6 4q-2 1 -3.5 2t-3.5 2q-7 10 -8 35v34.5t8 32.5q8 3 8 15q0 5 3 7l8 1l2 5q-2 9 3 9q18 0 15 5l9 -22v5q2 0 3 1h1t0.5 1.5
t-3 5l-8.5 12.5l12 9l155 2q3 -3 6 -3t5.5 1.5t4.5 1.5q4 0 5 -3t6 -3q0 -11 0.5 -24.5t4.5 -24.5q-8 0 -13 -5.5t-13 -9.5l4 -15.5t4 -12.5t3 -9.5t1 -5.5l-1 1q-1 1 -3 7l-30 5q-8 10 -18.5 13t-21.5 3q-12 0 -23 -2t-8 -14q-10 -8 -14 -23l3 -25q1 -5 1 -9v-8
q0 -22 -9 -28q0 -45 0.5 -84.5t1.5 -79.5q1 -38 -5 -56q-5 -15 -7 -39q6 -11 8 -19q1 -3 3 -11q2 -9 3.5 -18.5t3.5 -20.5l-6 -15q10 -11 9 -27l-2 -32t-2 -30t-1 -22q10 -13 10 -28q0 -8 -2 -15.5l-4 -15.5h-5l-15 -55q7 -31 14 -31t22 -1t24 -1q6 0 12 3.5t14 14.5l26 -26
v-7l-6 -7q8 -5 16.5 -8.5t16.5 -3.5q-3 -14 -3.5 -32t-0.5 -33q-5 0 -6 -3.5t-5 -3.5q-2 0 -4.5 1.5t-5.5 1.5t-6 -3zM156 645q0 2 -3 7q-3 3 -3 6l-5 -9zM172 299q-5 -5 -6.5 -5.5t-6.5 -0.5q-5 -11 -6.5 -17t-6.5 -17h-14q0 5 -0.5 10t-5.5 10h-7q0 -20 1.5 -35.5
t11.5 -30.5q11 25 23 48t17 38zM162 564q-5 0 -14 -3.5t-19 -3.5v-73q10 20 17.5 39t22.5 34zM178 69q-5 -5 -11 -13.5t-16 -13.5v-39h-7v-14h7l11 31t6.5 18.5l4.5 14zM150 366q-10 -11 -13 -13t-13 -7v-33q5 5 6.5 13t6.5 13h7zM158 452v-20l7 20h-7z" />
    <glyph glyph-name="bar" unicode="|" horiz-adv-x="204" 
d="M119 751q10 -11 18.5 -24.5t17.5 -24.5q0 -16 -2.5 -27.5t-2.5 -27.5q13 -22 17.5 -59t4.5 -79q0 -38 -2 -74t-2 -58q0 -16 0.5 -32.5t4.5 -37.5q-1 -8 -1 -16.5v-16.5q0 -36 2 -75.5t2 -77.5q0 -34 -3 -66t-12 -60q-18 0 -22.5 9.5t-13.5 25.5q0 -6 -3 -7.5t-3 -6.5h-36
q0 -5 -2.5 -14t-2.5 -14h-18q0 11 -3 21t-3 21q8 16 16.5 36t12.5 40v7q-8 -26 -16.5 -37.5t-30.5 -11.5q-5 32 -8.5 66.5t-3.5 65.5q7 6 7 19q0 10 -2.5 19.5l-4.5 17.5q4 5 7 17t4.5 27.5t2.5 33.5t1 36q0 22 -0.5 40t-2.5 26q5 16 9 26.5t9 21.5q0 63 -6 125t-6 125
q17 5 38.5 10.5t38.5 10.5zM101 244q-3 -5 -4.5 -5.5t-3.5 -0.5h-4q-5 -11 -6 -17.5t-5 -17.5h-13q0 5 -0.5 10.5t-4.5 10.5h-6q0 -21 1.5 -37t9.5 -32q10 26 21 50t15 39zM107 696q-5 0 -13 -4t-16 -4v-76q8 20 15 40.5t21 35.5zM96 466q-5 -5 -10.5 -13.5t-13.5 -14.5v-40
h-7v-15h7l9.5 32.5t5.5 19t4 14t5 17.5zM83 314q-8 -11 -11 -13.5t-12 -7.5v-34q4 5 5.5 13.5t6.5 13.5h6zM89 349v-21l7 21h-7z" />
    <glyph glyph-name="braceright" unicode="}" horiz-adv-x="375" 
d="M81 -163q-3 3 -6 3t-5.5 -1.5t-4.5 -1.5q-4 0 -5 3.5t-6 3.5q0 15 -0.5 33t-3.5 32q8 0 16.5 3.5t16.5 8.5l-6 7v7l26 26q8 -11 14 -14.5t12 -3.5q9 0 24 1t22 1t14 31l-15 55h-5l-4 15.5t-2 15.5q0 15 10 28q0 8 -1 22t-2 30l-2 32t9 27l-6 15q2 11 3.5 20.5t3.5 18.5
q2 8 3 11q2 8 8 19q-2 24 -7 39q-6 18 -5 56q1 40 1.5 79.5t0.5 84.5q-9 6 -9 28v8t1 9l3 25q-4 15 -14 23q3 12 -8 14t-23 2q-11 0 -21.5 -3t-18.5 -13l-30 -5q-2 -6 -3 -7l-1 -1q0 1 1 5.5t3 9.5t4 12.5l4 15.5q-8 4 -13 9.5t-13 5.5q4 11 4.5 24.5t0.5 24.5q5 0 6 3t5 3
q2 0 4.5 -1.5t5.5 -1.5t6 3l155 -2l12 -9l-8.5 -12.5t-3 -5t0.5 -1.5h1q1 -1 3 -1v-5l9 22q-3 -5 15 -5q4 0 3 -9l2 -5l8 -1q3 -2 3 -7q0 -12 8 -15q8 -12 8 -32.5t-1 -34.5q0 -24 -7 -35q-2 -1 -3.5 -2t-3.5 -2l-6 -4q2 -3 2.5 -5t3.5 -2q3 -32 3 -69v-20q-1 -11 -1 -22.5
v-24.5q-2 -8 -6 -17q5 -14 3 -46q-1 -31 68 -30l1 -81q-27 -8 -44 -8q-21 -18 -25 -25v-8t-1 -8q-3 -23 -3.5 -37.5t0.5 -23.5t3 -12.5t3 -3.5q-5 -6 -4 -17t4 -23t5 -23.5t0 -19.5q4 -11 5 -23.5t4 -22.5h-4q0 1 -2 -9q-1 -1 -1.5 -2t-1.5 -2l-11 -7v-13q2 2 3 2
q3 0 6.5 -7t6.5 -15v-7v-20q-8 -7 1 -11q-11 -9 -22 -8q0 -5 0.5 -9t0.5 -7q0 -6 -2 -6l-1 1q-8 -3 -14 -3q-5 -10 -2 -11l-3 -12q-8 -5 -6 -6l-8 -8zM238 649l-5 9q0 -3 -3 -6q-3 -5 -3 -7zM211 299q5 -15 17 -38t23 -48q10 15 11.5 30.5t1.5 35.5h-7q-5 -5 -5.5 -10
t-0.5 -10h-14q-5 11 -6.5 17t-6.5 17q-5 0 -6.5 0.5t-6.5 5.5zM214 557q15 -15 22.5 -34t17.5 -39v73q-10 0 -19 3.5t-14 3.5zM205 69l5 -16.5l4.5 -14t6.5 -18.5l11 -31h7v14h-7v39q-10 5 -16 13.5t-11 13.5zM239 339h7q5 -5 6.5 -13t6.5 -13v33q-10 5 -13 7t-13 13z
M218 452l7 -20v20h-7z" />
    <glyph glyph-name="asciitilde" unicode="~" horiz-adv-x="520" 
d="M464 285l7 -10q6 -59 -10 -76q-11 -11 -29 -12q-33 -20 -64 -30q-25 0 -61 11q-31 10 -55 34q-75 23 -97 23q-14 0 -29 -1.5t-18 -13.5q-2 -6 -7.5 -13t-12.5 -13.5t-13.5 -13.5t-9.5 -13l-2 15l-20 49l7 12l-21 30l7.5 13.5t8.5 12.5q11 15 15 8q7 10 15 4q35 43 53 41
q13 7 24 7q37 -4 85 -24q22 -4 42 -14q3 -1 14.5 -6t25.5 -23q37 -16 40 -7q35 9 58.5 28t37.5 46zM142 333q10 -11 19 -14t14 -13h40v-7h14v7q-20 8 -31.5 12t-20 6.5t-16 4t-19.5 4.5zM333 211q15 -15 17.5 -18t2.5 -8h40q-10 5 -16.5 6.5t-16.5 6.5v7zM196 289v-14h20
q0 5 -2.5 7t-17.5 7z" />
    <glyph glyph-name="daggerdbl" unicode="&#x2021;" horiz-adv-x="1095" 
d="M153 332q-10 10 -18.5 11t-15.5 1.5t-12 5t-7 21.5h-7v-6q-20 0 -30.5 9t-15.5 24q-5 0 -8 8t-4.5 20.5t-2 28t-0.5 30.5q0 18 0.5 32.5t0.5 20.5q5 10 6 14t1 19q-6 0 -9 3l-4 4q0 5 3 10t3 10q0 12 7 28.5t17.5 32t23.5 28t25 17.5q5 0 7 -3.5t7 -3.5l4.5 10.5t3.5 5
t4.5 2t7.5 2.5v-13h13q0 10 1.5 12.5t11.5 7.5v-13h7q10 5 11.5 6.5t1.5 6.5h7l13 -13q5 5 12 5t13.5 -4.5t13 -11t12 -13t9.5 -10.5q15 -5 19 -11.5t14 -21.5q8 0 8 -15q0 -4 -0.5 -9t-0.5 -10q0 -9 2.5 -16.5t10.5 -9.5q-3 -9 -3 -13q0 -6 3 -9.5t7 -10.5
q0 -10 -1.5 -18.5t-1.5 -16.5t3 -18q-5 0 -6 -1t-1 -6l-3 -23t-2.5 -12.5t-3 -6.5t-4.5 -4h7v-40h-7l-5 -12q-2 -8 -11 -17l-11 -11l-30 -12t-33 -7q-8 0 -16 5q0 -5 -5 -10l-9 -9q-5 0 -9 4q-4 3 -4 7q-1 -4 -8 -7q-7 -4 -12 -4zM909 -28q-10 10 -18.5 11t-15.5 1.5t-12 5
t-7 21.5h-7v-6q-20 0 -30.5 9t-15.5 24q-5 0 -8 8t-4.5 20.5t-2 28t-0.5 30.5q0 18 0.5 32.5t0.5 20.5q5 10 6 14t1 19q-6 0 -9 3l-4 4q0 5 3 10t3 10q0 12 7 28.5t17.5 32t23.5 28t25 17.5q5 0 7 -3.5t7 -3.5l4.5 10.5t3.5 5t4.5 2t7.5 2.5v-13h13q0 10 1.5 12.5t11.5 7.5
v-13h7q10 5 11.5 6.5t1.5 6.5h7l13 -13q5 5 12 5t13.5 -4.5t13 -11t12 -13t9.5 -10.5q15 -5 19 -11.5t14 -21.5q8 0 8 -15q0 -4 -0.5 -9t-0.5 -10q0 -9 2.5 -16.5t10.5 -9.5q-3 -9 -3 -13q0 -6 3 -9.5t7 -10.5q0 -10 -1.5 -18.5t-1.5 -16.5t3 -18q-5 0 -6 -1t-1 -6l-3 -23
t-2.5 -12.5t-3 -6.5t-4.5 -4h7v-40h-7l-5 -12q-2 -8 -11 -17l-11 -11l-30 -12t-33 -7q-8 0 -16 5q0 -4 -5 -9l-9 -10q-5 0 -9 4t-4 8q-2 -5 -8 -8q-7 -4 -12 -4zM565 -21q-10 10 -18.5 11t-15 1.5t-11.5 5t-8 22.5h-7v-7q-20 0 -30.5 9.5t-15.5 24.5q-5 0 -7.5 7t-4 18
t-2 25.5t-0.5 28.5q0 20 0.5 37t0.5 23q4 10 5 14.5t1 18.5q-5 0 -10 1t-10 6q5 5 7 10t7 10q0 10 6.5 25t17 30t23.5 27.5t26 17.5h13q0 15 5 15t15 5v-14h13q0 11 1.5 13t12.5 7v-13h6q10 0 11.5 1.5t1.5 11.5h7l13 -13q5 5 12 5t13.5 -4.5t13 -10.5t12 -12.5t9.5 -10.5
q15 -6 19 -11.5l15 -21.5q8 0 8 -13q0 -6 -1 -12.5t-1 -14.5t2.5 -15.5t10.5 -11.5q-3 -6 -3 -10q0 -5 3 -8.5t7 -7.5q-5 -15 -6 -29t-1 -25v-6q-4 -29 -6 -35.5t-7 -11.5h7v-40h-7l-26 -40q-14 -4 -35 -12.5t-38 -8.5q-6 0 -7 1q-1 -1 -1.5 -2t-2.5 -2q-2 -2 -5 -4.5
t-5 -4.5q-6 0 -9 3q-2 1 -2.5 2t-1.5 2q-2 -1 -3.5 -2t-3.5 -2q-6 -3 -13 -3zM140 -54q5 15 5.5 29t0.5 24l20.5 36t19.5 31q3 22 20.5 60t41 79.5l47 81l38.5 64.5q10 15 16 31t17 36q22 40 41.5 81.5l39 82t40 78.5t45.5 71q2 0 8 0.5t14 0.5q19 0 29 -5q5 -2 7 -5l15 15
h7q0 -10 -4 -19.5l-9 -20.5l-31 -40t-36 -40v-6q20 25 31.5 35.5t21.5 10.5q-15 -35 -34 -73t-39 -73q-6 -6 -14 -24l-7 -16q-2 -5 -3.5 -8l-2.5 -5q-7 -8 -23.5 -34t-34.5 -57.5l-34 -60.5t-21 -41q-10 -10 -19.5 -21t-19.5 -26q-18 -32 -28 -63.5t-19 -63.5l-19 -65
t-28 -67q-8 0 -21.5 -1.5t-28 -3.5l-28 -4t-21.5 -4zM172 430q5 3 7.5 3.5t15.5 0.5v7h6v5h5q0 8 1 15t6 11q0 5 0.5 5.5t4.5 0.5q-4 4 -4.5 11t-0.5 15q0 4 2.5 11.5t2.5 15.5q-2 4 -2 9v10q0 11 1 21.5t1 18.5q0 12 -2.5 20.5t-2.5 16.5q1 0 -9 2l-3 3v12q-7 1 -13 1.5
t-11 0.5q-20 0 -33 -9q-5 -16 -9 -34t-9 -34q0 -9 3 -14t3 -14q-5 -12 -6.5 -21.5t-1.5 -18.5q0 -8 1 -17.5t1 -21.5h6v-21h6v5h6v10h10v-5h7q0 -4 0.5 -8t5.5 -9zM928 70q5 3 7.5 3.5t15.5 0.5v7h6v5h5q0 8 1 15t6 11q0 5 0.5 5.5t4.5 0.5q-4 4 -4.5 11t-0.5 15
q0 4 2.5 11.5t2.5 15.5q-2 4 -2 9v10q0 11 1 21.5t1 18.5q0 12 -2.5 20.5t-2.5 16.5q1 0 -9 2l-3 3v12q-7 1 -13 1.5t-11 0.5q-20 0 -33 -9q-5 -16 -9 -34t-9 -34q0 -9 3 -14t3 -14q-5 -12 -6.5 -21.5t-1.5 -18.5q0 -8 1 -17.5t1 -21.5h6v-21h6v5h6v10h10v-5h7q0 -4 0.5 -8
t5.5 -9zM583 70q4 4 6.5 4.5t15.5 0.5v6h6v5h6q0 8 0.5 15t5.5 11h6q-5 8 -5.5 15.5t-0.5 15.5q0 4 3 10.5t3 10.5q-3 10 -3 21t1.5 21t1.5 21q0 8 -3.5 15.5t-8.5 15.5q0 4 -3 5t-3 5v11q-5 1 -9.5 1.5t-9.5 0.5q-11 0 -20.5 -2.5t-18.5 -4.5q-4 -20 -8.5 -36t-9.5 -32
q0 -8 0.5 -15t5.5 -11v-6q-5 -11 -6 -20t-1 -19q0 -8 0.5 -17.5t0.5 -20.5q5 -5 5.5 -8.5t0.5 -7.5h7v5h5v5q3 3 5 3t2.5 -1.5t4.5 -1.5l5 -5v-11q5 0 6.5 -0.5t6.5 -4.5zM452 478l16.5 22t10.5 18h13q-5 -11 -6.5 -16.5t-6.5 -10.5l6 -7q11 26 20 43t14 37
q-21 -4 -33.5 -15.5t-19.5 -24.5t-11 -26t-9 -20h6zM180 -1q5 5 10 6t10 1l46 79q-20 -14 -35.5 -36t-30.5 -37v-13zM1029 178q9 -4 17 -4q9 0 9 9q0 5 -1 10.5t-1 11.5q0 3 2 13q0 2 -3 5q-1 1 -3 1v-6h-7q0 -5 -3.5 -13.5t-3.5 -13.5h-6v-13zM273 538q9 -4 17 -4q9 0 9 9
q0 5 -1 10.5t-1 11.5q0 3 2 13q0 2 -3 5q-1 1 -3 1v-6h-7q0 -5 -3.5 -13.5t-3.5 -13.5h-6v-13zM331 258l-2 -2q-1 -1 -1.5 -2.5t-2.5 -3.5l7 8l14 14l20 7l4 16l4 11.5t5 5.5l7 13h-7l-18.5 -25l-12.5 -17l-9 -12.5t-8 -12.5zM492 225q5 10 9 16t4 11h14q0 5 0.5 10t5.5 10
h-6v20q-5 -5 -6 -7.5t-1 -12.5q-14 -19 -17 -25.5t-3 -17.5v-4zM842 224q0 5 4.5 11t9.5 16h6q0 3 1 4l2 4q1 1 1.5 2t2.5 3h-7v20q-5 -5 -5.5 -6.5t-0.5 -6.5v-7q-14 -19 -17 -24t-3 -13v-3h6zM86 584q0 5 4.5 11t9.5 16h6q0 3 1 4l2 4q1 1 1.5 2t2.5 3h-7v20
q-5 -5 -5.5 -6.5t-0.5 -6.5v-7q-14 -19 -17 -24t-3 -13v-3h6zM60 398q4 4 9 6q1 1 4 1q0 10 3.5 19t3.5 14q-5 0 -7.5 -1t-12.5 -6v-33zM816 38q4 4 9 6q1 1 4 1q0 10 3.5 19t3.5 14q-5 0 -7.5 -1t-12.5 -6v-33zM472 46q5 5 6.5 5.5t6.5 0.5q0 11 3.5 19.5t3.5 13.5
q-5 0 -7.5 -0.5t-12.5 -5.5v-33zM412 398q15 10 18.5 11.5t8.5 1.5l19 44q-2 -4 -4.5 -7.5l-4.5 -6.5t-5 -7t-5 -9h-7zM1009 18q15 15 20.5 23.5t5.5 23.5q-5 -5 -12.5 -15t-7.5 -25h-6v-7zM253 378q15 15 20.5 23.5t5.5 23.5q-5 -5 -12.5 -15t-7.5 -25h-6v-7zM685 185l8 11
t5.5 8l5.5 8.5l8 12.5h-14q0 -10 -3 -15.5t-3 -10.5q-3 0 -4 -1q-3 -2 -3 -6v-7zM679 54q-7 -7 -7 -21q5 5 8.5 9t5.5 7q6 7 6 23q-4 -9 -13 -18zM279 431q5 10 6 15.5t1 9.5v9q-5 -5 -6 -17t-1 -17zM1035 71q5 10 6 15.5t1 9.5v9q-5 -5 -6 -17t-1 -17zM692 79q4 11 5 16
t1 10v7q-5 -5 -5.5 -12.5t-0.5 -14.5v-6zM512 199v13q-5 0 -6 -1.5t-1 -11.5h7zM856 191v13q-5 0 -6 -1.5t-1 -11.5h7zM100 551v13q-5 0 -6 -1.5t-1 -11.5h7zM989 51v14q-5 -5 -6 -10q-1 -1 -1 -4h7zM233 411v14q-5 -5 -6 -10q-1 -1 -1 -4h7zM658 199h-6v-20zM638 59
q5 5 5 6q0 2 -1.5 3t-3.5 4v-13zM612 12q5 0 5.5 1t0.5 6q-4 0 -5 -4q-1 -2 -1 -3v0zM671 32h-6v-6zM206 371q-1 0 -3.5 -1.5t-2.5 -4.5zM962 11q-1 0 -3.5 -1.5t-2.5 -4.5z" />
    <glyph glyph-name="exclamdown" unicode="&#xa1;" horiz-adv-x="363" 
d="M59 599q-8 10 -13 9.5t-13 3.5q5 6 5.5 14.5t0.5 13.5q-5 17 -5 36q0 11 1.5 24t3.5 28q11 -5 21.5 -4t18.5 -10v8q8 0 11.5 4.5t11.5 4.5q2 2 5 2q2 0 3.5 -0.5t3.5 -0.5q4 0 6 3h10q2 -3 6 -4t8.5 -1.5t8 -2t3.5 -4.5q-9 -12 -15 -16.5t-6 -5.5t1 -1q2 0 5.5 0.5
t9.5 0.5q4 -15 4.5 -34t0.5 -34q-6 0 -6 -8q0 -3 2 -9q-2 2 -4 2q-3 0 -5.5 -5.5t-2.5 -9.5q0 -2 0.5 -2.5t0.5 -1.5q-11 0 -26.5 1.5t-30.5 1.5q-8 0 -14 -0.5t-11 -2.5zM305 738q8 -10 13 -9t13 -4q-5 -5 -5.5 -13.5t-0.5 -14.5q4 -12 4 -37q0 -11 -1 -24t-3 -27
q-6 3 -11.5 3.5l-10.5 1t-9.5 2.5t-8.5 7v-7q-8 0 -11.5 -4.5t-11.5 -4.5q-3 -3 -7 -3q-2 0 -3 0.5t-3 0.5q-4 0 -5 -3h-10q-4 5 -15 6t-11 6q9 11 15 15.5t6 6.5h-2h-14q-4 15 -4.5 34t-0.5 35q5 0 5 7v3q0 5 -1 6q1 0 1.5 -0.5t1.5 -0.5q5 0 6.5 5t1.5 9v4q11 0 26.5 -2
t29.5 -2q18 0 26 4zM248 724q-4 4 -9 4t-5 -6l-2 -8q-1 -4 -5 -4l-5 -19h-6v-8h6l12.5 16t6.5 9.5t3.5 7zM74 700q-7 4 -9 4q-6 0 -6 -8.5t-6 -8.5l-5 -20h-6v-7h6l12.5 15.5t6.5 9.5l3 7zM310 650q-8 -5 -10 -6t-9 -1v-20q3 5 4 9t5 4h5zM136 650q-8 -5 -10 -6t-9 -1v-20
q3 5 4 9t5 4h5zM152 615q3 0 4 -3q-3 0 -4 3zM208 725l4 -4z" />
    <glyph glyph-name="macron" unicode="&#xaf;" horiz-adv-x="244" 
d="M163 366q23 4 25 -17l3 -1q9 10 10 6.5t-6 -20.5q13 -4 13 -14q3 -13 4.5 -26.5t1.5 -30.5q0 -18 -27 -49q-17 -21 -24.5 -23.5t-17.5 11.5v-11q-13 0 -19 -7.5t-19 -7.5q-2 -3 -9 -3q-2 0 -5.5 0.5t-5.5 0.5q-6 0 1 19l-16 -3q-4 1 -10 3t-14 5q-12 9 -2 16t10 9
q0 1 -2 1t-7.5 -0.5t-2.5 10.5q-20 14 -21 43q-1 15 -1 28.5v25.5q9 0 9 12q0 4 -0.5 6t-2.5 7q2 0 2 -0.5t1 -0.5q4 0 9 5q7 6 12 1h6q11 9 20 13t18 5t18.5 0.5t21.5 -0.5q26 0 27 -13zM85 362q-9 6 -14 6t-6.5 -4.5t-2.5 -9.5t-2.5 -9.5t-6.5 -4.5l-9 -31h-9v-11h9
q13 15 20 24t11 15.5t6 12t4 12.5zM183 245q-11 -8 -15 -9t-14 -1v-33q5 9 6 15t8 6h8zM28 359q-4 1 -6 5q4 0 6 -5z" />
    <glyph glyph-name="circumflex" unicode="&#x2c6;" horiz-adv-x="362" 
d="M72 533q-18 0 -27.5 5t-25.5 5q8 14 18 23.5t18 24.5q0 2 -2.5 4.5t-2.5 4.5q2 2 5.5 7.5t11.5 5.5q2 0 3.5 -0.5t3.5 -0.5q8 0 8 7q0 4 -3 7q11 5 11 9q0 1 -0.5 1t-0.5 1l9.5 14t14.5 16q1 12 7 12q2 0 5.5 -3t6.5 -6l4 2q-3 6 -7 9.5t-8 8.5l3 3q3 3 8 5h10
q4 -2 4.5 -3t0.5 -3h16q7 2 24 4t33 2h9q8 -14 13.5 -26.5t24.5 -28.5q4 -3 8.5 -5t8.5 -4q2 -7 13.5 -21.5t23.5 -19.5v-6q0 -5 4 -5q18 -11 18 -29q-15 0 -23 2.5t-18 8.5v-2q7 -3 16 -8t20 -9v-8h-17q-2 1 -3.5 3t-5.5 3q-3 0 -6 -0.5t-6 -0.5q-5 0 -8.5 0.5t-5.5 0.5
t-4 2h-2q-8 -2 -10.5 -5t-12.5 -3q-14 8 -21.5 16.5t-12 17.5t-8.5 18t-11 17q-4 4 -4.5 7.5t-0.5 6.5q-4 5 -8 9.5t-8 10.5q-4 -4 -4 -7v-5q-4 -3 -8.5 -7t-7.5 -7q-5 -5 -7 -13t-5.5 -16t-10 -16t-19.5 -13q-2 -2 -2 -3q0 -3 3.5 -7.5t3.5 -6.5q-10 -2 -28 -3t-26 -3z
M230 606q9 -6 27.5 -13.5t34.5 -21.5q12 7 12 13q0 3 -3.5 5.5t-8.5 6.5h-5v-2l5 -2q-6 -2 -7 -2q-4 0 -7.5 1t-7.5 1q-7 1 -12.5 3.5t-5.5 7.5h-12q-6 0 -10 3zM110 555q0 5 -3 10l-7 17h-19v-4h9q1 0 1 -2l-10 -16q18 -4 20 -6l3 -3l6 -4v8zM190 684q6 -6 9.5 -8.5t8 -5
l11.5 -6.5t19 -13h14l-9 9h-5l-8 11q-13 2 -21 6t-19 7zM252 617l8 5q5 -5 13 -7.5t14 -3.5l-11 11q-13 0 -17.5 1t-20.5 8z" />
    <glyph glyph-name="less" unicode="&#x3c;" horiz-adv-x="576" 
d="M6 328q8 8 12 11q1 16 0 32q31 12 51 20.5t32 14.5t17 9t5 5q14 6 23.5 13t19.5 13q13 6 38.5 15t48.5 19l47 21.5t30 21.5q1 0 8.5 1t15.5 3.5t15.5 6t9.5 8.5q29 11 37 12l15.5 3t26.5 7q1 -2 1 -10q1 -28 -40 -54h5l36.5 29.5l35.5 29.5q9 0 18 2.5t17 3.5h3v-12
q-4 -5 -8.5 -9.5t-14.5 -9.5q5 -8 6 -15t2 -12l1 -5q-6 -5 -9 -6.5t-3 -5.5q15 -4 24 -4.5t16 -13.5q-14 -11 -31 -21t-36 -19l-32.5 -14t-21.5 -9t-22 -7.5l-34 -11.5l-38.5 -13.5t-35.5 -14.5q-19 -3 -34 -8t-20 -8q-10 -4 -22.5 -8.5t-27.5 -11.5l-7 -3l22 -9t26 -10
l21 -7q6 -2 15 -6.5l22 -10.5q26 -12 27 -11t26 -6t37 -6q1 -1 7 -5.5t13.5 -8.5t15.5 -6.5t13 -0.5q27 -14 27 -16q1 -2 30 -18q-3 -7 -6 -8q-5 -6 -7.5 -7.5t-4 -1.5h-2.5t-4 -3l3 -4q5 -2 8 -2.5t7.5 -0.5t11 -1t18.5 -2q7 -7 15.5 -11.5t15.5 -10.5l-8 -9l-8 -10
q-5 -1 -14 -1q-6 1 -13.5 -2t4.5 -11l-10 -4q-16 5 -19 6t1 -8q0 -3 2 -6.5t4 -7.5t2.5 -9t-2.5 -11q-19 3 -30 4.5t-16 2.5q-8 2 -47 18l-32.5 15t-17.5 8q-5 3 -16.5 8l-30.5 13q-15 10 -29.5 17t-27.5 12l-19.5 11t-18.5 10l-22 10.5t-29 11.5q-33 13 -33 12q1 -1 -3.5 3
t-12.5 12q-5 5 -8 9t-5 8q-14 6 -30 10.5t-30 10.5q-1 3 -5 9l-2 2q0 4 -1 6q-1 1 -1 2t-1 3l-4 12t-4 11zM348 453q12 9 31 26.5t47 38.5q-5 1 -9.5 1.5t-8.5 0.5q-12 -2 -24.5 -7t-26.5 -8l1 -7h1q5 0 10.5 3.5t10.5 2.5h2l2 -19q-10 -5 -18 -9.5t-12 -10.5q-5 0 -6 -4
t0 -8zM146 377q8 6 14 11t13.5 10.5l19 13.5l31.5 21l1 7l-19 -6v-6l-37 -13q-4 -11 -11.5 -20.5t-11.5 -17.5zM224 259q10 -1 24.5 -4t38.5 -7l5 6l-18 7l-5 -4l-36 17q-10 -3 -8.5 -7t-5.5 -7h1q1 0 2.5 -0.5zM279 446l24 13l-6 6q8 4 16.5 10t12.5 15l-37 -20
q1 -5 -0.5 -7.5zM316 241l9 3q5 -2 9.5 -3t9.5 -2q10 -2 -6 9l-14 5q-3 -4 -6.5 -5t-19.5 -5zM302 218l19 -3l-2 3l-14 5zM249 420q16 12 16 13l-4 -1l-13 -6zM293 183q4 -4 6 -5.5t3 -2.5q4 0 7 1l-1 1q-5 1 -15 6zM325 408l5 1q4 1 8 1l3 6l-2 -1zM217 259q11 -1 4 0h-4z
M450 198l-14 9t-13 10q-9 5 -23.5 5t-28.5 -1h-15q0 -5 1.5 -7t12.5 -13q12 -2 29.5 -3t31.5 -1z" />
    <glyph glyph-name="ellipsis" unicode="&#x2026;" horiz-adv-x="699" 
d="M153 168q9 -11 15 -12l7 -1q4 0 10 -3q-5 -7 -6 -17t-1 -17q2 -10 3.5 -20.5t1.5 -23.5q0 -14 -1.5 -29.5l-3.5 -34.5q-7 3 -14 3.5t-13.5 1.5t-12 3.5t-9.5 8.5v-9q-10 0 -14.5 -5.5t-14.5 -5.5q-2 -3 -7 -3q-2 0 -4.5 0.5t-4.5 0.5q-5 0 -6 -3h-12q-2 3 -7.5 4.5
t-11 2.5t-9.5 2.5t-4 4.5q11 15 18.5 20.5t7.5 6.5t-1 1q-2 0 -6 -0.5t-12 -0.5q-5 19 -6 42t-1 42q7 0 7 9q0 3 -0.5 4.5t-1.5 5.5q1 0 1 -0.5t1 -0.5q3 0 7 4q5 5 5 14v5q12 0 31.5 -2t37.5 -2q22 0 31 4zM83 151q-7 4 -11 4t-5 -3.5l-2 -7l-2 -7t-5 -3.5l-7 -24h-7v-9h7
l15.5 19t8.5 12t4.5 9t3.5 10zM159 60q-9 -6 -12 -7t-11 -1v-25q4 7 5 11.5t6 4.5h6zM39 148q-2 1 -3 2l-2 2q4 0 5 -4zM393 168q9 -11 15 -12l7 -1q4 0 10 -3q-5 -7 -6 -17t-1 -17q2 -10 3.5 -20.5t1.5 -23.5q0 -14 -1.5 -29.5l-3.5 -34.5q-7 3 -14 3.5t-13.5 1.5t-12 3.5
t-9.5 8.5v-9q-10 0 -14.5 -5.5t-14.5 -5.5q-2 -3 -7 -3q-2 0 -4.5 0.5t-4.5 0.5q-5 0 -6 -3h-12q-2 3 -7.5 4.5t-11 2.5t-9.5 2.5t-4 4.5q11 15 18.5 20.5t7.5 6.5t-1 1q-2 0 -6 -0.5t-12 -0.5q-5 19 -6 42t-1 42q7 0 7 9q0 3 -0.5 4.5t-1.5 5.5q1 0 1 -0.5t1 -0.5q3 0 7 4
q5 5 5 14v5q12 0 31.5 -2t37.5 -2q22 0 31 4zM323 151q-7 4 -11 4t-5 -3.5l-2 -7l-2 -7t-5 -3.5l-7 -24h-7v-9h7l15.5 19t8.5 12t4.5 9t3.5 10zM399 60q-9 -6 -12 -7t-11 -1v-25q4 7 5 11.5t6 4.5h6zM279 148q-2 1 -3 2l-2 2q4 0 5 -4zM633 168q9 -11 15 -12l7 -1q4 0 10 -3
q-5 -7 -6 -17t-1 -17q2 -10 3.5 -20.5t1.5 -23.5q0 -14 -1.5 -29.5l-3.5 -34.5q-7 3 -14 3.5t-13.5 1.5t-12 3.5t-9.5 8.5v-9q-10 0 -14.5 -5.5t-14.5 -5.5q-2 -3 -7 -3q-2 0 -4.5 0.5t-4.5 0.5q-5 0 -6 -3h-12q-2 3 -7.5 4.5t-11 2.5t-9.5 2.5t-4 4.5q11 15 18.5 20.5
t7.5 6.5t-1 1q-2 0 -6 -0.5t-12 -0.5q-5 19 -6 42t-1 42q7 0 7 9q0 3 -0.5 4.5t-1.5 5.5q1 0 1 -0.5t1 -0.5q3 0 7 4q5 5 5 14v5q12 0 31.5 -2t37.5 -2q22 0 31 4zM563 151q-7 4 -11 4t-5 -3.5l-2 -7l-2 -7t-5 -3.5l-7 -24h-7v-9h7l15.5 19t8.5 12t4.5 9t3.5 10zM639 60
q-9 -6 -12 -7t-11 -1v-25q4 7 5 11.5t6 4.5h6zM519 148q-2 1 -3 2l-2 2q4 0 5 -4z" />
    <glyph glyph-name="quotedblbase" unicode="&#x201e;" horiz-adv-x="404" 
d="M344 156q5 -5 8 -6.5t5 -2t5 -1t8 -3.5q0 -10 -3 -19t-3 -14q8 -24 8 -43q0 -12 -1 -15q2 -11 3.5 -25t1.5 -31q0 -11 -1 -22.5t-5 -23.5q-2 -6 -2 -10q0 -3 0.5 -6.5t0.5 -7.5q0 -11 -2 -21t-10 -15q0 -8 -10 -13t-24 -10.5l-30.5 -12.5t-28.5 -17l-13 -7l-6 11
q0 -3 -3 -7q-2 -3 -6 -6t-12 -4l13 26q2 0 2 2t-2 5.5t-2 5.5q1 1 2 1l7 40h7l6 6l7 -6q5 0 6 0.5t1 5.5h13q-5 5 -6 6.5t-1 6.5h-6q5 5 9 13.5t4 13.5q0 11 2.5 27.5t5.5 32.5h-21q-5 -5 -7 -9t-7 -4h-13q-5 5 -6 10t-1 10q2 6 2 5v1l-1 3q0 2 0.5 4t5.5 7l7 19
q-5 -5 -6 -9t-3 -6t-7 -3t-18 -1q0 14 -1.5 28t-1.5 28q0 12 3 23q7 4 7 11q0 6 -3.5 12.5t-3.5 10.5h2q8 0 11.5 -12t5.5 -24q1 -2 1 -11q2 2 4 2t3 -2t3 -2t4 2q0 4 0.5 7t0.5 5q0 10 -2.5 13t-5.5 3.5t-5.5 2.5t-2.5 11q0 8 1 11q14 0 33 -1t39 -1h18.5t16.5 2zM71 3
q-8 3 -12 3.5t-7 1t-6 2.5t-8 7v5q0 6 0.5 13t5.5 15q-9 12 -11.5 25t-2.5 28q0 11 0.5 22t0.5 25q10 0 18 0.5t16 0.5t14.5 -1.5t11.5 -6.5q0 4 3 6q1 1 4 1q10 5 19.5 5.5t20.5 0.5q5 0 6.5 4.5t6.5 9.5h20q0 -5 3 -10t3 -10q-6 -6 -7 -13l-4 -16q-1 -5 -1.5 -9t-0.5 -9
q1 3 4 3q4 0 5 -10t1 -23q0 -11 -0.5 -21.5t-2.5 -14.5q-3 -22 -25 -29l18 -18q8 -8 8 -23q0 -2 -0.5 -4.5t-0.5 -5.5q-5 0 -6 -7.5t-2 -17.5t-3 -20t-9 -15q0 -15 -16.5 -23.5t-36.5 -23.5q0 -2 -6 -5.5t-14 -6.5l-20 -8q-11 2 -14.5 6.5t-5.5 9.5q-1 1 -1 5q0 5 1 6
q2 2 2 4t-3 5l-6 4l13 40l7 7l13 6l-6 -6q0 -5 0.5 -6t5.5 -1l7 7h7v13h-7q5 5 9 13.5t4 13.5q0 8 2 21l4 27h-10q1 0 -9 -2zM144 56q-6 -2 -11 -2q-11 0 -19 4.5t-16 4.5l13 -40q5 5 9 10t4 10h14zM304 83q-10 -5 -13 -9t-14 -4l-6 -27h-7v-6h7l15 15q11 11 13 19zM337 143
v-13q5 5 5 6q0 2 -1.5 3t-3.5 4z" />
    <glyph glyph-name="quotesinglbase" unicode="&#x201a;" horiz-adv-x="194" 
d="M67 3q-8 3 -12 3.5t-7 1t-6 2.5t-8 7v5q0 6 0.5 13t5.5 15q-9 12 -11.5 25t-2.5 28q0 11 0.5 22t0.5 25q10 0 18 0.5t16 0.5t14.5 -1.5t11.5 -6.5q0 4 3 6q1 1 4 1q10 5 19.5 5.5t20.5 0.5q5 0 6.5 4.5t6.5 9.5h20q0 -5 3 -10t3 -10q-6 -6 -7 -13l-4 -16q-1 -5 -1.5 -9
t-0.5 -9q1 3 4 3q4 0 5 -10t1 -23q0 -11 -0.5 -21.5t-2.5 -14.5q-3 -22 -25 -29l18 -18q8 -8 8 -23q0 -2 -0.5 -4.5t-0.5 -5.5q-5 0 -6 -7.5t-2 -17.5t-3 -20t-9 -15q0 -15 -16.5 -23.5t-36.5 -23.5q0 -2 -6 -5.5t-14 -6.5l-20 -8q-11 2 -14.5 6.5t-5.5 9.5q-1 1 -1 5
q0 5 1 6q2 2 2 4t-3 5l-6 4l13 40l7 7l13 6l-6 -6q0 -5 0.5 -6t5.5 -1l7 7h7v13h-7q5 5 9 13.5t4 13.5q0 8 2 21l4 27h-10q1 0 -9 -2zM140 56q-6 -2 -11 -2q-11 0 -19 4.5t-16 4.5l13 -40q5 5 9 10t4 10h14z" />
    <glyph glyph-name="onequarter" unicode="&#xbc;" horiz-adv-x="954" 
d="M115 507q-14 0 -29.5 1.5t-31.5 2.5q-15 1 -9 3q8 2 -3 2t-13 -2q-3 0 -6 6.5t-6 16t-4.5 21t-1.5 21.5q0 12 2.5 20t8.5 8q2 0 39 8q35 10 54 39q0 34 20 79q15 0 22.5 -1.5t17.5 -11.5v7q10 5 19.5 5.5t20.5 0.5q5 5 6.5 0t6.5 0h13q5 -5 7 -14t7 -19q-15 -12 -25 -34
l6 -6q11 27 11 12q1 -12 21 -12q5 -30 9 -64t4 -69q-6 -3 -6 -13t3 -20.5t3 -12.5q-9 -11 -8.5 -23.5t1.5 -35.5q-9 -19 -10 -51t4 -89q-25 -5 -46 -10l-41 -10q-5 7 -13 9.5t-16.5 3t-16.5 1.5t-13 6q0 7 3 18.5t4 22.5t0 4q-1 -4 -2 18.5t-3 73.5q-5 69 -9 88zM205 531
q5 5 9 6.5t4 6.5q5 5 6.5 13.5t6.5 13.5t10 5.5t10 0.5v-26h7q0 20 -1.5 39t-11.5 34q-11 -30 -23 -51.5t-17 -41.5zM225 406q15 15 18 17.5t8 2.5v40q-5 -10 -6.5 -16.5t-6.5 -16.5h-7zM115 600l-33 -6q10 -5 16.5 -7t16.5 -7v20zM95 554q0 5 -4 6.5t-9 6.5l-20 -7v7h-7v-7
q15 -3 21 -4.5t11 -1.5h8zM834 405v-6h13v-14q0 -5 7.5 -10.5t12.5 -15.5q-5 -15 -6 -26.5t-1 -26.5q7 -16 11 -18q3 -2 3 -31q0 -25 -1 -30q-2 -8 -3 -30q-1 -11 -1 -17t-1 -8t-1 -16q0 -16 3 4q3 19 3 0v-40q20 0 30 -4t30 -9q0 -10 1.5 -14.5t1.5 -9.5q0 -4 -3 -10l-9 -3
q-4 -2 -4.5 -2.5t-1.5 -0.5h2v-27q5 -5 6.5 -9t6.5 -4v-14q-5 0 -10 -3t-10 -3q-15 0 -16 1q0 2 -10 12l-7 -7q7 -6 7 -6.5t-8 3.5q-6 4 -5 -10q3 -17 3 -20t-4 -3q0 -3 -1 -12t-3 -21t-4 -26.5t-5 -27.5q-15 0 -21.5 9.5t-11.5 24.5q0 -5 -3.5 -7t-3.5 -7h-33
q0 -5 -3.5 -13t-3.5 -13h-13q0 10 -3.5 19.5t-3.5 20.5q5 16 14 34.5t20 38.5l-7 7q-5 -10 -8 -18.5t-7 -15t-9.5 -10t-15.5 -3.5q-5 21 -6 22t-1 21h-53q-5 5 -10.5 6.5t-15.5 6.5q-35 0 -74 -3t-43 7l-6 6q-8 -5 -11 -5q-4 0 -9 5v7h-7l7 7q-7 0 -7 6v7q0 5 3 14q4 8 7 31
q5 24 7 27t6.5 10.5t12.5 18.5q17 24 25.5 41t8.5 7q20 28 36.5 47.5t32.5 31.5t33 48q8 18 17.5 34.5t19.5 31.5q5 0 10 4t10 9l80 -6q1 1 2 1.5t2 1.5q2 0 6 2zM767 120q1 9 -3 42q-3 17 -3.5 27t0 17t2 11t4.5 9v43q-5 -10 -9 -16.5t-8 -9.5t-25 -24q-19 -18 -31.5 -27
t-18.5 -15l-11 -11l-3 -17l-17 -29q12 0 27 -1t29.5 -2.5t26.5 -2.5t20 -1q5 0 10 1t10 6zM803 245q-1 3 -6 -5.5t-10 -13.5v-34q1 4 2 7t2 5q8 17 10 25.5t2 15.5zM687 33h20l7 -6l6 -7v7q-12 7 -19 11.5t-12 7t-9.5 4t-11.5 2.5q10 -9 19 -19zM794 279v-7q10 15 16.5 37
t16.5 36q-10 -14 -19 -32.5t-14 -33.5zM767 40v-13l7 -7l6 7h-6v6zM800 170h-6v-14q3 -4 5 -4q1 0 1 2.5v15.5zM760 326v12q-2 -4 -4 -6q-5 -2 -9 -6h13zM780 186h4q-1 -1 -2 9t-2 8h-6zM720 319l-13 -13q13 0 13 13zM601 186l13 7v9q-5 -8 -13 -16zM568 40v7l-7 -7h7z
M561 53v-6l7 6h-7zM606 730q5 -9 9.5 -21.5t9.5 -22.5q-5 -14 -13 -28.5t-13 -28.5q3 -9 3 -21q0 -24 -10 -56t-23 -65l-26 -64t-19 -53l-10 -29t-9 -34q-14 -36 -26.5 -76t-26.5 -80.5t-30.5 -78.5t-38.5 -69q-14 5 -14 14.5t-5 23.5q-4 0 -5.5 -3.5t-6.5 -8.5h-5
q-5 0 -12 0.5t-15 5.5q-5 -10 -9.5 -15t-9.5 -10h-12q0 9 3 18.5t3 19.5l28.5 37.5t28.5 38.5v5q-12 -20 -25 -32.5t-28 -12.5q-2 0 -10 2l18.5 64.5l18.5 61.5q5 3 8.5 10.5t6 15.5t3.5 15t1 9q10 7 21.5 31t22 52.5l19.5 55t14 38.5q5 11 12.5 21t12.5 24q24 63 41.5 120
t41.5 120q19 0 37.5 3t38.5 3zM580 686q-9 -5 -17.5 -5.5t-13.5 -0.5l-32 -70q20 14 32 31.5t31 31.5v13zM491 465q-9 -5 -18 -13t-20 -13l-12 -38h-6l-7 -19h7l22 33l13 20t9.5 14zM441 351l-6 -13v-4q1 0 12 17h-6zM422 319q-14 -9 -17 -10.5t-8 -1.5l-19 -38
q9 5 14.5 13.5t10.5 17.5l6 -6zM460 275q-5 -10 -6.5 -14.5t-6.5 -4.5q10 5 11.5 7t1.5 12zM416 250q-5 0 -9 -1t-4 -6q-5 -5 -10 -13.5l-10 -17.5h-19q0 5 3.5 12.5t3.5 12.5h-7q-3 -15 -8.5 -28t-5.5 -27q0 -2 0.5 -6t1.5 -9q20 29 37 49t27 34z" />
    <glyph glyph-name="onesuperior" unicode="&#xb9;" horiz-adv-x="305" 
d="M110 507q-14 0 -29.5 1.5t-31.5 2.5q-15 1 -9 3q8 2 -3 2t-13 -2q-3 0 -6 6.5t-6 16t-4.5 21t-1.5 21.5q0 12 2.5 20t8.5 8q2 0 39 8q35 10 54 39q0 34 20 79q15 0 22.5 -1.5t17.5 -11.5v7q10 5 19.5 5.5t20.5 0.5q5 5 6.5 0t6.5 0h13q5 -5 7 -14t7 -19q-15 -12 -25 -34
l6 -6q11 27 11 12q1 -12 21 -12q5 -30 9 -64t4 -69q-6 -3 -6 -13t3 -20.5t3 -12.5q-9 -11 -8.5 -23.5t1.5 -35.5q-9 -19 -10 -51t4 -89q-25 -5 -46 -10l-41 -10q-5 7 -13 9.5t-16.5 3t-16.5 1.5t-13 6q0 7 3 18.5t4 22.5t0 4q-1 -4 -2 18.5t-3 73.5q-5 69 -9 88zM200 531
q5 5 9 6.5t4 6.5q5 5 6.5 13.5t6.5 13.5t10 5.5t10 0.5v-26h7q0 20 -1.5 39t-11.5 34q-11 -30 -23 -51.5t-17 -41.5zM220 406q15 15 18 17.5t8 2.5v40q-5 -10 -6.5 -16.5t-6.5 -16.5h-7zM110 600l-33 -6q10 -5 16.5 -7t16.5 -7v20zM90 554q0 5 -4 6.5t-9 6.5l-20 -7v7h-7v-7
q15 -3 21 -4.5t11 -1.5h8z" />
    <glyph glyph-name="onehalf" unicode="&#xbd;" horiz-adv-x="1033" 
d="M122 507q-14 0 -29.5 1.5t-31.5 2.5q-15 1 -9 3q8 2 -3 2t-13 -2q-3 0 -6 6.5t-6 16t-4.5 21t-1.5 21.5q0 12 2.5 20t8.5 8q2 0 39 8q35 10 54 39q0 34 20 79q15 0 22.5 -1.5t17.5 -11.5v7q10 5 19.5 5.5t20.5 0.5q5 5 6.5 0t6.5 0h13q5 -5 7 -14t7 -19q-15 -12 -25 -34
l6 -6q11 27 11 12q1 -12 21 -12q5 -30 9 -64t4 -69q-6 -3 -6 -13t3 -20.5t3 -12.5q-9 -11 -8.5 -23.5t1.5 -35.5q-9 -19 -10 -51t4 -89q-25 -5 -46 -10l-41 -10q-5 7 -13 9.5t-16.5 3t-16.5 1.5t-13 6q0 7 3 18.5t4 22.5t0 4q-1 -4 -2 18.5t-3 73.5q-5 69 -9 88zM212 531
q5 5 9 6.5t4 6.5q5 5 6.5 13.5t6.5 13.5t10 5.5t10 0.5v-26h7q0 20 -1.5 39t-11.5 34q-11 -30 -23 -51.5t-17 -41.5zM232 406q15 15 18 17.5t8 2.5v40q-5 -10 -6.5 -16.5t-6.5 -16.5h-7zM122 600l-33 -6q10 -5 16.5 -7t16.5 -7v20zM102 554q0 5 -4 6.5t-9 6.5l-20 -7v7h-7
v-7q15 -3 21 -4.5t11 -1.5h8zM953 -10l-46 13v-7q-5 -2 -11 -6t-12 -4q-9 0 -17 17q-5 0 -15.5 -2t-21.5 -4.5t-21 -4.5t-15 -2q-56 10 -103.5 14.5t-103.5 4.5l-6 84q0 1 11 23q11 21 25 26q13 4 103 70q1 -1 30 20q10 -3 14 -1q3 1 36 27q18 11 27 14l-7 10q5 5 10 6.5
t12 10.5q14 14 10 14q-3 0 -3.5 11.5t4.5 20.5h-13q0 10 -3.5 23t-3.5 23h-13v14h-6v6q-14 5 -21 6t-11 1h-8q-5 -5 -7 -6t-7 -1q-5 -5 -5.5 -10t-0.5 -10h-7q0 -5 -3.5 -6.5t-3.5 -6.5q-5 0 -6.5 1t-6.5 6v13h-13q7 -5 7 -8t-1.5 -6t-1 -8t8.5 -15h-7q-5 -12 -5.5 -20.5
t-0.5 -16.5v-9l-60 -13l-53 -7v15q0 11 -6 17l-8 8q0 8 -0.5 17.5t-0.5 20.5q0 23 3.5 27.5t17.5 4.5q11 20 27.5 33t46.5 13v-7h6q5 23 14 28.5t21 5.5q-4 0 -2.5 0t7 1t13 3.5t14.5 8.5q5 0 15.5 -4t10.5 -9q5 5 11 9t16 4l20 -20q9 4 21 4q23 0 51 -9.5t48 -14.5l15 -16
q-11 -8 -7 -17t11 -27q5 8 8 9q3 0 6.5 -5.5t5.5 -29.5h7l-12.5 -79.5t-6.5 -33.5q-1 -10 -14 -10q-9 -16 -4 -27q6 -10 -8 -13l-21 -3q0 -3 -10 -20q-11 -17 -20 -13q-10 4 -60 -8q-25 -5 -44.5 -10l-34.5 -9q-29 -7 -34 -14.5t-5 -10.5q0 -2 2 -2q5 0 6 1q5 -4 17 -5
t29 -1q16 0 34.5 1l35.5 2t30.5 2t19.5 1q11 0 16.5 3t10.5 3t6 -0.5t1 -5.5h6v-14h7q0 8 7 11.5t15 3.5q18 0 18 -12v-3q5 -5 6.5 -10t6.5 -10h7v-6h6l7 -7q3 -11 3 -18q0 -9 -1.5 -17t-1.5 -18q-8 3 -10 2.5t-1 -2.5t2.5 -4.5t1.5 -5.5q0 -1 -7 -3t-17 -4q-12 -3 -29 -6z
M873 248q2 3 8.5 4l13.5 2q8 2 13.5 1.5t5.5 8.5v6.5t-2 7.5q0 10 10 23t10 23h-4q-2 0 -4.5 -1t-11.5 -5q-2 -5 -8.5 -16.5l-13.5 -24.5q-7 -12 -12 -18t-5 -11zM674 46q10 0 22.5 5t17.5 15q15 0 30 1.5t30 11.5q-5 3 -8 5t-6 2v-7h-60v-6q-5 -5 -9 -7.5t-4 -12.5h-13v-7z
M607 26q5 0 7 -3.5t7 -3.5q7 7 10 11t5 11l5 12q-7 -5 -11.5 -6t-11.5 -1h-11v-20zM907 431v-13h6q5 -15 17.5 -26.5t22.5 -26.5q-2 12 -5.5 20t-9.5 15t-13.5 14zM967 19q20 1 23.5 3t3.5 7q-5 -5 -10 -5.5t-10 -0.5q-5 -5 -6 0q-1 -2 -1 -4v0zM820 451l13 -13
q0 5 -1.5 6.5t-11.5 6.5zM947 53q4 0 6 3q1 1 2 1.5t2 1.5h-10v-6zM800 79l7 7q-11 -5 -17 -6q-1 -1 -2 -1h12zM647 73h7q-1 1 -2 1.5t-3 2.5l-1 1q-1 0 -1 -5zM602 718q5 -9 9.5 -21.5t9.5 -22.5q-5 -14 -13 -28.5t-13 -28.5q3 -9 3 -21q0 -24 -10 -56t-23 -65l-26 -64
t-19 -53l-10 -29t-9 -34q-14 -36 -26.5 -76t-26.5 -80.5t-30.5 -78.5t-38.5 -69q-14 5 -14 14.5t-5 23.5q-4 0 -5.5 -3.5t-6.5 -8.5h-5q-5 0 -12 0.5t-15 5.5q-5 -10 -9.5 -15t-9.5 -10h-12q0 9 3 18.5t3 19.5l28.5 37.5t28.5 38.5v5q-12 -20 -25 -32.5t-28 -12.5
q-2 0 -10 2l18.5 64.5l18.5 61.5q5 3 8.5 10.5t6 15.5t3.5 15t1 9q10 7 21.5 31t22 52.5l19.5 55t14 38.5q5 11 12.5 21t12.5 24q24 63 41.5 120t41.5 120q19 0 37.5 3t38.5 3zM576 674q-9 -5 -17.5 -5.5t-13.5 -0.5l-32 -70q20 14 32 31.5t31 31.5v13zM487 453
q-9 -5 -18 -13t-20 -13l-12 -38h-6l-7 -19h7l22 33l13 20t9.5 14zM437 339l-6 -13v-4q1 0 12 17h-6zM418 307q-14 -9 -17 -10.5t-8 -1.5l-19 -38q9 5 14.5 13.5t10.5 17.5l6 -6zM456 263q-5 -10 -6.5 -14.5t-6.5 -4.5q10 5 11.5 7t1.5 12zM412 238q-5 0 -9 -1t-4 -6
q-5 -5 -10 -13.5l-10 -17.5h-19q0 5 3.5 12.5t3.5 12.5h-7q-3 -15 -8.5 -28t-5.5 -27q0 -2 0.5 -6t1.5 -9q20 29 37 49t27 34z" />
    </font>
</defs>
</svg>
